<mxfile host="app.diagrams.net" agent="Mozilla/5.0 (Windows NT 10.0; Win64; x64) AppleWebKit/537.36 (KHTML, like Gecko) Chrome/128.0.0.0 Safari/537.36" version="24.7.14">
  <diagram name="Page-1" id="mHcV6ogL_voD5QTKa0Ge">
    <mxGraphModel dx="1434" dy="756" grid="1" gridSize="10" guides="1" tooltips="1" connect="1" arrows="1" fold="1" page="1" pageScale="1" pageWidth="850" pageHeight="1100" math="0" shadow="0">
      <root>
        <mxCell id="0" />
        <mxCell id="1" parent="0" />
        <mxCell id="77E6BOxxnhZhVT2tTn5g-2" value="&lt;h1 style=&quot;margin-top: 0px;&quot;&gt;Legacy Oracle Forestry Database&lt;/h1&gt;&lt;p&gt;Production - DBP01 - ALL legacy applications that are in scope for FDS is in one schema called &lt;b&gt;&lt;font style=&quot;font-size: 23px;&quot;&gt;THE&lt;/font&gt;&lt;/b&gt;.&lt;/p&gt;&lt;p style=&quot;&quot;&gt;Many of the data models for each applications have alot of &lt;b&gt;&lt;font style=&quot;font-size: 20px;&quot;&gt;PL/SQL code&lt;/font&gt;&lt;/b&gt; (Oracle packages, store procedures, functions etc).&lt;/p&gt;&lt;p&gt;Many of the interactions and &lt;b&gt;&lt;font style=&quot;font-size: 20px;&quot;&gt;access to data&lt;/font&gt;&lt;/b&gt; between applications/domains occur within the application.&amp;nbsp;&lt;/p&gt;" style="text;html=1;whiteSpace=wrap;overflow=hidden;rounded=0;" vertex="1" parent="1">
          <mxGeometry x="40" y="140" width="450" height="210" as="geometry" />
        </mxCell>
        <mxCell id="77E6BOxxnhZhVT2tTn5g-3" value="" style="shape=image;verticalLabelPosition=bottom;labelBackgroundColor=default;verticalAlign=top;aspect=fixed;imageAspect=0;image=data:image/png,iVBORw0KGgoAAAANSUhEUgAABCoAAAJVCAIAAACXk4OzAAAgAElEQVR4Aey9/1MTWb7/3/+EY37Y2ir2uj84pVtDlVZBlTVTZiq64no/b7mXz30Po+/7Rubez+Wyt2b8ZH0vcxl39jpx5lMSmBllnRGje9fd4KCEUcaIIIkGJHyT8D1AkAAiBEEMEiWjOPSnOl+6z+l0dzokhO7Oi6LgpHP69Os8zknn9ezzOucQJPwAASAABIAAEAACQAAIAAEgAASSQoBIylXgIkAACAABIAAEgAAQAAJAAAgAARLkB3QCIAAEgAAQAAJAAAgAASAABJJEAORHkkDDZYAAEAACQAAIAAEgAASAABAA+QF9AAgAASAABIAAEAACQAAIAIEkEQD5kSTQcBkgAASAABAAAkAACAABIAAEQH5AHwACQAAIAAEgAASAABAAAkAgSQRAfiQJNFwGCAABIAAEgAAQAAJAAAgAAZAf0AeAABAAAkAACAABIAAEgAAQSBIBkB9JAg2XAQJAAAgAASAABIAAEAACQADkB/QBIAAEgAAQAAJAAAgAASAABJJEAORHkkDDZYAAEAACQAAIAAEgAASAABAA+QF9AAgAASAABIAAEAACQAAIAIEkEQD5kSTQcBkgAASAABAAAkAACAABIAAEQH5AHwACQAAIAAEgAASAABAAAkAgSQRAfiQJNFwGCAABIAAEgAAQAAJAAAgAAZAf0AeAABAAAkAACAABIAAEgAAQSBIBkB9JAg2XAQJAAAgAASAABIAAEAACQADkB/QBIAAEgAAQAAJAAAgAASAABJJEAORHkkDDZYAAEAACQAAIAAEgAASAABAA+QF9AAgAASAABIAAEAACQAAIAIEkEQD5kSTQcBkgAASAABAAAkAACAABIAAEQH5AHwACQAAIAAEgAASAABAAAkAgSQRAfiQJNFwGCAABIAAEgAAQAAJAAAgAAZAf0AeAABAAAkAACAABIAAEgAAQSBIBkB9JAg2XAQJAAAgAASAABIAAEAACQADkB/QBIAAEgAAQAAJAAAgAASAABJJEAORHkkDDZYAAEAACQAAIAAEgAASAABAA+QF9AAgAASAABIAAEAACQAAIAIEkEQD5kSTQcBkgAASAABAAAkAACAABIAAEQH5AHwACQAAIAAEgAASAABAAAkAgSQRAfiQJNFwGCAABIAAEgAAQAAJAAAgAAZAf0AeAABAAAkAACAABIAAEgAAQSBIBkB9JAg2XAQJAAAgAASAABIAAEAACQADkB/QBIAAEgAAQAAJAAAgAASAABJJEAORHkkDDZYAAEAACQAAIAAEgAASAABAA+QF9AAgAASAABIAAEAACQAAIAIEkEQD5kSTQcBkgAASAABAAAkAACAABIAAEQH5AHwACQAAIAAEgAASAABAAAkAgSQRAfiQJNFwGCAABIAAEgAAQAAJAAAgAAZAf0AeAABAAAkAACAABIAAEgAAQSBIBkB9JAg2XAQJAAAgAASAABIAAEAACQADkB/QBICCSgN/Taiw/lq/OSCPCP2kZanWetrzS7JwXWQhkAwJAAAgAASAABIBAShMA+ZHSzQ+VF0tg3KTdrQqLjsj/WYZRsSVBPiAABIAAEAACQAAIpDKBjZEf/imH6aJem6dGHyQTWzLVmuzC4wZTt9u/krhGGTfmIn5jdqUncUVDSalBAO9CkeKDyDN5U4ME1BIIAAEgAASAABAAAnESSLb88FjLC/cxsSscnlzwkEqtrXQmwqVz6DOwi4D8iLPHpN7pbsM+pAttydZbaXns93qc9prycmsiumrqkYUaAwEgAASAABAAAilIIInyI0r4CuLhhZOqw0Z3XMMgfvuJzHBhof8gP1Kwl8dV5W59OtOHIMgqLpZwMhAAAkAACAABIAAEkiM//M6L+SKGPBgvj06pCsxrfrDsb9WxxQdBgPyATh8TAUcZoj6OWfwxnQyZgQAQAAJAAAgAASAABHACyZEfXvMxZPoFQRBbsgpPGS1DHq+XceeoQBarUffeVjyrqtjK5MGNF3zls2jxgoKSBuSHIDV4k0XAYzpMa2HQriw48BIIAAEgAASAABAAAjETSI78IEmfXRecg7ElW3/TLTyg4W0oxkYt1jKv12M6TIuPTH1ZMe1CgvyIuY+k9AkeYw7ddwhda0qzgMoDASAABIAAEAACQCB+AsmSHyTp79QXnrJ4xM3lcJShAkQba8iLu5JZ7Ep1zOJtBvkRf1dJzRLcBg3Ij9Rseqg1EAACQAAIAAEgsC4Ekic/YjN/1KBmvL5s41QsZ48bs+lzVbmmKdJTyRyA0Y9YUEJeu47uSwSMfkB/AAJAAAgAASAABIBAvASkKj+mEAlBxCQ/0JV2VbmVbpJMiPzwmvIQPzSmKcjY0knp+m6BNvN7uk2GY/nq3fQEGNXW3er8YwZTtyfmGTA+t+Omsfx4YbZGnbmFMT4tQ51dUGyocYgpEVFurFbwe6wGbR5WsrqCoh35E9jmpbgwR63eRkfEEeFtXvSGGrtzPubKRV4FOzLvtFSWUxvLMFcMkiw3ttLL5mJn4C/83nGH6aI2H9ngnCGIpnKMsI8Mjg5eAQEgAASAABAAAkBAiIBU5Qc2+iE++ApbaVcVFgmID7322cN+azHiO+eb5oWwou9hSye9pXeg7yFpj1Wfy/jKqIcbSqu25eqbhWfNBIpb8dgrddH9ZoIgVFtzTzuES0TQZRvHw+bOW4q5tgDPvcJ2xb39Rq2YbV4IQrUtq/gm+/Tw9WL577Ho2asXRMDckiWwq4yntpAWfxFnRhwA+RFL40BeIAAEgAAQAAJAAAhIVH64K7IYR0+0h4ettJuhs/tC7Yv40GuXHyTp0L/FGCU6iAs7K+si5/iA13JcjWgb5ioRKZX6c3uUkYJRA8IuooCIA5knhApE0QUnXvuHDMzEGrw01sxs95WYVltOwJYa3oZikRwp8XVAz6m90Crj9eN6Jbpzwr0GCAABIAAEgAAQAAJAgCRJScqPcSPi4KoKa4Uf0Ifbcd5cyLjwmbpOxktHHUrRsiFcLPLfcQrZAmKfgVNJINkDSSzyitPDxkZsCCIt65jBPk4vSOz3jtsNRzGnWlgwkCQTJ5aWka+rNDvGkfWNfR6n1aDFxi6ECKPotA1+EmsaljuORWf5O9FNV1TqowZqnWWmTfxebyA27FhucKhB9XGs6wuwSaPrDbAs432JaFR2caHXMPeDBwwcBgJAAAgAASAABIDAmghITn54rLosRkUQqsMmcRE5biOz0i6RfQmTBqgPHY/8ILGBBbVhNDpy+wmkMlwrCGNOsypL38mttdy1hchaYJi4ijTCb9XlnjDapxhnPyIPhovQ8EopDN0lO7MKrWpr7imTg5ZJK36vB1UX6Hq16cVW7kqFrfJ7Wo2WofCrtf3v1iN8KLmRlqMzWp2ITdS+MpZKXTYyDYYaAzlsxPoK++ogP9hE4DUQAAJAAAgAASAABOIhIA354fN6xx3mSh1r8kPmf5gFXUOm4qgTH+lQYj50pTg5w5SNppiBBYIg0k/xzeMIn+K3YPNFaiK8cGzERkUNL/D++O3HYx974S2NFCmlUHQqVUhKqQ7o7MJTX7zmQnrEgV/bCFgX41tuwz76egRBZBbW8HecFbfpPzCpIqhIQX7E2BSQHQgAASAABIAAEAACggQ2RH5gLh3qNtJpapq1VbROQAclVIXmCM8Y9aEFfU1BVIE3vTX5tJEE/zzyYEH4bHWOCfRYNBfX2Ahm0LwJubbwClrYeTwv3MaDTFX4ItxQdKHc+/SO8KQanpJJEl247KDw8AJvGeLfwDmHljsTPB0f/FEV8wd+YX2VNblF8BLwJhAAAkAACAABIAAEgAAHAanJj61ZJ4yOcYFBgIg6+B2h/dQp7zhT18pxLupDxyk/SGxAQ1Vs5bhc2ES/5WMm8opjbkMMRQWLxMdeyqKNvYTt4PtvP8HIDz4sKLpAbmT9K75ySVx+EOJOESgtyltecwFTEULknBxUshIEn/oiSZAfUejD20AACAABIAAEgAAQiImA1ORHwI9Ubc0q0BtbxexLgc3bzvzcwakGUB+az88WTw0dsuAQFXRBfouW8YpVHA/OW3WMOiE4xkbokuiEuwLZjDHuUQW0ND4sKDpR8WYhW+1o3YiMQmN/ROAZXas4Exhn8SubYVqOCK/RHGELyI8IJHAACAABIAAEgAAQAAJxEJCk/Ah77ardWuMQp6AI1djfXMzMh8jhDfJBfWg+PzsGhthiVoVmHr/aW8tMf+AM00K9f0Lc+q3+BkTREDp7DEZzZBWDBc1DEKJm2weu5LefYFomqCnV/1JuEZoNz2GhqENYc4i3ENuMklDpeMaSQH6IagTIBASAABAAAkAACAABkQQ2RH5E2Ob3er0eZ6vJcLwwC1+YiFCpOeOpqCLQeduqXGZTvIjiUR86AfKDxCY650dOKKcMwCKC0rkCpezHwzKLIIgT4qREqw45J1fkomARPEiSpIg7K7Lp0viwoOiImASPz44ExdHXIdL2FZbfdHpXuIxa07G1S7JOdISGDybIjzW1CpwEBIAAEAACQAAIAAEeAtKQH5hxfs9NfPM4rtnkJInOHhbauYIksefcfH42ZkK0F9gEdM7JBtg0cc7tPtClaRnvPJYUts8Gh8l+r7vbbDyt1+ap1Rq18E7efFgw+SFuiIaxxOsoz0njrpFqa7SlgZlihFOYhTEFpKHz4wk+mCA/hPHDu0AACAABIAAEgAAQiI2ABOVHoALjBubJPNcSt+hKu9G24Uu8/CCjqYvo+oRcR/nhHTXr8zJ5HH9uObAu8oNqSa/7pp611QZigWrre3rzKE/4mriejMmPmAQSJj8Ijsk5lAEgP8Q1A+QCAkAACAABIAAEgIA4AlKVHySJzvBmz51A95iLvnH1OsgPElvVKiK2CpMWPNFZWB7EIxef5Hxg7zbjW6TzFZeWoc5E4tzWTX4Eu6HfYy0v3McniFTq45Y1SxCQH+I+6ZALCAABIAAEgAAQAAKSICBd+UFiofmoq+0sz6Cd6q2FFy0WKxVipD8V/C0uzKFijYK/qIdNn4Mm+Nzu6I2DrlvF2gAEW9SVb246Jj/WbgZmKBqQFqxlWmae1lBjcYx7vV72JP6YF96NaWwBMyz0wj9lN57I5QwDS8sz8e8UyFVW+BgmP2La4hAb/UA7WLho6j+MfqA0IA0EgAAQAAJAAAgAgXgJSFh+sLzDcbqqmEeIaok1pOPw+x36t+gLYuvqui9mMW98zLejnd9yjM5FqD7nWXiJrrSIBOaIE0RansEpOKaQfPkRqsSK13lTz9rhniCiTODhBdBczHAkisVN4Q8UhulbmHrOCxjeAAJAAAgAASAABIBAAglIWH6MGpBNLtCH0xKRHyQmM5ilq9BhDaF9CR1lyNK0cQ8skCQqhwjVYd5liOnes2HyI2SB13kxH4vHimnsgq4G1k9iWHjXfQmZXgQL79I8IQEEgAAQAAJAAAgAgfUkIF35gS+oij6clor8INHxGVVxaJgDPcgKysIbEq9gvmkefzvWV+NGxJtO13dHPR8bfuEbBcJGVBKgkdhWoUsIEARfoBr7LPw1tsVh1kWRMVyoSiRg20EcKbwCAkAACAABIAAEgMB6EZCs/MA3pRb046OyQX1oPj87aiFcGVAjQwMd6LXSTwmGVOHbdWdy7Q3CdVGeY9iWIGL8eGy0hA8LWh2ReyPy2Md32I7ETqFjXHz5OY7bTyDbx7+ls7MnuXCcQqKrFxBEYS1fmBqmdXlWx+IqH44BASAABBRH4LFvtHH0zIXOI2VN+wwdeSU2jdR+DR15ZU37LnQeaRw989g3qrgWgAoBAYUQkKj8wB+KE1H8+GhtgfrQfH52tDK43/dbi2nPV0XFX6GCJGogELZ8FkFk8m6wyH1x/CgmP7R8M07oc/ytOiT2i+DDgqJbJ/mB7KQoRjXRNUASuJYQIeTcxhxkwgg9coUUGU6C/AiTgP9AAAikNoG77vNnWrIbXF8PzVlnlpyzPpc0f2eWnENz1gbX12dasu+6z6d2o0HtgYBECSRFfozaTd1uv9iNrr3OysJMxDkkCM5t+2IAivrQfH52DMVhWZHIn7f0Dq+5kLaccztC7FwSC98iCEKlLr7pYWXhfumPeMKPBn0R0YKvIrYk58OCootBfvgj7eOuB7aDytrmflAF+y3HaBlIccytcEYAChuw4jbmYVNOsioE4rVAfoS5wX8gAARSmMAPQ59X9338cLFHmpKD06qHiz1X+4p+GDqZwu0GVQcCEiWQFPkRejCflplTWHzaaLY63F72OrB+r9czZDdd1EYsiERkfu7gdSXFUUV9aD4/W1xJHLmQ/UmyDRVaWn2IvBBrnIcgiLR9heU1FCKs1j6v1+t2WE2GU9r83VtVhC5iiScsmEpo6rnHXLwbddYpk/msRdHFID+mjNlbsnWVdg9Whwh6K9hKwaKnbUSUQ5LkvLkQr1PaPq3B6vQwFP1ej9NSqWPvgZihF4yQA/nBRRuOAYFUIgARR3fd56/2FXG6+NI/WN33MYyBpNLnFeoqDwLJlB+0Zx5DYs3bQaD4UR+az89G88eWxnb5oKsmfiq5334CH+yhyxBKRMoPbHdFaghgt9bQ6mbcb5/X3W0qL8gKPfnP0Nn7mdnqfFhQdLHJj5DxwY1H7JQOYIa//JSUqinPR1WQiO0jhdvF36pT4wpEiF/wvS35JmZBZ87iQX5wYoGDQCBVCMgs4mg08RFHj32jZ1qy5TXugYqih4s9Z1qyYR5IqnxioZ4yISBl+ZGWfdrBNyM4JryoD83nZ8dUIJ4ZX0Mp6NcWmGOx3O84nY3FA0V3nDnkB0ligwkCZah26+yUfcy0bz4sKLo1yQ8BK5C3MgrNUWQAjpznlX/IkI9s5Y5cgCOp2l1sib7aGMgPHtZwGAikAAGIOCJJsnH0TIPra9Shl126YfTrxtEzKdBhoYpAQDYEkiI/fG7z6cIs0X4hNQfiX8ot4iZBiCGN+tB8fraYcvjyeGvycfdWaLsPvkL842b9e5wbguNlE4RqW1bh6YB84CjLaz8lrGRU6qMmd2ggwmM6HCqcDwuKLgb54XcY6GEWtvms12nZpyweZmCEo0qxHfI5TSeECVD9S3tRpLIF+REbfsgNBBRDACKOgk15ofPI0JxVdpIDNXhoznqh84hieiZUBAgogEBS5EeYk3/cYa4s1x/LV2vU6m1YoIxqm1qtyS48Xm60Opl4ofCJcf5HfWg+PzuuS/gtzAJYVNhTeA+QNRQ677RUlmvz1OoMdDgkLVOjzi4oLq80O8aFp1MELjnvNF8sLsxRM2pmS6Zak6+9aHLgoo7e+pAPC4ouBvkRrLjf62w1GY4XZrObm6pO/rF1aesQcr/HUWOgMDLdTLV1d/iiMagdkB9r6MRwChCQPQGIOKKbsKxpn5TXuUJlBl96ZslZ1rSPrhEkgAAQ2HACSZUfG17bdTMA28IvzmWC181IKBgIAAEgAAREEYCIIxqToSOPz62X0XFDRx5do0QlHi723hwuqWg/XNq0V2r7n6D2lDbtrWg/XDdc8nCxN1F1h3KAQJwEQH7ECTB4utuwj44pirbobUIuCIUAASAABIDAuhGAiCMabYlNIyOZwWdqiU1D1yghifqRsnPth+6Mfeuab/YsDfNdVwrHPUvDrvnmO2Pfnms7VD9SlpDqQyFAIE4CID/iBBg4fdSgptXH2jevSIQlUAYQAAJAAAjETQAijmiEID9oFHTial9RrfMzKUiLWG24PvjZ1b4iuiKQAAIbRQDkRwLII1t/EHFtXpEAW6AIIAAEgAAQiJcARBzRBEF+0CiCifqRsuuDstQeQa1S6/wMxkBYbQovk08A5EfczLF55+K3+4j7ulAAEAACQAAIrA8B8LlproCCRkGS5MPF3nNth2Idc5Ba/nPth2AeCNqskE4+AZAf8TJHV91VfWwRsS5VvFeE84EAEAACQGBdCYDPTeMFFDQKkiTrhkvujH0rNTkRqz13xr69OVyC1gvSQCDJBEB+xAfcZ9EyCwhnGUbjKw3OBgJAAAgAAQkQAJ+bbgRAQaMgSbKi/bBrvjlWd19q+V3zzRXth9F6QRoIJJkAyI84gK9gu4xnfu6AoY84aMKpQAAIAAGpEACfm24JQEGjIEmytGmvxNe5EiN1PEvDpU170XpBGggkmQDID9HA/V4vvSGi3+tuNWh3MwMfRIbO7hNdFGQEAkAACAABCRMAn5tuHEBBoyBJUhk0Zn2uhK9EjFKCNBCISgDkR1REoQzY/t/0MrvBhCrXOC62HMgHBIAAEAACEiegDC8zIS4moED7qjJogPxA2xTSG0IA5IdY7HzyQ7VbawLtIZYi5AMCQAAIyICAMrxMkB90JFJCUMDohww+umCiTAiA/BDbUN6bxWpNZlp43EO1TZ1doDe2emC+h1iCkA8IAAEgIBMCa5cfE+W5xJuftrhox3fW57rxCfHGmxm71Bm71Ok7duYUVdZN+gIZhkv3Ez/bQR3P2LUz/d0PPr0xETyx5ezBTb98O3gK9bfgSgtaoMh0QnzutaMI1lEafxOCAuSHTD6+YKYMCID8kEEjgYlAAAgAASCQTAJr9rk7vnln+6/efEN7KSQwAs73jU+I/RfD+mG27ouDm/Ku3KckBCU/jt4IO+gjpiPbdxbdpl5ay9R7zg5jGkak5ECzJcTnXjMK1JINTycEBciPZH4G4VrKJgDyQ9ntC7UDAkAACACBmAms1ee2lu3ZVHSxdP/mgup5Rjxg8sPnmrx+hPjg/EiE/AiojuDISVURAfKDARi/egH5wWKYKCAxf7TgBCAQIADyI3kdwT/lsFgtod9OiNpKHnm4EhAAAkAgJgJrlB8tRds3H73hazl7kCi43k87fCz5MWs9Shws7eOQH9SJRVbXrK+qCBkVocuJNZEQF3ONKMJDOrHavE75E4ICRj9i+hBBZiAgQADkhwCcBL+FTV7PMXoSXDwUBwSAABAAAokhsDaf+7YuFHbV8c07ofGNyOArn6vjm3fe+OM1ys/Gg69m5y99tPnAhQcRx9fqyifE514binVSEWsuNiEoYpYfiZkI5Oozf5q3L33H2xm73s7YdagoPEEoMDrkbakuef/d4DShNw+ID9hLFJDEfN6glNQjAPIjeW0uUn54m/W521QEkZZ1zOxOnnUbdCWf03gsK40gVNtyy7thGv8GtQJcFggAAZzAmnzuqqLNmz4yBwY9ek/uInIuhOaRU1PPw3M/+vvMR9/9xYGzgwHfEZUfE9fO/lv6jk+qqEkjD8qzib/bdeCdXeqMHTvTcz8pb55dSyRSQlzMNaFYi7VrlhZiTkwIiljlR2ImAk2cL/qwtPlRCOmI6cgbe052hBSp9ex7P8s+U0cF8sX4mygg+OcGXgEBsQRAfoglFX8+UfLDay4ML65FEETWRYULEEdZOlNdVbEFBEj8/QxKAAJAIG4Ca/C5J80FbzBTPqxlaiK3MjC/HFv5KqegpJx2JQOjH6GVr/Z/UFBmDk9Px13JjooDP3+vnArWivE3IS7mGlDEamcS8icERYzyI1ETgVjtXvVReF7QSGXOGx9iixyIJ5koIHF/1KCAFCUA8iN5DS9Kfowashh/nCBO2JNn3wZcyW85htY22zi1AUbAJYEAEAACLAKx+9z91dpN4dV1AwvmvrkpNMEjID/Cox+4K4mOfghJi6qPiEBQllAevORAzoS4mLGj4LAEc4upWtPDQdR0FxQUkYhJL9jlEociNvmRsIlAOM9H5/OII4GFDVrOHmQv8RxZcb4jCekbrE8NvAQC4gmA/BDPKt6couSH/Ec/nBXZao1arSl3iAAGox8iIEEWIAAEkk0gZp+bcgrTse0+ek++S7xT1kv5jkjwFe5KipQf85cKiPeN4fAbPocy8nhCXMyYUUTVSKkhPxI2EQjjef/GJ+k7/ngtsKxzVRHx/oWua2d17+9XZ+z/oOhCe2i0LbInRB5JSN9I9scSrqcgAiA/kteYouQHScp87odD/1ZwQEMnauAG5n4krwPClYDAWgg8XOy9OVxS0X64tGlviU0jzd/Spr0V7YfrhkseLvaupZIR58Tqc49U5hCHyvEQ/P7qDzftOmNdg/yYHLb2eWmhgnqc9EFRiYS4mLGiiPR0pXAkIShiGf1I3EQgSn60GH9LDan9cnNGXkVQewTXJ9j084NHq4ep6UaTw+c/2pleZGPWWxPGLh6ILO4AJTZNwm8CEXcFOJBIAiA/EklTuCyR8kO4EKm/O2pQh8KpxMkPqdcH7AMCKU2gfqTsXPuhO2PfuuabPUvDwg7NBr7rWRp2zTffGfv2XNuh+pGy+NssRp+b2qQ8NOkcfVbdUrT9V9Q2grGOfky2nMw7GFjmSJ2x6+138kqqcGEjSnvM+lziXUwBYjGiEGtbkntLQlCIlx/rNRFovuVGyYFfHgpMBKIGkULDa0GYlAYWPRVEJBC53AFmfa6E3wQEPhTwVvwEQH7Ez1BsCakgP9wVYfVBgPwQ2zEgHxCQJoGrfUW1zs+S7CbGf7nrg59d7SuKEyn43DRAQEGjEC0/1nUikLVMHZjyQYXkBSeBhCUfvZ8MqoF50mLkh0zvALM+V0JuAmi7QzrhBEB+JBwpb4EpID88xhx6KjnID96eAG8AAekTqB8puz4oP+0RVC+1zs/iHAMBn5vuooCCRiFWfqzrRCCftUy9qchGRWSxpp5Tox+/rxIp4KPKD1nfAWZ9rvhvAmi7QzrhBEB+JBwpb4GKlx/eVj2ybBfID96eAG8AAYkTeLjYe67tkEg/RprZzrUfimceCPjcdBcFFDQKkfIj8ROB5sPjGz5X35Uj23dSEX3UfA/r0R0HPw3tCTNbVZS4uR8KuAPM+lxx3gTQdod0wglskPzwuR03jeXHC7M16swt9PNyIi1DnV1QbKhxeETs/4B487kmZAtx/5TdeKowW5OZFi5YtS1Q7E2nd0UMQMW+7dgAACAASURBVLuOPvFzZPWmFa/zpkGbp1ZTewIGf9IyNfna00b7lAhzSRIxmCB4dz1nrk4QhK5VjMEkSfq9Q2bDKW2+Rr2Vtk61Va3JLjxuMHW7/dEq7p932msM+mP5arQEQrV1tzr/WLnRKoiOIlOev5u+cBgP1//sSqSpxDKJgOD3OGoMxQXZ6gy6kcOd56bTK6o1SJJkUKsrsP1VvEMWVhdKy1Cr87Qie2aEuXAACMiMQN1wyZ2xb6WpK0RadWfs25vDJWvmDj43jQ5Q0CjEyY/1mAiUvmNnYDXntzP2I1sQzvpcIw1F2TvTA9tTHvi0IWErXyngDjDrc8V5E0DbHdIJJ5Bc+bHisVfq8hGXkctBDRxTbc097fAKVhfx5tP13YGsK27TUbWQF7wlS1uDOZpcV2C8UqLAHLTB21mejcikCLNVW98rj2KuWFcbuboo+eF11ugEbQvzrHByuOVet/l0YRYjqCJqRh/gRYcGXNG5eRPxyg9vaJd03gsQBKHamnvK4ommuFD5QRwLbXjo7TdqhXWUSq2tdAr3TK5OBceAgJwIVLQfds03i3T0pZnNNd9c0X54zdDB56bRAQoahTj5wYxUSPOjEbRKOPhKAXeAWZ8rzpsA2u6QTjiB5MoP1p56Qi4k9V7mCTuHxxxmgMgPorDWS/rsOmHHMXy5zI8tgu4jIgDe0jtI0n0ln3nGHi6E478q1zAkYO86jH74HPoDQmoLNZJCFPHjb9CKPZ8qS5VbGSnekic//EOGfCERiFaXIDIKTeMRFcYOIA2tMbjFN3S0noldBF4AARkSKG3aK+V1rsR4dZ6l4dKmvWtmDz43jQ5Q0ChSR34o4A4QXAsrnpsA2u6QTjiB5MoP0mvKC/mIaRn5ukqzY9zLhMr4PE6rAX/2rOJ0moMUUPmhPm02Ho7BkRYUNohXShQab+oycbdW6JUq18jv8qIGJyD4ymfXZQjZgr+nDT3eZ/cgepsO1dYDheU1dqfHS0dq+b1uR40eH1rJDA00scsJvJ4yZjNXFTX3QxwTqnB/aywNETRDsDmw0Q9Ca2qIqXxV7hUsioyTBxwEAjIlAB4nEKC7LqCgUaSO/FBGoydq7Wm0A0A6UQSSLD9Iv1WXe0J4soQbExKBx9KctcU8V9rrVanzT5swVeP3urtN+hzWAIaAsEHlB10ukZajM1op55w2xu9xWi5q2cFeGdSACecPZnC8cz88JpbcUm2lwI4z4oH0eT1DdtNFbX5GmupjHvVBku5L+fmnzc55TpMDB1k6JxynxHHC+smPeXMhri5Vu/PLaxxutDkosRQxBSVDZ/dxWBo4xN3Qqm25ukoL2tJ+r4djcktgZIyvaDgOBGRNQBnOh3B4iXADAQGaD6CgUYD8EDPwKKk88dwE0HaHdMIJJFt+iKoAFqOlNoxyn4R580GZkFFs4Xej3ZdyMQ+W132M9EpVuZwTJ4J2edmjEPk1HGFOZELnfrCCplS7hSpOmRl9IgQ35OBRv7UYQcc3kEKS6yU//JZjyPUJVVaZwEQbr6MsC82dzhvCF9nQhFBg3goujAmV6IUBhNjCe0BAggTA4wQCdLc0dORJyqFcmzGGjjy6RvEklNExog4LpEg14+kJcG6cBCQpP0i38SAz7MAXfxUhP7IFAp8CmPz2E2gglarYygxlIBzZXmn6caEpKNSJ40ZM2eyjJhJE/mAGxzX64TbsY/gQbxXzP+CPtGJtR+zFzAXDE/0jS1on+YHJ0SgzggJGsRo6i0fBshuayDFyNhxTUXwQhrVeFpMNUkBA5gSU4XzE8+ATCNBduKxp38ySc21Ov0TOmllyljXto2sUT0IZHQPkRzx9AM5NCAFpyg/SfoLxdllrJdHVxrx5gkg/xRf0RJ9Bkj4LNtWaO46I5ZXmm/hHVOii3RXIjhcE94gNZnA88qNbn87gEYgio62LP4HNL+d96r8+8sNRhlZXa+ENpkKqiTd0ehln32A1NL+sYgr2W44x6InjduYdSAEBBRFQho8F8iMeAnR3vtB5ZGjOKhEhsTYzhuasFzqP0DWKJ6GMjwbIj3j6AJybEAISlR/uCjXt5YmTH2J8R4qY/QQSmKPScbmluFeaZ+IOpWLhxzxvgnNecqLkBwqHUIma4c0yNvaXmNudXPnhNmjovkCoToj1+B2nENHCPYMIb2juPGxU4hqRfRa8BgLyIqAMHyse5xsijuge2zh6psH19dr8fomc1eD6unH0DF2jeBLK+GiA/IinD8C5CSEgUfmBOnni5Af/hAQWp2YkjIjA9isMZ8S8UtEBNljAmArdrzBcLlqpOFa+8poLGHec3rAifJH1+o+ORyVVfnjNhUh1tQ2c8XJctW7VIUIzekNzNhlHua30ppQCe0dynAeHgICMCCjDx4pHfkDEEd1dH/tGz7RkP1zskYiWiNWMh4s9Z1qyH/t4ZpHS9RSXUMZHA+SHuNaGXOtIQILyw+/1ep0VzAquouSHuEfXFEhsmIJzzASTH+L9XdRBp/crRJsuQfIDGw3gg4NeN970CtUi5o8ZEZBU+TFqYAbCiGzjlOjaeEy5jMkqXWfkiVhDiyUJ8iMSJBxRHIG1+1gtRduJnAsT6M5rVUXEpl++HdizeWf6jkNHL3T1Bz3Ivot7iF9QGzYH9mx+J6+kasSHnkilJxsKthN7zg6zj4vxQeORHxBxhHbqu+7zV/uKxDCXYJ7qvo/vus+j1YknvfaPRkTf3lhWwp+O2Ko5UZ5LvPlpC/YhvfEJ8cabgU+9On3HzpyiyrrJIIHh0v3Ez3YEPvW7dqa/+8GnN8K3iz7zp3n70ne8nbHr7Yxdh4pCx22fBm8R9N8dvyDe+OM1kfSEqxlPT4Bz4ySwQfKDWgzXbDyt1+ap1Rr1VuQxNeMxhlN8fqE4bz6SDzqLmuDypDGvlCtDZJnUEfclRjJxDm6IMzjq1bEMxc3cxsR81OdxtpoMp4oLc9RqTSZrleJwU4T+8zLBpJ2oqLDoTFB3nygWG3pF1R8DxWVz1AxcFFF7eCfwcJ0Ix4CAfAjE5nwwflV/tXbT9l+9+e436FSBqiJEP0x2fbp/8/vGgMNByY9PqsJuxH3jh2/u+AL3KuavFb296Q3k9HBmzNHhOxiP5wERR6ze+sPQ59V9H8trDOThYs/VvqIfhk6y6hLPy7V+NET1WL6evB7HhT8dMVWz45t3tv/qzTe0l0ICI3BDuPEJsf9iS8jy2bovDm7Ku3KfeknJj6M3wjeNEdOR7TuLbvtcsxPniz4sbX4UAjViOvLGnpMd4WwIAWvZHrbUQd5lcxauZjw9Ac6Nk0Cy5Yd31KzPi+LdspzdhMsPJHomkfIjqicdNUOgLaP6xFEzxNYlPK0G7QFhAchqEE5ogYuuu/wQJWnC9cdAcfUiLAOXPgmXhP4H+YHSgLRCCcTkfDDf/fOXPtq85+zFo7jfgMmPWV9/9YdE0BHB5Ydrtvfkrl8FHJGwz3H7i4zsS6WoemGuFc4jcCQezwMijiK79l33+TMt2Q2ur4fmrFJeC2tmyTk0Z20Y/fpMS3YCxz2CQNb40RDRXQV68nq8JfzpiKWa1rI9m4oulu7fXFA9z3j/mPzwuSavHyE+OE8Nb+LyY9ZnLVNzyomqjzifO7QUbeeWJcylUVzC1Yzs5HAkaQSSKT/c5qPsPfrYjm3gdVqGOnML8w6X40jxEefNR5KM6nRGzRBZpih7xBkc9epRM3Cbx3HU5yhn78bIYEdSqq27sREqXk8d5AcHZTgEBORHIBbng/nWH7nyPnGwtM9XVbQ5o6yXPs6SHy7aL2HLD5Zf0nvy3YOlHT726ahvIZyO0/OAiKPIjvvYN9o4euZC55Gypn2GjrwSm0Zqv4aOvLKmfRc6jzSOnknUfA+UQ2nTXs/SsHDHk/67nqXh0qa9aL1Y6RjuAC1F2zcfveFrOXuQKLgeiquc9TEf8xAN69HAzSFSflAnFlnp20U48eh8HnEE1TOBcqjx1dzKwCiKOEUX502AhQVeJpBA0uQHa8s2giDSMvO0hhoLtUM5snd1sG7oPIqEyw907jmXJ71G/15mwVesvcwJglBtzSrQG2/anZ7IFtm4hXfR0QZC9AIDVDeK2o5RM3B90FB7IPiKixAcUwCBGJwPxgm4f+EQEQi7CoRgMWFULP0QeFZqo5wMlvyYNBe88V55X6hAa9medwIahnV62Dthrst7JH7PQ84RR5/LpR++er1c0X7o1etlWRhc0X7YNd8sfYEhbKFrvrmi/bAAcPF3gNu6UNhVxzfvhMY3Ap9N+ilD0JKOb94JTdhgPWWghkwPXHjA+hTfv/FJ+o4/XkOjuahyqEkmkZqEdS72Mv6bgAAleCseAkmSH9iDf4JIyzM4BZezjVl+cC+hy0Vm3IhM0eDcoAPzSjmX0OUql7QfRwYMuHYUwSDweq7Y1bnUkUP/FnMhPm3GaSFy0G8/gaxLS6jUx80eoZ3RN05+YO0VdWdJpIoxTj3nQo2URidBftAoIKFcAuKdD8bLobyKoGAIBFowYVSIfphvqf7jOz9/rzQY0o3Kj5GW0ryd6UXW0NPTjoo94XkgyOkiJAdjj8+VEM9DZhFHrnWJOFrXnm6f+GuJTWOf/Nu6XiVRhdcNl9wZ+xbtZnJM3xn79uZwiQAT0XeAqqLNmz4yBz62vSd3IctOIPKjv8989N1fHDg7GBAGqPyYuHb239J3fFIVlhktxt9Ss9V/uTkjryJCe/hclIbBZ5hEhZ+Qm4AAKHhrzQSSIz8wj1l1ONre0tTuHNE9bMybJwrNgnqGBuRv0DJFi1h4l2fHOro8OoEtSMW5iitm8Nrlh8d0GKnB2na+mzflI2Vknoi2rTu5cfLDb0EbTPxCZGSMKyyD/KC7MiSAgGjng3nQSD37pGOy5y8VMCvhICtfHTryRWUdvbwVJT9CK1/tyfv9yWr6CehwefbbR2+H4sg3WH6QJAkRR+v3iXj1evl0y8ESm+Z0y0FZDIA8XOw913Yoqtcr8Qzn2g89XOwVaFaRdwBqxJKZ8mEtUxN0ZBSy8lVOQUk5Pac8MPcjtPLV/g8Kyszh6enow4X5lhslB355iB4LDd5nrn36K85ZIsxdKBI7yA+BVt7Yt5IiP7AH2Jxr3bIgYJvc8T3gx7x5QiXSfcS2HXxLH33bQV6dgNuMTXsgCms5xBBmMG+xUUc/SGwXcO4q4LZFvsJcczHbumPiihc1BkHUNHERTDDlo/rYInLjD6yhuddljo46khwJox8cUOCQ0giIdD6QL3tr2R7i5zuD62wGFtL9BfFGaFUrXv2Ajn4gRd03fvAzJIic93TkFG7/AzwP6fdL++Tf6NkjrZNG6RtMkmT9SNn1wc+idj/JZqh1flY/UiaMWtwdgAqzDK+uG/jsv7kpNMEjcu4HrS7Q0Q/6IEciYkq6lbWmBfennoUdbgLCDb2B7yZFfqAem6hhCmy0RJz8IEQ5pj6LFlnkl2cLbcwrJYgsg4jditwVWchwAvf2FCJcbTEzFkgS21BPFcOAQLijYZaIETD43n/JlR/4GgMit/6YNxciDc0zhIU1NG+lwtBC/9HOzKshWefASyAgMwLinA/k65+afhpaTjf49Y88FuXVD9zy48H5guCeAKG/6T8Pbhvy2/PhaSHIdTm8FuZdeXkeC8vidzWSWXfiM5ce+ggqELkMgJAkebWvqNYpSwVyffCzq31FfC1CHxd1B6Bmh6dj2330nnw3HIGJBF8xH0nq5hCD/NhUFJgkFrilxDzpPHgjktdNgOafConky4/os4f9rTp0XoJI+UGIcEwdZZmISFAVWzmfpGNeKUEQ6VFjk3Bnl9hncHP1Hczp5/Vcsavz+MSYPCMydHYf1/X4j2GWcI8MYCdj+QmRC++KCofDSuZjguNVFUSNs/Pbj6M9iE9AikGNcaBegPyIQAIHlEdAlPOBuP63dW9u1+Fbdvio8ZDAIEaM8gMpNuBA8J4edC8E/srL86h3fVnv+pIkV5XXnfhq1DpppIc+gom2h5f5MkvteP1I2bn2Q3fGvnXNN69pLawR15N7Ar03gW95loZd8813xr4913Yo6rhHkLOYO8BIZQ5xqJyOpQwY3F/94aZdZ6htf2KVH5PD1j5k3d6+K+H9QII3hInyXCbKC9cz7DsG9q68bgJS6+Trak9S5AcWkxMt+CpiRSbR8oOgZpXwz5/2NutQ8UFkcEZesccfAnIlU9fMEUwVapgV1qJeKs7IK9ErBYvyiTGvnSBUB/QOfgM5OhDqQxPRgq/GjbnISAIhID9IdEtHPnWHmYNVhE9+kCQ+uERkfmzhr67X/jm2vrOKaxmAgBGiUGPmgvxg44DXyiQgxvlA3KOqos2hSefIQVfYO+HVD9yjH2xngvd09FqcaXl5Hqb+T0psmh+cJ39afa3MXoXXapVc/X7g0+96tMbuD0tsGmP3h9/1aK8N/lFGAuzhYu/N4ZKK9sOlTXtZOkpSL0ub9la0H64bLhGe74G2j4g7QMvZg+FJ5+hntqVoe2DZiZjlR8vJvIPpO4IBnG9n7Ee2IJz1uTrOvBPxgAOTGZx3gNkErT+BkoF0oggkRX6Q2NN6oannHnPxbtzVJQjx8oNaPHZ3frnV7WeJEJ/bciob38k7vbiZc+iDU35QywRnnzA55lmn+L3dRi3L4BzeifXiXG2RPrHbmIMM5FA1V+efNjnGsTWM/V6vZ8hurizX5mXqW5E+gwdTCUw99/Yb8pE9WIKX5BmTIUnSay5ArOJHQZsijglJkg59BlIyQai25eprHG6kun6v21FTns9qDlWheZ6+GishEjV+Fqrc+PUSfg68AgIyIyDC+RD13c/nEyTnuLzkx6WugqDPerWv6PVPr2TWY+Iw1/fySYlN8/zlQhxlyOzU26OnS2ya6v7/lKzdyrgDgPyQbAcjSTI58oMVvk+odmsNrYjr6PO6u03lBVkhhZChs/czy+OKkR/Zl+zGw5huSctQqzWB3wxcdwScWAGHG98vQmduxcdMVFtDxWqwnfhCrrEq1zjO29ziXG3RPvG4KVIYYB46/gLXDKyFd4m0HL15yEPLNr/X47Qade+FdkOnFKOV2S4FLwqrLytwTnVAZxkPazafx2k1aM9is/3FMQlcIsb6UrVXqXWt4atjZgZfiEaNngvyA6UBaYUSUIbzIS/5cbb1n+hH5pXdH72UyT4Y8X8CUk1+WB98E2zoivZD8dNbpxKUcQcA+bFO3SMhxSZJfpAkK0IJd42RV6rdOjsVWMOE8YiRH8QJO+lzGnAFgpSKJlXqzwNX4OWHeqXUJHJvQzEWtYUWhqa35Atoj8QGX4VsHzezx15Qe/A0WzNEBLnh2ZlXaXmBkDZk+TJ2URhJv/2EIK0TdjR7DPKDJMl5S+TgGGMoK7Ul3zAkoD3Yw1yClUJMBvmBwICkUgkow/mQlfxYLbHtoeVHiU3z5/v/uvzqmVI7GFqvlJIf6EpfJTbN61VWqAYKZiPTyrgDgPzYyD4U7dpJkx9UZI6dHQHFchhV6qOm8OQNZncLUfIjtP1FtEtsydZbPdGY4PIjMJrhH4oIssJsV6mPGoU3UlwX+UGS5IrHcio3NEiBmYS/UKnL+yPq7XMaj2LTJPBzAiFnp+lJJQ5deHgpmqfuNgsUG4/8oGrgtZ/OFzaaipQ7ZXZHn46PNjT/fHoWNpAfLCDwUokElOF8yEh+PH+5gGqPK32/H3psVWLP4qhT6siP+49MaCuX2DSPfSIW1uRgtu6HlHEHAPmx7h0ljgskU34EzJx3mi8WF+YgkUtbMtWafO1FkwPXBfTuFqLkBxqFT11Cm48ER6VlqLML9Ear0yvqQQOfV+r3tBr1BdlqOpqLCsQKWD4l/JQ91D7invTzXV2wkVe8Tqux/Fi+ejeiRCjzsguPlwtX3D9lN57W5msy6Rg11Ta1OqdQX2lxY/O7mXkd0eQHZap31GzA7EnLpIwxmOlYrECFxDGJqHugvlhbEESglYsNNQ6PqNaA0Y8IqnAACIQJKMP5kJH8mPWNltg0ho7/XTNwXMpTAsIdJJH/U0R+/LT6unWy8i/hGT5BHTI0dyeRKBNXljLuACA/EtcjEl9S0uVH4qqwRs81ugFrEgDRi4UcQAAIAAF5EFCG8yEj+bHon/UsjZAk6V9ZKrFpnryYlEdHSYSVKSI/aFStk8bTLQeDOuTexF/o45JKKOMOAPJDUp2KZQzIDxaQtT4UjywGjgABIAAE5ElAGc6HjOQH2k2uDf7XnbFz6BFlp1NNflT1/u7uWAVJks9+fPzQ2yPNxlXGHQDkhzR7V9AqkB+RrQOjH5FM4AgQAAIpREAZzodM5cfYQlu5/R9XU2b/wZSSHy9fv9A37Z1ajJyLKa3bizLuACA/pNWrcGtAfuA8qFcgPyKZwBEgAARSiIAynA+Zyo9VcrXc/o+u+Xsp0uFSSn4Mzt4ut/+D9LdWVMYdAOSHlO8hID8iWwfkRyQTOAIEgEAKEVCG8yFT+UGSpM1tqOn/JEU6XErJj2uD/3VrRC/9llXGHQDkh5R7GsiPyNYB+RHJBI4AASCQQgSU4XzIV34s+mf1tj3LrxZToc+ljvx4vbryVfNvHjxplX6zKuMOAPJDyj0N5Edk64D8iGQCR4AAEEghAspwPuQrP0iSrOz+qO3h5VToc6kjPx4stH3Z/BvJbjWIdjZl3AFAfqBtKrU0yI/IFgH5EckEjgABIJBCBEqb9nqWhmd9Lvn+epaGS5v2yrfN+jy3KtoPydd+8Zanjvy4NVJ2bfC/xJPZwJwKuAPM+lxyvwlsYAdIwqVBfkRCBvkRyQSOAAEgkEIEKtoPu+ab5as9Zn0u13xzRfth+bbZq9f+L5v3S3+JpPgJp4z8WC23/8Pg48b4iSWhBAXcARRwE0hCQ2/gJUB+RMIH+RHJBI4AASCQQgTqhkvujH0ra/lxZ+zbm8Mlsm6zuuGSOplXQQz/FJEf088G9U17X75+IYbJhudRwB1g1udSwE1gw3vC+hkgZ/lRq1Vr1KHfo2ZPwiA5yuliNeryzoSVCwUBASAABGRB4OFi77m2Q7KWH+faDz1c7JUFbT4jpxb7v2ze/+q1ny+DMo6niPy4O1ZR1ft/5NJkCrgDzPpcCrgJyKXDrMFOGcuPNdQWTgECQAAIAAExBOpHyq4PfiZTBVLr/Kx+pExMNSWep6L9UJ/npsSNjNO8FJEfFe2HHNPX4mSVzNNlfQeY9bkUcxNIZqMn81ogP5JJG64FBIAAEJANgat9RbVO+SmQK31F3/VoZUNZ0NDWyUpj94eCWWT/ZirIjycvJktsmucvF+TVWjK9A8z6XNcHP7vaVyQv2qlmLciPVGtxqC8QAAJAQCyB+pGyc+2H7ox965pvlvJaWJ6lYdd8852xb8+1Hfp+4Li+aW/NwPGxhbZVclVsVSWZz/fyid62Z2F5SpLWJcaoVJAfbQ8vX+r698TwSm4pcrkDBNe5om8Cyhj8TG5TJ/tqID+STRyuBwSAABCQEYGHi703h0sq2g+XNu0tsWmk+VvatLei/XDdcElgvsfqV/cOBO38ti3XPvFX2T11RrtHdf9/3h2rQI8oLJ0K8uNvjv9onTTKtOFkcQcosWnwm4BMYaeQ2dKWHyt+L/Oj8Ol3Yjqdf8phsVpCv50eICIGGuQBAkAg1QhcHzzBkklN7gsyhTAy31Ru/0e5D+MIwFe8/Fh+9azEppl/Pi4AQcpvPfaNKnv8TcrwFWybtOVHq45gfnR2BbeDuKp5KrMZHjnGxC32Je7ykAsIAAEgIAcCfZ6bqPz4m+M//CtLcjCcw8afVldOt/yP0SctHO8p4pDi5UfPzA057iDpWRqxuQ3nO/65xKZ55p9VRF+DSkiIAMgPCTVGVFNAfkRFBBmAABAAAks/ztHy48vm/cuvFmXNxPLgTzUDx2VdBQHjFS8/5BU+N/1s8M7YuXPth+hPkExnrQh0OXhLCgRAfkihFcTaAPJDLCnIBwSAQGoTuNB5pMSmaXB99TfHb6/0/V7WMOaej+lte+QuoviaQNny49VPP5Y17Xv0bICv+pI6vrr6U83AH2jhEUy0TlZKykgwRhkEQH7IqR1BfsiptcBWIAAENo5A42h50G36ccV3vuOfa52fbZwtCbjypa6C9offJaAg6RWhbPkxPHe33P4PpHxWYPtp9TVLgTxdfiS9XgMWyZ4AyA85NSHIDzm11jrb6qzIVmvUak25Y50vBMUDATkSePXTj7TZi/7ZP9lzbG4DfUR2Ccf0dTnOHxDDWdny48bQF7fktgNm16MaegDkz/f/RUwjQh4gECsBkB+xEtvI/CA/NpK+tK7t0L8VXIYAlmSQVsOANdIkMP98/Kt7BxzT16VpXlSrflx5Xtq079Fif9ScssugYPmxuvrT1/f+r7GFNhk1imP6WolN0/7wu6reYyU2zb2Jv8jIeDBVRgRAfsiosUiQH3JqrXW1ddSgDi2CBvJjXUFD4cohMOntLm3a9+CJXNdQ/MGpqxvRK6c9wjVRsPyYeNr1ZfNvXq+uhOsq9f/d07UlNk33dC1Jkq9++rGy5+jc8zGpGw32yZMAyA85tRvIDzm11nra6q4Iqw8C5Md6goaylUVgeM5W1pwl0zGE8af3v7p34NVrpW34pGD50Th65vrgCbl8hnpnzCU2TdejGtrgl6+X6bSSEo99o42jZy50Hilr2mfoyKMjzSSVMHTklTXtu9B5pHH0zGPfqJL4B+sC8kNObQryQ06ttY62eow59AYwID/WETQUrTwCnVNXv7739/LcRm31m9b/2eepU1ijKFh+nG39J+djiyzaq89zq8S25/4jkyysjcfIu+7zZ1qyG1xfD81ZZ5acsz6XZH9nlpxDc9YG19dnWrLvus/HU2sJngvyQ4KNwmsSyA9eNKn0hrdVn0WrDxj9kFvTS//Bm+KfujWOnvmm9X/6Xj6RW98hm8f/bOz+l2QDUAAAIABJREFUUHZmCxusVPkx63Ppm/a+fP1CuPpSeDd1tMcPQyer+z5+uNgjWcnBadjDxZ6rfUU/DH0uhd6SKBs2Tn54HKaL2nyNeqsq5EmptqmzC/TGVg8ztDxlRHb5Fv2Ud95pqdQX5qgzt4R9tC2Z6pxCfaXFOc/HzWvKC2cmCNXHFsYGvjPo4936dObULIPQEJnf020yHMtX72YqvXW3Ov+YwdSN1JouOSKxRvnh9zhqDMUF2eqMNNrStAx1dkGx4abTK7aqdnoLetXnyGJLK17nTYM2T63eFm5IIi1Tk689bbRPiSoaqZQW4x7qIZlho1UBVuVYD0ERRbS7aptanactr7SLgosWRaUT2Fh4vQLNgRFTbVVrsgtPGS1DXrYV6GsKdXn+bpoz3ZgciexKD3oqpCVCQC4P3pT91I0kV2udn13oyPtxxSeRjiHSjEX/bIlNI8+hG94qKlV+3Bv/b1lsOON8bEmdcY+rfUWc/r0sDlb3faykMZCNkB9ep/GoWsCHUu3WGocCnmus8sPrNB7LCnurHD4ZQaRlHTM6ub5xvDX5zAmqYswP5r1tUm/YTyBVyTHyOX0eqz6XcdCZS9Ep1bZcfbOg90nGPvU8OhCCUG3NPWXxRJ8ax8gPosAcNNTbWZ5Nazy6JkxCtfW9ckeUOqGVUofEmy96DzGNI60SLT+hUmtr3MgJUZKJbqxwvVY8llPZgv2TSMvRW7j7EBpwxSDmS4H8iNLGG/H2D0Ofy+7BmyKfupEk+dPq68qeo39z/FZG04KDffa73t/dHavYiP67XtdUqvz48/1/Dc7hXi9wiSjX+diit+1pe3g5EYVJuozHvtEzLdmyG/dAddHDxZ4zLdmKmQeSdPkxbswXclhpbyqzsNZNeky59IFoQSb+IYO4kgliSz7mvAY/Mn5LMaIjCmujec1cZ+XXcJ7ltRwXkltMFQmV+nO7wJABMlBAEPxSJ2SaeCAEQWQUcjDBbiaI/HhL7yBJ95V8YU86VC9VriEoJrHSmBdopbQNftJn12UgSPiSqlxjUIHMW4rF5CdUuZViFMi6NFaoXuIGLgi6agwkkiRBfmA4ZPfirvu8fB+8KeypW7DzvHy9/Of7/1Iz8IdV+WwJR5Lk4Oztcvs/ystm4U+rIuVHcJzq+csF4bpv7LtB7WGf+OvGmpGcqzeOnmlwfY1683JMN4x+3Th6JjnE1vsqyZUf48ZcxMUPOZZbMgO7p6mpv9j4QKau1UwH/BDC8gMvmRpJuOn00KMcPo/zph57Ts/h4fktHyPG5Zk4lQSrPfxWVLPgMTahrH77iUzEhU7LOmawj9MRT37vuN2AjwVlnuBVIKinLiw//K069KqIAfxJDiZodRH5QRQab8ZSvmDJaKXUZ83Gw0gr8BtLvZOhd6w49KK0R7CgTH03WqPI9Ho1Vmz1oqqmcwjI0FhHBSMrCkeSS0DuD94U9tSNbvwXL5+ea3v/1kgpfUT6iZWfXn5178Dokxbpmyps4Sq52jppbJm4dGfs2xKb5s7YuZaJS62TRmUoq/uPTH91/FaYwMa+OzLfpLftaXJf2Fgzknb1C51HhuascpQcqM1Dc9YLnUeSBm1dL5RM+eFGluuh3EHVAZ05Mtjd5+YJUOGf+4E/L8/8D5ObM5TI59AfYFxb1WETO8gFm8WRb+KdKEK3iN9yjHGQOWeMuCsRwaXK0ndyixp3bSGiFjJ1ndy+J+qpC8mPeXMhU9EA6t355TUON616SNLvdTtqIiYSZOjstGajaxlKoPKDqXVajs5odXrQkj1Oy0Ute7gngxow4fzBKkUXrFLnnzaj5fo9TjM7ckm1dRs9AKNS/0u5eQgxJFJzRpvVs46NRdeLSMsqKDd1u7005xVKghpPsIOyeEbSAghBfnD2JAkfpB68jcr7wVuDSzlP3dCe4l2ePt1ysHXSiB6UeLre9WXNwB8kbqQY8+pdX7KWOm1wfSXmRMnmaX/43cBsw4tXi1W9v2udrJSsnZT2aNqbOtqDJMmypn0SX+cKlRl86ZklZ1nTPsn2q5gMS5788DdoUZdYddgoEArj70bX9gn6brzyw1GGuO77DALFkuPoXHZVsZXl5dM7SVNXjB49P29C5oukczxZx2SAiorA4f3x248jM9h5aoF56rzBV37LMYx0VpnA/AuvoywLzZ3OO/YSKT9UuRVO3ip52TFUfP40VqlgU2fo7NwyjfQ2c4268Ou6iFAuzhGqQKusa2MF6yUYh8auGm/7kiTID97PkUTfUMCDNyU9dWP1kpml4S+b9w8+bmQdl+zLmWdOvW3P8qtFyVoo0rBnPz4ubfo1rUBKm3797MfHIs+VZrbG0TN0dW6Pnp5ZGialF9r34Ild37TX+uAbaTJcJ6sMHXl8Pr28jhs68tYJUZKLTZr8cBv2BV2wwF+V1kI//eWpsbsCWVyUOolHfkTVAHj5jlOIlx8RYeW+iFyURwPQ5WGz1QPTIei3ggnha7EykyIqgnnqfO7pqAGpAyEQyhU2gBVxxLd4F1t+pB/nDRILlYxHxBE8PLFKUQ2dHZrUEbYP/88SV9QomvBEHX+rDmlyLpUYuMD6NhZVr/TiZl6xFqwjJqQJfqUE8gPvE9J/pYAHb0p66hbZYdwLHaVN+9wLHZFvSfPIhY689odV0rQtJqtujehpf73e9WVM50owc3DXcLpGJTZNTf8nkrLzwRN7adOvU017kCRZYtPIS2bwWVti00iqR63ZmGTJD8xhIrIuCg1RhCqDzwXnkx8xCQaqZCzCqjC0hBPND/Pd+RzxYG5sKjBHjTD7I0da6EvSCWzx3/QyjmAlzFPnkR+OMsTZFiHzqMv7LOjIFOelSZIlP8QEp5G4hgwvAEXXOJDAKhUtPoo6o7k4IGHDfzTlTrzAiFd2HTK+wz0Gtd6NRRBEhNaNsJMkRw30ZuZCMgz7NPHIco7S4dCGEVDGgzfFPHXj7Ad9nrovm/fLZVWZjqkrFxTxEJQeAFHA0AdJkg+9Paj2+PP9f/1x5Tlnf9uQgymrPUB+bEh/E75okuSHt7Yw7C0SBCHKcyVJbGYFj/zANIC6QpSq0SKmFDez+GAaQKjAqEKlFXN6xazk665AnM+DHMFpmKfOLT/cBg1TPdUJO6t6fC+xZ/8azgA2XH6IcaZJVpgQkXuFPd2GWtGpEtnchVDpWvlsDB/HnG9CqI1CZ3hMhxkm3DF1691YBMEte8J1Cv/HIPOiwAiA/AjDk/B/ZTx4U8xTN76ecm/iL+X2f/AuT/NlkM7xF6+8JTbN9LNBkiSfLk8tvHgoHdtitaRuuKTEprk1UhbriRLM/+LVIi0/LnQe8a8sScfIwBDfr2+PnpaOScm0RBk34VmfSzH34STJD8fnyPNnLseasxd6riDr7nIGX/ktqJbgddew0jEHPdIZjRpSFSwMG3Xh8sUxLcEtFTCzqI3uGrDaREoHzFPnLNNrRnWeOJc3YAbmf+dGzMqnNjhBViET4/SHOBkPMq4/tl9huPZYpYiI8ahwNuS/HR3+iBCQSMZw0n6CsSGyxUmSXPfGIjiRhu1j/mNymrc/g/xgiMkjpYxvPsV87Ql0GvPQ/3eu7f3lV88E8kjkre8HPjV05F3q+vcSm2b86f0NsWp1dfXly5fPnz9fXFycn5+fmZmZnJx88ODB0NBQf39/b29vd3d3V1dXZ2dne3t7W1ub3W6/d+9eU1PT3bt379y5Y7FYbt++/UNDld7262s3v7tx40Ztbe21a9dqamqqq6uvXr1aVVV1OfBTVVV19erV6urqmpqaa9eu1dbW3rhxw2w219XV1dfX375922Kx3Llz5+7du01NTffu3bPb7W1tbe3t7Z2dnV1dXd3d3b29vf39/UNDQw8ePJicnJyZmZmfn19cXHz+/PnLly9XV1cTBfBMS3aJTXO+459fSGlyjnuho6xpX8pqDxj9SFT3TmA5yZEf+DiG6EfyZCvq8XI95cWmkmcbp8SQwTw8DocYi8PhmyqAaRjOSdX244zLS4isMlZfDocV89Q55QcrekcUkAA0bIsVla4zkiQmP8QLG9T1p/crREvHKqXSccScobmpNGqJqEZHbeCUH+veWJzimV0v9uYeID84CMnzEMgPubTb6upP1f3/+Zeuglevo8zU2sAaueabawb+QD9lL7Fp5p+LGPkXYfHKysrS0tLjx48fPXo0Pj7ucrkGBwd7e3vv37/f2tra1NRksVhu3bp148aN77///sqVK5UJ+vmzSZ+gktZezJUrV77//vsbN27cunXLYrE0NTW1trbev3+/t7d3cHDQ5XKNj48/evTo8ePHS0tLKyucy2tSiL/r0Va0H5LUjh+gPUB+iPj0JztLcuQH5vFnXxJ9o8TUBZf8wPx1xN0Xn+QQBtgGINzxS+gEEu4t0rEqizcHycnhWGOeOqf8wIAUR46f8Pcv1KcnuBzfqBm4y3ZfQmKruGyOXil2waglHJTY2amd6RmuXPJjgxor0lB8b0GuVgicA6MfHOgkfQjkh6SbBzdu5aeXf3P8tqr32E+rr/F3JPHq5evlyu6PUO1RYtPEtArW8vLywsLCo0ePXC5Xb29vW1ub1Wo1m83V1dVrd95T78zq6mqz2Wy1Wtva2np7e10u16NHjxYWFprH/rL0Y/Rl+5PWmSa93WVN+26N6JN2RWleSBk3YQi+irV3Ye4dl//HU2BUNwvzthkXM4YUh/zAp6dzqQt0pgTndh+x7lHNZTCHYx3dU8eAcAk2HtL4kALnosOo08+pT7iLjmpz1AwR5aKWcFCKyA/yIxIJHEkqAWV886VC8FWwW/y44jvf8c+1zs+S2ktEX+z1T6+u9hXRCqQ0Yh+AV69ePXv2bHZ21u12Dw4O3r9/v6mpqb6+/tq1a5cvX06sUrhy5UpNTc0PP/xQV1fX2Nh49+7de/futbe3d3V19fT0BEOeBgcHnU7n8PCwy+UaHR0dGxsbHx+fmJh4+PDho0ePpqenPR7P48eP5+bmnjx58vTpU6/X++zZM5/P9/z58+XAz/Pnz30+37Nnz7xe79OnT588eTI3N/f48WOPxzM9Pf3o0aOHDx9OTEyMj4+PjY2Njo66XK7h4WGn0zk4OBgMA+vp6enq6mpvb793797du3cbGxvr6up++OGHmpqaBA7jBNlevnz52rVr9fX1TU1N9+/fHxwcdLvds7Ozz549e/Xqleh2XmPGFy+f0mu4TTzt+rJ5f2BJsYRFl63RrI0+TRk3YZAfsfYjuckPEt0AJHLRKnQlJb7oLKzKXOoi6jEOxzq6pw7yg6tvwugHFxU4ljwCyvjmSx35QZLksx8f/6n1/7a5DcnrJbFc6afV1z84TwYVyLetuR6PZ2RkpKOjo7Gx0WQyxSMwampqbt682djYaLPZWlpaOjo6HA4HPWtiYmJienr68ePHCwsLS0tLy8vLfkX8LC8vLy0tLSwsPH78eHp6emJigp7B4nA4Ojo6WlpabDZbY2PjzZs3a2pq4iFsMpkaGxs7OjpGRkY8Hs/y8nIsLR89b/d0bWnTvrGFtklv95fN+wPjHqmuPWIOvpoozyXe/LTFha5+e+MT4o03M3apM3ap03fszCmqrJv0BTIMl+4nfraDOp6xa2f6ux98emMidGKf+dO8fek73s7Y9XbGrkNF9PFZ3/0bugM7dgaK2vN+WUs/eiHhtGLuw9IOvopt9COmh/1RPsPYzPJj2LJVfmsxM4+ea7uPQNGY/IhhwEfQrhjlB//GERxXQYcUOAc3ombgKJSa1S234KvkNRYHMKzbQPAVByF5HgL5Icd2m38+/tW9A47p65Iy3ufzTU9PO53OtrbWC1ZtiU3z9e3cmLzhK1eu1NbW3r59u7m5+f79+wMDA2NjY9PT00+fPlWMnFhvTbS8vPz06dPp6emxsbGBgYH79+83Nzffvn27trZ2DWMpV69era+vb2trczqd09PTPl+0bdEEe+R3vb8rsWn0TXu/bP4NaA8aVUw34Y5v3tn+qzff0F4KCYyAzLjxCbH/YktIG8zWfXFwU96V+9RLSn4cvRGUIj7XiOnI9p1Ft32u2YnzRR+WNj8KSZER05E39pzsCGRrLknf/vtLI8FTBkv3b37fGFYswtoDRj/oBhWZ8JoLkIf9nPFOnCV1omvXcqkLbKY1x1xtzlJFHcTW1UWXY8JmhnBs9xEqHZttzzHBXZQR7EzR5Qc2W0Z4/z688BinnnMuoYuXGHqFzerGhVwwR/RKsctFhRDHGBE7e/S5HxvUWJGGwtwPDiZKOBTTNx/29dNStJ3IuYB9M1UVEZt++XboSduOQ0cvdIWenPVd3EP8Ij3wcC5jx8538kqqQl9v3pbqkvff3Rl46+2MXF34ePj7Ersi/0HFPHUT36WC2ziMzDcFT5l/MRFc61Z8CXHmfPbs2dTU1MDAgN1ur6urq6qqYimNcz/8nzP1+ayDlZWVNTU1dXV1d+7caWtr6+npGRkZmZycnJubW1paWm/XHMpfWlqam5ubnJwcGRnp6elpa2u7c+dOXV2d+GGTqqqquro6u90+MDAwNTX17JnYpdhevHxKR+WV2DRDc3fj7IGKOT2Wm7C1bM+mooul+zcXVM8zAyCY/PC5Jq8fIT44T91jcfkx67OWqdkjJ4F7bNVHxJ6zw65ZX8vZg0SRlS6Z9ZI+zp1QzH04OaMf5NoW3sV3C+GSH9g6syK2jIjhk4RtAMKsbYUt9Svk+2Lb/3FNuY7BlnDW6J46Zp7IvSYCpWN7+XEKOdTpJ3i2JgwbyvzHlgjjlGHRK8WUFkyhlgg1AX1etOArcmMai7aPScDoB8NCSalYvvnQr5z+au2m7b96891vrIhCqCoKfYdROSe7PqWfnFHy45OqcM77xg/f3PHFtVnqadzRgot1ISniu2/8cBNeIHpFobRivvZi6lrDc7YSm+bRYv/Dxd7TLf/D8uBPMZ0ea+YnT56MjIzY7Xaz2SxynsZ31y7W19fb7fa+vj632z0/Pw8CQMoE5ufn3W53X1+f3W6vr68XGSx3+fJls9lst9tHRkaePHnC169Y267rm/YOzd3hy5xSx2O4CbcUbd989EZAJBRcZ8KiWPJj1nqUOFjaxyE/eOTEo/N5xJGgnrmte/PdM+G7+uylgl+8bwwPkoRv4Ly3YsXch5MkP3AhIXLbQdJ+golyIriXLsW82/RTIlZtFf2BwzYACe/sgW3NET7IWSSWU+xOi5wlMQdFeOqY/8ozLZ4pkE5hqMVsOyhSUGHhc0RhrZe+Ip0QUSk6bzCRePmxQY3FqhcsvBsJRCFHYvjmQwcf5i99tHnP2YtH6SH74CM0VH7M+vqrPySCMQC4/HDN9p7c9atADABaps8121AQ+tZkHY/2UjFfe7H2qs6pavqJ8sXO/FhPF87//PnziYmJrq6uhoaGqHrju++ozTFsNltXV9fIyMjMzAyMZkhZaYi0bWlpaWZmZmRkpKury2az3bhx47vvvosc0UKPXL58uaGhoaura2Ji4vlzZmP1YOQV3V3/5vhtx9QVkoS5H6T4m/BtXSjsquObd0LjG4F7I0t+dHzzzht/pJ7vsEc/qPv2gQsPWPrh/o1P0nf88VoomstrPXvo797VllebT+bt2fMFzP0QvkvG9S4WJUXwxywhF8H23yB45Ae+YZyq0JzA9e4wA4LxV1iUDqczzVQAH4jILEuANBLjqWN5CFGDA+S8uRARejwjG6jTTxBElmGUqStfyl2RhUTdcRuDGSxK1aCWcJfJsifq6Ae5QY3FspO1YBrM/YjgI9cD4r/50EdfI1feD+iEqqLNGWW99JcZNvox63PRX4ps+cEOCQiVQBX7IRbTjF5UIJ2y8uP+IxPtz5XYNHEuq7qysjI7OzswMGCz2YSjcb7//vvGxsa2traBgYGJiYmFhQWR7ixkUwCBhYWFiYmJgYGBtra2xsbG77//HpUfrHRNTQ0lSvtaS2x7Smx7KnuOdj2q8b3kHSSR6500DrtF34SrijZv+sgcGPToPbkLiX2l77Szvv4+89F3f3Hg7GDgporeaSeunf239B2fVIUnjbQYf0sFyv5yc0ZeRVh7BMRMoIQ9uQd/tuPfmPkhArdf+i3F3IeTNPpBkm7DPsQRVeWaou2Ih01Zpk7lCr4iSRKbpEGoDhtF7yoStSNj0zwosYE6qVwL8uIlYqcTRKauNd59rER56riWUBWYOUYcMEP99uPpSNvw6QrU6aeyp5+wR6kPbgmxz8DZNKIqhRmMWpIg+UFuUGNh9Vrb6Ac6MYldHLyWCAHR33y0xnDN+u5fOEQEoqQCIViBMKrANxBLfgTClG3UiSz5MWkueOO9cio2AP19VFW0M73IxkQUYO+iOSPSivnai6VXrN4ePY1qjxKbpnfGHEsJVF6v1/vgwYO2tjaz2cxyHNGXJpPJarX29PRMTk76fD4F+NBQhQQS8Pl8k5OTPT09VquVM2Trz6ayitpP/lplMJvNbW1tDx488Hqjff/H2pVlm1/kTZi6bTJTPqxlaiK3MjC/PPCgJ7zyVU5BSTk9pzww+hFa+Wr/BwVl5vD0dPQWOt9yo+TALw8Fb8j9t3UZu7ShqecjtqJ338y5QM0JEfWrmPtw0uQHicUyEYRqt87O/7nw3CzORDziQJJHfpB++wnUeybS8gxO/pLRz44/ivuMbwByzOJt0NJGcW9HiJZOkiQeekSo1MU3Paws3C95LBPpqeNjDkTmxxZ+Hl7752pk5INQcc0ODxiJOv1BDJm6Zv6CV9zGw1jBfINFIiuFgEItSZT82LDGQuolWn6Q9mK6IxKRC0PjRcIrCRAQ+c2Hff1QT9TeCQ56UHMcmTAqRH7Mt1T/8Z2fv1caXE0FlR8jLaV5O9OLrGGZ8eB8gTpj19t/98bb75+NZaAfNUkxX3sx9YiH3p4fnCfLmvbRIuT64AkxJSwsLAwODjY2NkbOF0clx61bt9rb20dHR588eZJAVxWKUjyBJ0+ejI6Otre337p1C+1RrHRVVVVjY+Pg4ODCwoKYfqvUPOJuwtSznrDGCCzv8eYmOlQVGf3AdQI6+iEkIcJT0ucvFRDYZI/buje3Mw+Y8MIjClTMfTh58oM9AEIQhEqtvWhxehgR4Pd6nFajLieNca6YFJ/8IEmfXZfB5KNSqq25J4yWIY8XW7/O7/V6PUN2c2V5cUF25hbOzfVYHz1kA5C39OWf0/4033YfrNNJd2UufU7QxLR9heU1DrfXy1SbJEmf1+t1O6wmwylt/u6tKp6hHtGeukOPA1Fty9VTF2Wu6fe6HTXl+btx64Si11Cnn6adln3C5Jhnig3U3+/tNmpZJefwjkqJrhTNFrUkcfKD3KjGouslXn7gS8nxs0WLhvQGEhD3zYd961Bhx+FVGmepryt6KRVk5atDR76opOeUB0Y/Qitf7cn7/clqdvAxVf7kcNUX7/1dbiXX87mI7zlUeyhpwcc19AT/ylLH1BVDx/8usWlOtxzkC6b3+Xxut9tut5v4N9+4fv16U1PTwMDA9PS04l1kqGDSCExPTw8MDDQ1NV2/fp2lQOiXJpPJbre73e441/Zdwydow08RdROmZoenY9t99J58N/wYKBHyY1ORzTX7oDybKKAX6p31uToq9oSmkUS7CSvpPpxM+UGS40a2M077sRwJVe4lA/KUl19+kLGWHLqYmB0esA1AaCO5J2dzfr789hMRAzl0ObwJ7srG4KmPm/K38JbO/YZKLRgehjr9OnOrDquVaqtaow7+bsUVDXUtVa5xnBMOdTCGSoXKQC1JpPwgqZE0rFrcoNhH424shg22cgDv3A+S9Lfq0CE/1QGdZTwsAn0ep9WgPZuAuUaMXZCKj4Cobz7si8datof4ObUpVeh3xy+IN0KrWiGjH9gp7OArlnhgXvJNScdLY/KHjyvmqVs8jTlJDYboPEsjdCF+v39qasrhcNTV1dF+Hpq4cuVKY2NjV1fX+Pj44uJi0vxRuFDKElhcXBwfH+/q6mpsbOTbh6Surs7hcExNTfl5oi3oHq6MhJib8EhlDnGoPLxIYPB5UH/1h5t2BVapilV+TA5b+5B1e/uuhPcDodbU2pR9MbzyVSAgFtM84Vtu5E0Y5Mfae6N/yCBOgahyK5x+bBsEbiePMWXczH7iznYT2a/FyA/W3JJgEaKmzjOW+R2nszkHdNgGMa+5Kxubpz5vKWYNQTDlR6S25BuGwv4rYzmaYjv93obIALmIYgmC2JIvoD0kJj9IktygxgqRFis/oisl8bvroI0M6fUhIOabD/umoVZ+xDaiQiKSEyE/Nh+ldsWK8ZdTfiz6PZPenn7Prcc+EYtRrA/eDSn1yZMn/f39VquVb7mqhoaGnp6emZmZlHWCoeISITAzM9PT09PQ0ICqYjp9+fJlq9Xa398vsJ7vhnzEEntRETdhShWEJp2j98aWou2B2NeY5UfLybyD6YGtzaldz/cjWxDOztad/fAdait0KiY259OG0PQSMfdkzvtwYlklp7Tkjn4E6+R1lL/H8YiccV23ZJd3hiYVIGsWcXvkOCav46I2S9RT/7TMPJ15VNjhDplrymNMC6REPXHHDSP942a9cK3DF1Ftyyo8zT0vJjb5QVngtZ/Ox+Z2hK+C/E/LPmV2Y1FqLNuDL3H5ERjN8A9FBFkh5VLRdUeNUefhxF4p3JJoaxiQ0bcdZNd3gxpLfPBV0GC3+Sh/24L8YLfqRr4W8c2HiQEqFFgXWNKR+RakxkMCi9DHKj/6+3pbwsuwuGa9LfR+IGK+6tA8wa+9p8uPbg6futzz/55re5+eDlFi0yz6xU1s28h2SMC1nz59OjAwwOfJ1dbWBqf8Pnv2TCKuJ5gBBGgCz549Cy6BUFtbS8sPNNHQ0DAwMPD06dMEfFQkVkSsN2H01iepNMiPeHuWf8puPK3N12TSwwKqbersgmLDTad3hSkcWf9KjPwInuj3dJtGjSKlAAAgAElEQVQMxwuzNWpU5ai2qdWafO0pg6nViUyCYK7Fl2JNmicEt/vgKyR0fN5pqSzX5qnVGXS9CYJIy9RQdS+vNDvoEBqugmL31AOlrHidVqO+IBu9aFpGgHaNA5l6w3VJ5hjq9BNIXJDf04oXTgVi5WsvmhxTYtSdpIKvmNpSqQ1oLPGjHyFTvaNmw7F8NTVfKPiTlqnJLjxuMAt2JLye8GrdCcT4zVdVtDk06Rz92gsHBsQsP25/8/7+nek7gnFcb+9BtiDENA96Lc40/bV3d6wCFR4lNk1lz9F1h7ihF1hcXHQ6nY2NjaivFkxfvnzZYrH09vbCQAft5kJC+gRmZmZ6e3stFgvn8F1jY6PT6VxcXNzQj91aLv5dj/ZP9hxDR97fHL+92ldU69TVu75se3g5xptwbPdGzhvmOh2k78NroSOlczZi9ENK9QdbRBPgkx+iC4CMQCBVCSjjmw/92mscPYMqkCt9v59ZGlZe8y4tLQ0PD1ut1kjVcfXqVZvNNjQ0BNtxSN/VBgsFCCwsLAwNDdlstqtXr0b2c6vVOjw8vLS0JJdP9+DjRvTWVGLTlDbte/RsQBk3YZj7IZd+CHYmkADIjwTChKJSi4AyvvlQ+UGS5K0RPf013zh65kzLwQsdea2TRmVsdjY3N9fW1hbpjX3//fctLS2jo6MQXiXg0cJbciTw7Nmz0dHRlpYWzi0O29ra5ubmpH/j/nHlOX1fCiYGZhtIMoZdz9dp1CJRxbLuw9JvET4LYfSDjwwcZxEA+cECAi+BgFgCipQfJEn+4NSV2DS1Th1Jkj+tvn7wxH598MSXzfuren/X77n16vWyWEBSyjczM3Pv3j2W8KiqqmptbR0fH3/x4oUcPUuwGQiIJ/DixYvx8fHW1tbILWvu3bs3MzMjpc8rY4t3edr64Juv7/09Kj/ujlUEcyjjJgyjH0x7QyplCID8SJmmhoommoAyvvkin7qtrv5k6i9+8KQVBfbjyvOemRvG7g+/av7NjaEvxp92rpKraAbJpicnJ+/cucMSHteuXXM4HLAnoHjnFXIqhsCTJ08cDse1a9dYH4o7d+5MTk5K5oO8Ov6009T/SYltz7m299sffrf041xQgVzt+5g2Uhk3YZAfdINCInUIgPxInbaGmiaYgDK++SLlhzAm7/L0vfH/Ptf2/tnWf7ozdu7JC+n4K2zDx8bGbt++zfKx6urqBgcHl5aWFONNQkWAwBoILC0tDQ4ORm5rc/v27bGxMfZnKYmvX75e7nr0vaEjr8Smqer9nWv+Hv2ko2bgDxc7P0AHYJVxEwb5kcT+BZeSCgGQH1JpCbBDdgSU8c0Xq/ygm+nRYn+968vTLQf/+/7/0zl19cWr0LrqdIYNTExPT0cKD6vV+uDBgzU4anAKEFAwgQcPHkQuw3D79u3p6ekkf4SfLk81jpZ/1fybL5v3N7i+mn8xwTLg0WL/M/8selAZN2GQH2ibQjpFCID8SJGGhmomnoAyvvnWLD+CQF//9Gp4zlbT/0lZc1Z1/386H1tWfnqZeNaiS3zx4kVnZydrxKOxsXFsbEzBHiRUDQjESWBsbCxyBerOzs4XL16I/vCtOePqg4W2q31FJbY9Fe3/q3Oq+uVrsRdVxk0Y5Meauw6cKF8CID/k23Zg+QYTUMY3X5zyg24D/8pS16PvL3X9+9f3/r5uRD/p7SGTPjnE5XKxItrr6+tHR0fj9MzgdCCQIgRGR0fr6+tR9X7t2jWXy0V/zBObePn6RedUdUX7/yqx7bnS9/vAfLPYZpQp4yYM8iOx/QpKkwUBkB+yaCYwUooElPHNlyj5QbfQ0+WpJveFb9veO9f2fvP4Re9yMkI45ubm7t69i7pNdXV1w8PDKeI1QjWBQAIJDA8Ps+aE3L17N7Hr8y4sTzW4vvrq3oGv7v194+iZp8uP6BtITAll3IRBfsTU6JBZGQRAfiijHaEWG0BAGd98CZcf4ZZYnfQ6bg6f+ure3//1/2fv3b+buNJ0Yf0Ttn+B9Fnky8kZfwtymMEszhwv/DUMzjA0TMMMMw046TbD0PGczhh3TjrqDrTTnbg93cZOiB0TMHanHWyQLYONb/gmX4R8kWRsyTdJvmD5guUL2EgEkpDAt0ql2toqVcklVZVcJb1eWrBV2vXudz+79t7PU/t29xd356ufPhPrjLN79+7hwuP69esDAwMCsjEwBQhEIQIDAwPXr1/Ha9a9e/eo2h3i/89fPB9f0alM7+Z07ruiT+2fu/kNv428r+hThTp5Y2PtXNGnhoipxG6Dcz8kViDSdeduwb49e6hPgUG6joJngIDUEAD5waVEnn3/9chia6VZmaf9hxvDv7Uud333/BmXGznGGR8fxxlSW1vb/Px8FJJFyDIgIDgC8/PzbW1teP0aHx/nWDFp0b5+5uqbUV3qS8npTK4aen/qgV6QyZl5XfvvO0c3VjnwT/2+czSvaz8NMZl+Bfkh04IDtwEBQEA2CETGi7ewvXV7/M0D/WzFn42n83WHm22fzD8a4V/SFosFcaPKykqz2Sw4AwODgECUI2A2mysrK1FFs1gs7DX3eYPlT98//w6PsPLV9G1r7sfaH32q+7Fm4uLaUyHPNyw2nBxb0vAXABtrYWxJU2w4iYMm3zDID/mWHXgOCAAC8kAgAl68bchbt0XXhGbi4mc9/1Kk/2n39Je0nTS5l/3IyAiiRA0NDQ6HI8ppImQfEBAJAYfD0dDQgKrbyAjzu4OOycs5nfssS50vXrz4/vl3lqXOa4MZOZ37Sgz/NjB/69vvnnKv3Rxjto7nN9subKx44J968/iF1vF8jlmWeDSQHxIvIHAPEAAEZI9ABLx428C3bs+ffz/1QF87mvWx9kflgxmm+/VBzQK3Wq2IDDU1NT148EAk4gVmAQFA4OnTpw8ePMA3xbJarbQWfNjRTJ5K/mfDqR572cXeYzmd+24OZ04/7KfFFPDroms8X3dkZm2QvwbYKAsza4P5uiOLrhBntQkIpiCmQH4IAiMYAQQAAUCAFYEIePHWbNv4t27ffvfEvHD7+uA7H2t/dGv0w4kHvbTJGy9evGi0nsePOn78+PHNmzdJ+dHW1gZHmAM/BgTCgIDT6URLQW7evPn48WPUOM49Gia1B/nvp7oft09eCnlgE5nlEuiYKqo0KzdKPPBPV23+dcdUEZecyiIOyA9ZFBM4CQgAAjJGQO4v3qT21s359VKPveyKPvWz7n9um/jM4fKcNvDgq5mczn1XB/7z2++/Jh8XvV5Pao/29vYnT56EgXhBEoAAIPD06dMnT560t7eTtU+v15P1ce2po6D7n3H5cefeF+Fs2WvH/qA2/1p2YyAza4OVZmXtWFY4sRI7LZAfYiMM9gEBQAAQeCHrF2+Sfes2/2ikZfzTT3WHiw0ne+zltaNZJLNRmd599v03c3NzaNrV7OwskEJAABAIJwKzs7OoAs7NzX373ZMSwylce+R07vtE+yP0siA8/UTHVFG+7kiz7cLYkkbie2Hdd46OLWmabRfydUciadyDLGiQH+F54CEVQAAQiHYE5PjijXrr9geJF97ESnfNyO9xZnNj6GxLSwvJfnp7e8PJuiAtQAAQIBHo7e0l62BLS4vrm5XxFd2Qo8k4V9U9/WXbxGcNlj/dGP6tffVumJuXRdd463h+seFkXtf+K/pUvN2QTviKPjWva3+x4WTreH7ErPfACxrkB44GhAEBQAAQEBEBubx4k+Nbt6kHehp1KLj97+Xl5VVVVSsrK0AHAQFAIPwIrKysVFVVkQrkwYMHIratYFpuCID8kFuJgb+AACAgZwSk/+JNpm/d6sayafIjt/1Hl2+9r9Vqw8+6IEVAABAgEdBqtaT8CPkgQjm39+A7KwIgP1ihgR8AAUAAEAAE5IJA3Vh2++Sl/rmbEw96lx9P9ejvkKQHThgEHgwIbCACZrOZrIloAbpcmhTwU1QEQH6ICi8YBwQAAUAAENgABG7fvk2Snrm5uQ3kXpA0IBDlCKAdIG7fvr0BDQEkKVUEQH5ItWTAL0AAEAAEAIFQESC1R3l5eZSTP8g+ILDhCKDKGGpthvsiEAGQHxFYqJAlQAAQAASiHAHEeObn5zecfoEDgEDUIjA/P48qY5Q3SpB9HAGQHzgaEAYEAAFAABCIBAQQ4xkaGopa5gcZBwQ2HIGhoSFUGSOhZYE8CIQAyA+BgAQzgAAgAAgAApJBADGezs7ODWdg4AAgELUIdHZ2osoomeYBHNl4BEB+bHwZgAeAACAACAACwiKAGE95eTkceR613BcyvrEI4Aefl5eXC1vHwZqsEQD5IeviA+cBAUAAEAAEGBDA5Ud7e/vGkjBIHRCITgTa29vxmshQUeFStCIA8iNaSx7yDQgAAoBA5CKAk57y8nKbzRad/A9yDQhsFAI2m41WDSO3vYGcBY0AyI+gIYMbAAFAABAABCSOAI331NbWOhyOjeJhkC4gEG0IOByO2tpaWjWUeKMB7oUTAZAf4UQb0gIEAAFAABAIBwKI9zQ0NJDhmzdvwhGE0UaCIb8bgsDc3NzNmzfJeocqIKz9CEfDJ580QH7Ip6zAU0AAEAAEAAFuCCD5YbPZrl27Rn5Vq9XT09MbQsggUUAgShCYnp5Wq9Vkjbt27Ro+BYtb3YVYUYEAyI+oKGbIJCAACAACUYUAkh9Op3NiYqKiooK8cv36dYvFEiVEELIJCIQZAYvFcv36dbKuVVRUTExMOJ1OVBmjqgmCzAZGAORHYHzgV0AAEAAEAAH5IYAYj9P9NzU1VVVVhS5qtdrl5eUwMzNIDhCIYASWl5e1Wi2qYlVVVVNTU2TtQxfl146Ax6IhAPJDNGjBMCAACAACgMAGIYAYD0mAnE6n3W6vrq5G12/cuDEyMhLBdBCyBgiEDYGRkZEbN26gylVdXW2321HVQ9c3qDGAZKWIAMgPKZYK+AQIAAJhQ2BmzdRgybnc90Zu1+s5nfuk+cntev1y3xuNlpyZNVPYkJF1QojxIA7kdDrn5ubq6+vRT+Xl5R0dHQsLC2FjaZAQIBBhCCwsLHR0dOB1qr6+fm5uDq936FdZNyk056HjoAES7FeQH8EiBvEBAUAgchBosuZd6ktpn/zctqxdcFocLps0PwtOi21Z2z75+aXelCZrXuQUgGg5QYwHp0FOp3N1ddVgMKDF6OXl5deuXevt7V1cXIwwXgjZAQRERWBxcbG3t5dWlQwGw+rqKq3SocooWnUPt2HoOPgjDvKDP4ZgARAABGSJQKVZeWv0Q2nqjQBe1Yx8WGlWyhLxMDqNGA+NCZFf7XZ7W1sbilNeXq5SqQwGw8rKiqiMDYwDAhGAwMrKisFgUKlUeA1qa2vDJ1zh9Q5FC2MDIGJS0HEIAi7ID0FgBCOAACAgMwSarHk1I/LTHqQsuTX6IYyBBH7gEOPBaRAtPDw8jK8GKS8vV6vV/f39q6urEcARIQuAgOAIrK6u9vf3o311yVpWXV09PDxMq1z4V1QZA9dZWfwKHYdQxQTyQygkwQ4gAAjIBoGZNdOl3pQAIwzS/+lSXwqsAwnwwCHGg9Mg//DS0lJ3dzc+gaS8vLyqqspgMMB0LMHJKxiULwKLi4sGgwHfPo6cuNjd3b20tORfs/ArqDIGqLCy+Ak6DgGLCeSHgGCCKUAAEJAHAo2WnPbJz6WvMQJ42D75eYMlRx5wb4SXiPHgNIgtPDc319PTU1lZie4iqdWdO3dmZmbkSxnBc0CAPwIzMzN37tyhSfTKysqenh7aEnO2+oWq1Ua0BEKmCR2HgGiC/BAQTDAFCAAC8kDgct8btmVtAHIv/Z9sy9rLfW/IA+6N8BIxHjZK5H/d4XAYDAZ8/1DSSFtb2/j4OH8aBxYAAXkhMD4+TlsiVV5efuPGDYPB4HA4/GsQ2xVUGTeiJRAyTeg4BEQT5IeAYIIpQAAQkAcCuV2vS3mfKy7iZ8Fpye16XR5wb4SXiPGwUSK26ysrKwMDA7du3UIWyEBjY+Pdu3dnZ2flxSDBW0AgWARmZ2fv3r3b2NhIqwK3bt0aGBhYWVlhqzts15GdjWgJhEwTOg4B0QT5ISCYYAoQAATkgUBO5z4uFF/icXI698kD7o3wEjEeNkoU+Prq6qrZbG5oaEB2UKCurq6vr+/evXtfffVVsMQO4gMC0kTgq6++unfvXl9fX11dHXrUUaChocFsNvvvqBu4EqFfkZ2NaAmETBM6DgHRBPkhIJhgChAABOSBAPQi8ignHl4ixoM4UGgBu91uMBhohxWSxm/evNnd3T0+Pv7o0SNpckrwChAIjMCjR4/Gx8e7u7tv3ryJqgwK1NfXGwwGtu10uVcoZJBHhZbErdBxCFgMID8EBBNMAQKAgDwQgF5EHuXEw0vEeLiTpMAxyXfDtbW1yDIKVFZWajQas9l8//79wGwPfgUEpIDA/fv3zWazRqOhbbdAPtK1tbXk+F7gGsH9V1RTeFRoSdwKHYeAxQDyQ0AwwRQgAAjIAwHoReRRTjy8RIyHO0niGHNqaqq3t7empgYlgQdu3brV3d09MTHhcrmkQDTBB0CARMDlck1MTHR3d/uvayIf4Jqamt7e3qmpKY4VgXs0VEF4VGhJ3Aodh4DFAPJDQDDBFCAACMgDAehF5FFOPLxEjIc7SQo25uTkpF6vv337NkqLFmhubjaZTAsLC8CAAYGNQmBhYcFkMjU3N9MeTvT19u3ber1+cnIy2Oefe3yUFo8KLYlboeMQsBhAfggIJpgCBAABeSAAvYg8yomHl4jxcCdJIcdcXFwcHR3VarVsQyLXr19vamoyGAwTExMPHz7cKCYK6UYDAg8fPpyYmDAYDE1NTdevX0cVAQ/U1NRotdrR0dHFxcWQH3vuN6KkeVRoSdwKHYeAxQDyQ0AwwRQgAAjIAwHoReRRTjy8RIyHO0kSJOb8/LzJZGptba2oqEA+0AI3btzo6OgwmUyzs7OPHz+OBk4MeRQPgcePH8/OzppMpo6ODv9Ta9CzV1FR0draajKZ5ufnBXnUuRtBPvCo0JK4FToOAYsB5IeAYIIpQAAQkAcCofci0wXHFfGZOhu+J2/dWUVs/K7EPbsS92zfkXBUWd5od7kjWHIPKDbtIK7vSkzYvvdUZt00eaNRW3Jyb8J24vrupLQSKj55F+d/YePdAE8bYjzcSZLgMaenp41GY2trK+MCX+RhfX19d3e3xWJZXFwUj6SC5UhCYHFx0WKxdHd3M+7Jhh6tysrK1tZWo9E4PT0t+OPN3SDyJ0CFlcVPwXUcgnQWqzp1zgmqs9h1/COVFXUQ06rMo9t37CY6lyP4dRSBJSCRjgPkhyyeeXASEAAEhEQguF4Ea8T1F5O2bouPfafUIzDcP9WdVRwo0XkEiaMx+3BMaoWR+ErIj4w66nZr1cmtCcoWl81hyk3LUVlX3VJktTE7OeZM/RCuZziGJdKLCFkwwtlCjIc7SRI15sLCwujo6Lp8saKioqWlpb+/f2pqamVlJZIYM+SFDwIrKytTU1P9/f0tLS0BBtbKy8tJNTs6OrqwsCDqI83dOKqMwtXvjbEUVMchSGdhrcpIK2mkJIexLD1m70WNu4OozkzYrmx2dzSuoZbspB1nVXivFKATkUjHAfJjYx5iSBUQAAQ2EIGgehGsHdfkJccoS3IPxKWpl70DID7yw2Wz15xUnCoiOgxf+eFwafL20EdOHC6b/nJy7AfVWCpey4EvSqQX2cByDJA0YjzcSVLYYj569Mhutw8ODnZ0dDCet4Ccv3btWl1dXUdHh9FotFgs8/PzcMYIHxIvi3sfPXo0Pz9vsViMRmNHR0ddXd21a9fQI+EfuHnzZkdHx+DgoN1uf/ToUdgeY+4JIZ8DVFhZ/BRMxyFKZ+FoTlMczjW7bN6A5/WWShl3tNgzur5ODyKRjgPkhyyeeXASEAAEhEQgmF4Ea8p1yq1xGXUuXeFhRVqNd7yCJj8cmgxPD0GXH8SNSg1m0N1z6C8nb80G+SFk+b548QIxHu4kaaNiLi8v22w2vV7f3NysUqmQ52wBtVrd1NSk0+lMJtPU1NTS0tKTJ09kQazBSRoCT548WVpampqaMplMOp2uqalJrVazlTu6rlKpmpub9Xq9zWZbXl7eqOeWe7rIc4EredjNBdFxiNNZWCtOKNKJsXdzSbLirAp7PzWkTvfplbCf6D0OyI+wPziQICAACAACbgSC6EWoqVMOl63lI8+0K/3FJM/4hvtXmvzQX0zyjGbQ5Mdy6Zm4g8UTtM6AeEkGk68EfzAR4+FOkiQSc35+fnh4uLu7u6mpqaqqCmUkcODWrVsajUav14+Ojs7Ozi4vL8OidhrX39ivjx8/Xl5enp2dHR0d1ev1Go2G7fwN/4Kuqqpqamrq7u4eHh4O/8Jx/vUC5Ujwah5mg9w7DlE6izmVMmG7spN48+UdY/f0UMbiFGwOMNZt+esQkB9hfmwgOUAAEAAEPAhw70WwtluljKN0gikrUeEd6cbkx5C5PmPvloOFI26NgcuP6erCt7b7T881lx586VgBMZge/EcivYg0nyrEePiTp4218ODBg+np6eHh4d7e3paWlsCTtVCuyUBlZWVdXV1ra6tOp+vv7x8dHZ2amlpYWFhdXd1YLh6pqa+uri4sLExNTY2Ojvb39+t0utbW1rq6usB7D9BK7ebNmy0tLb29vcPDw9PT0w8ePNjYJ5B/6iiD0mwruHvFueMQtLOYKEojNil5OXb3iUIdNeruKE2LS84jOxqXzVyVtkMB8oN7SUJMQAAQAAQ2AgHOvYhXFdjr02K9Sz40eXsUx8vJZX82bOero2k5Bdo56i5Cfnh2vjpwKi2vnlqeTikNuyYjcXdGnYOKT13nKEVAfgR4dhDj4U+epGZhdXV1ZmaGfIne1tbGdtgIQoAtcPPmzcbGxo6Ojt7eXpPJZLVaZ2ZmlpaW4Lz2AOrI5XItLS3NzMxYrVaTydTb29vR0dHY2BiULMRLpKampq2tjRy2mpmZWV1dldrzxt8flN8AFVYWP3HsOMToLIgRD4sq+9jLx8s9/Yi9Pzdtv3vnqz3JqRdLC99SnGnm1JVIpOOAtR+yeObBSUAAEBASAY69CCYDhtTvxFC767o30o2P8SzwcBHyw7vzFS4h8NEP/DoZHsk9gsZJ/H/lcMW/F7GvDnROXZl7NCwkWPK0hRgPf/IkfQuPHj2am5sjFyu3t7fX19dzn7WFgMID169fr6qqqqmpaWhoaG5u1mg0Wq22p6fHaDQODg6OjIxYrdapqamZmZmFhYXl5eXV1VXZzfV6/Pjx6urq8vLywsLCzMzM1NSU1WodGRkZHBw0Go09PT1arVaj0TQ3Nzc0NNTU1FRVVbGd4odDFyBcVVVVX1/f3t5ObiQwNzcnzZXigj/wCBN5tiVer7l1HCJ0Fqg7MGUlbnNvn4iueALVmduSCy0gP7yFBSFAABAABCSHALdeBGvK54pSFdt9jvswZe1VJOWZiDihyA+HSrn7YF4/NZJO70uwpNl/IuWH8+uloYXbtaNZBd3/lNO578Kdf3z2/TeSQzzsDiHGIziXkovBR48eLS4u2u128j19X19fZ2dnU1NTTU1N4J1bEXTBBq5du6ZWq6urq+vr65uamlpbW9va2trb2zs7O7u6uu7cudPd3d3T09PX12cwGIxG4927dwcHB00m09DQ0MjIyOjoqMVisdls4+Pjk5OT9+7dm56ennH/TU9P37t3b3Jycnx83GazWSyW0dHRkZGRoaEhk8k0ODh49+5do9FoMBj6+vp6enq6u7vv3LnT1dXV2dnZ3t7e1tbW2tra1NRUX19fXV2tVqsD7yUVbMZR/IqKipqamqamps7Ozr6+PnJMyW63Ly4uRonSYKwdCJ+wNwMCJ8ip4xC8s8C7AFNWYlwGsXu778euydianKX3vUiLg776v7cSGCZu5mD0gxtOEAsQAAQiCAFOvQjWlFvLjypSCqjN18mmf0idHpOYT2zBHrT8ILTHLqWGl/ZwuGw5nfvKB87kdO7DPyWGf4ugggo9K4jxMPIhuPjw4cP79++TqxTu3r3b3d2t0WgaGhoCHJuNII3ywI0bNxoaGjQaTXd39927d8kVNffv33/48CE8V4wIoAcG1efB+7XNtgvoqwQD+tmKJ9+u0Rzj0nEI2lkMmU0672keq7qy9Pgd/tskjuQej9+V6V6SjjRGgADID1qxwldAABAABMKEAJdeBGu+dYWHqUXnmCZx6JRb3ePgwcqPlg9iFHEvu09JJ89K35W452QZfUcs+vstzB/PTzmd+5YeT17s+QkuPy7cOXRtMKNt4rOhhduLrokwASq9ZBDjYeRDcDEwAg8fPlxaWrp//77dbp+cnCRnJZlMpv7+/r6+Pp1O19HR0draevv27bq6OnI8gefEJFReYQtcv36dHKupq6u7fft2a2trR0eHTqfr6+vr7+83mUzkHLPJyUm73X7//v2lpSUQGIEfG7ZfUZk++/4b41wV2WRVDb0vvWbD69Hlvjc+uXNIe+/P33z3FbrKoeMQtrMYarl44kDC9h173D3F7mTsCEJdYcp2ohNJ2L4jJaOMWoPu3034XwH5gQoUAoAAIAAIhBUBDr3I+uzfv1kP8xWyF/n2u6ddU8VIgeimS6uG3i/o/md05fPe4zeGf6ub/sv4iu7RU0dYgd64xBDjYaNEcF1wBNbW1silFLOzs+RcqYmJCZvNZrVax8bGRkdHh4eHyelSAwMD+HSp3t7e7u5unU6n1Wq7uro6Ojo0Gk1bW1tLS0uz+6+lpaWtrU2j0XR0dHR1dWm1Wp1O193d3dvbi0/lGhgYIKdyDQ8Pj46Ojo2NWa1Wm802MTFBzuaanZ0lF6usra0Jnn0wyIZAeXl52bXSS7XKz7B26cbQ2Y1rHtZP+XJfCtmE5usO985ce/b91y9evIikjmN9CESOAZOvRAYYzAMCgID0EFdHO0cAACAASURBVIi8XsS80Ei+Uxxf0SG8154uWJY62icvXRv85cfaA0iQfGH8eYPlT8a5G7Nrpm+/e4riR1IA5AcbF4TrgECYEfhSVZSn+TFqf8hAQfc/XR98R7Ifmref9fxL/9zNyOs4NrDNB/mxgeBD0oAAILAxCERkLzK7Zqo0KwOPbyw9njIvNDbbPvlLfxrqXz/V/fj64DuaiYvDjublx/c2pkiEThXkR5gpJiQHCLAhUF5efvX6ny/W/xK1OTmd+4r1qbrpUsl+Ltz5R9zbz3uPm+7XR2THIXTTy9UeyA+uSEE8QAAQiBgEIrUXcX29HFQZPfv+m/lHI8a5G3Vj2Vf0P0Pd7aW+lOqRD7qnv5xY6Xn8zYOgbEokMsgPNi4I1wGBMCOAKuPjbx402y7kdu3P6dxXPfKBRNoKRjcu9h4j28Niw8lhR/Pz59/D5CtGoEK+CPIjZOjgRkAAEJArApEqP/iXx1ffrt57aOyxl90Y/m1hz78iQfKX/rRG6/m789Xzj0a+f/6Mf0JiW0CMJ8xMC5IDBAABGgKoMpK1fu3pQv3Yf9WM/F7sRoCP/cKef/3C+HPLUsfzF8+RHeg4EBT8AyA/+GMIFgABQEBmCEAvwr3AVp/MW5e7OqeuqEzvfnLnEClI8nVHVKZ32ycvjS62PXwyx91a2GIixkNjQvAVEAAEwowAqox49f/62WP8q9TC9tUBf5eg4/DHJOQrID9Chg5uBAQAAbkiAL0In5JbdE0MOZpaxvO/vPsLNDxS1Pdmzcjve+zl9x4anz5z8rEvyL2I8YSZaUFygAAgQEMAVUZBqvYGGoGOQ0DwQX4ICCaYAgQAAXkgAL2IgOX0zXdfza6Z++duNlj+VGz4N1KQnO96vfTu/2my5g3er3O4bAImx9EUYjw0JgRfAQFAIMwIoMrIsfJKNhp0HAIWDcgPAcEEU4AAICAPBKAXEbWcXN+sTD7o67GXV4/87vPe46QgKej+pwrze51TV6zLXYG35xLEN8R4wsy0IDlAABCgIYAqoyBVewONQMchIPggPwQEE0wBAoCAPBCAXiTM5fTgq5mxpfbOqSuVZuWnOs8JAFf0P7s1+pF+tmJmVfjjRxDjoTEh+AoIAAJhRgBVxjA3O4InBx2HgJCC/BAQTDAFCAAC8kAAepGNLafvn3+34LSaFhpaxj8tG/jP3K7Xczr35Xbtv3r3Fy3j+UOOJu7Hj3z//JlhttI/O4jxhJlpSSy51nOKuFd3JyX90P1J2Jl0+PT5qqElysvxkkOK91qpb97/fa8vGcqyTh9OStqdlLR7587dh05/qB566HQ6Z1sL3z4aH6fYknz6PbWBuHu8+LDitfdbkX3K4njx4UPFw55vhPEtOz0ukY79MCmrk/yVLS3i1yXj1axThwg3fpi0MyHp0Kks9SCVAva/r/PYD2RwvLYg/U2U+pvpBbVjfv46nc6Hs9qy82+nJCXvT6aSe7egZpyIOttakH701TjFD/adflflzrcnkdmhqgLqlp07E5LeTC/Qzvo5EH0XUGX0r6fyugIdh4DlBfJDQDDBFCAACMgDAehFpFZOT5857asDhll1veWPfzb+Ozlf67Puo+qh9+9M/yXA8SMzq6aczn11Y39wfr2EZwoxnugje3iOW88pvLyf+GHWUPCTuEOXh8hIbEwdvz70afJrp64aFpDZpXHjECLVeExSfigUr51roxF6P/nBpHmcTmegtAYLkredvmr0Wl4aM3j9QN45nb4uYT84nUOq0zsTThffmUVWlsbU7+7+wdESDyCe2MPq0wk7Txe2Dnlz7VwablV3jlPmCKH1bhP1zel0Lmiz9v8gObMWu2Vp1mgYJ3RatP+hyojXUDmGoeMQsNRAfggIJpgCBAABeSCQ2/X3C06Lw2WT72fBacntel0ecIfk5aOvF8dXunXTpTeHMy/1pZCCpMTwb/WWP/bP3UTHj/TOXCN/uqJPtS51oqQQ44lu6ucnP5xOZ9O7isPFJI9mY+rYde25uKTzRlYUsZjk6Meh84XvvrbtnO8ICEf5ESgtbWZcUh4+1MDRJSzaWPGhuNNXkYJAvyzUvh2XVIAGUpa05xJ2nqtDCgvFwwM0+TGrPhWXzM093EqUhFFlRNVTpoHcrteh4xCq7EB+CIUk2AEEAAHZIHC57w3bsla+2sPhstmWtZf73pAN4kI4uvz43shia/vkJZXpV/nd/5TTue9j7YFrgxmk/CD/7Zi8RCaFGE+UMDyWbDLIj6WatxUpV0ly7SsevDaw69qsbTuDkh/Fw0ut77322nu4AOEqPwKkpc1+bSc3fo85782R0+nUZr/GJmCGCpNf/VBLxh4vORSXrg4sPshxHu/oBzEyc04LAx0+eHu/oMooRDOwkTag4xAQfQHkB970QxgQAAQiCQEB2xpJmWq05LRPfi5r+dE++XmDJUdSqIbZmWfffzP/aKSE2uoX1btrgxnfPX+GGI+XBEVjyE9+zBrOH96JJkexMXX8ujZ7p+LweQMLH8djukm5e67XQuu5hNfebUJTnDjKD2egtO5k7VQcOt/L4gdWuL4uoR+Gig/GnWtDX30Dnefi9he4J2CNX/2J4nQV8tw3mvebz+jH+F+OxrFMJ/PeEcUhVBnD3EQInhx0HAJCCvJjH+q0IAAIAAI0BARsayRlambNdKk3Rdby41JfysyaSVKobogzBe5hEPK5LTacbBsvmFjpfvb914jxRDHrczqdrecUih8kUEvPd78at/vtqxiDZ2HqtOUTS4aSt5O3/CD51Hm1kc7+fS14ZcZS27md295t9ayd8F4nZmiVHFLEvYoWf7sD5z1DD85AaS0Zi9/e94Mf7Dt9vsowyz7U4OsSKn8/JYZ+cTqdY8WHFO+61+AHjOa9xUd+tL6vQMtpvFEgRCGAKuOGNBECJgodh4BggvwA+QEIAAKsCAjY1kjNVJM1r2bkQ5kqkFujHzZZ86QGafj9WXRN5HTuqzQrDbOVS48ncQcQ46EoUHT+TyPTS7PDtef2e1daszB1mvwgoVsav3P1/M+S4ra8WYCt//a1gMuMpdb3d1JTsPDrjMZppcOclsePMe3VnDeT4n7wZqGBcZDC1yVkmQYFuu4OsMuPcdXbHqW0+9U4j0Tx7PGFJl+B/PBFk/4NVUa8hso0DB2HUAUnpPyQaUcObgMCgAANATQGIlRDI007lWblrVH5KZCakQ8rzUppQhpmryxLnV8/e8yYKGI8dCoUXd+ZOLeXarMqARYG78ZuuPhonHc3Ld+YPjLD6Z2C5XPd95aA5eGblk/Uh0PF2BZe+E8s9oeKDyoCTb46WOyefDVUfPDVrDu4PSqM4UZb+zF0+ZDifYb9i6k7o/1/VBkZq6rsLkLHIUiRgfyQ8dY3NMoIXwEBoRCIEvnx4sWLJmvepb6U9snPbctaKW9psuC02Ja17ZOfX+pNgXEPLp0fYjzRTf2Y5AcxI8ujH2ZVpxU/V/uPIQx9msS2SpuY0fWe4lCJZwMpX67vIzOIkzrazu387+/WLvhc971lnfLB06JHxbbwwn9isx9g8fpQYfJr1NJzIloO0xZb7PLDeSfrtf9+jpo/hvsCYQIBVBm51FxZxIGOg38xgfwA+QEIAAJ0BKJHfrx48WJmzdRgybnc9wZ5+B3Ku6QCuV1/f7nvjUZLDqz34NjtIcYT3QTQqzS8OBD7z75dS67KuHf1TcVpNXa6hTvaUMG+1855zgH03keFZtWnvIuzfbm+j8xwx1/SZu589Z2C87RjB7ku1PZJi3LA8z+bdvJ1CbuJ0A/+mXU6iY13veM5zrGr+PCO9/4A8sN93iIs//Bi5RtClZFj5ZVFNJl0HK9LtuMA+UEnXkK9PwY7gIB8EUDMWxbdADgJCPgjgBiPLxGKtm9+8oM4dvAHSdnoTf2S9sOknaeKvRtbPRxXv5eU9H6rZ4350rjB6D2kz+lcGio7vTPhHLWmnDZ9y19+OJ3EMRoKBTXe4ll6zig/AqW1NN5r8PFj8OrpBO8WXni5ssoP8tjBbcSxgyi++9jBpNNlPscOzta9m7Ql+Vyd+4xzFHWwgFqeTl/7QUQhTip87fRlLb4mfgn3GNmJvgCqjP71FK5ELQIgP0B+AAKAAB0BkB9R2yVETMYR44k+sofnmLbzVVLS4dPnaaza6RyvO3/6cNJOcoOsw777Si1pi9PfTPrhTs+vPzx0OqeWYuWzrYVvH42PU8Qlvfmemty1thgb5UB+LHWe20mTH/Sdr5LOdxJChT2tJW3J22/+MGlnwk5yIfihU+drx/xnjRFpEvKD0T7p0HhtAZGjpKQfJifvT3ozvYDZzj3t1Q9PH/phUtJuz75hh069W1DmlmmzrQXpR1+NU8TtfvNdFaZbHo7XFhJOolveTFczzeJCwERLAFXGiGleICP8EQD5QSde8n1jDZ4DAkIhAPKDf9sKFjYWAcR4ooXiQT4BAakigCrjxrYJkLqkEAD5AfIDEAAE6AiA/JBUMw3OhIAAYjxSpWTgFyAQLQigyhhCRYZbIhUBkB904iXU+2OwAwjIFwGQH5Ha4kdPvhDjiRaKB/kEBKSKAKqM0dP+QE7XRQDkB8gPQAAQoCMA8mPdphMiSBwBxHikSsnAL0AgWhBAlVHijQa4F04EQH7QiZd831iD54CAUAiA/AhnKwxpiYEAYjzRQvEgn4CAVBFAlVGMmg42ZYoAyA+QH4AAIEBHAOSHTBt0cBshgBiPVCkZ+AUIRAsCqDKi6gkBQADkB514CfX+GOwAAvJFAOQH9A1yRwAxnmiheJBPQECqCKDKKPdWBfwXEAGQHyA/AAFAgI4AyA8BG1kwtSEIIMYjVUoGfgEC0YIAqowb0hRAotJEAOQHnXjJ9401eA4ICIUAyA9pttfgFXcEEOOJFooH+QQEpIoAqozc6y/EjHgEQH6A/AAEAAE6AiA/Ir7pj/gMIsYjVUoGfgEC0YIAqowR3+xABrkjAPKDTryEen8MdgAB+SIA8oN7GwoxpYkAYjzRQvEgn4CAVBFAlVGabQV4tSEIgPwA+QEIAAJ0BEB+bEhzDIkKiABiPFKlZOAXIBAtCKDKKGAFB1NyRwDkB514heON9bLROkd87KvhSX2ITM7qCE9ykIrsEQD5IfeWHfxHjCdaKB7kExCQKgKoMkK7BAggBMIiPzQZCqa/AyW6cHB9l+S4oLkkmcRDqQmLb5bcA2R6Z1XSAtzRWHz26I4tpHObduxR1i2HBRDpPRLSKheXTV7yY9E13jqeX2w4mde1/4o+FTkvncAVfWpe1/5iw8nW8fxF1zhqfyEgHgKI8UiVkoFfgEC0IIAqo3j1HSzLDgGQHzbHqntwIIzEN3T54XCPmQTLniUqP4bU78T4yNJTRdZgs8YYP+wFKjXxwN8fRNyl36J1TBXl64402y6MLWnuO0f5510kC/edo2NLmmbbhXzdkY6pIukDK3cPEeNZl+JtTlfx/+CpCGsNt+x0Ovkb35yuotkkv4phWQybooIgqnEx0BDDpuAgoMoo91Yl/P7PrJkaLDmX+97I7Xod9csSDOR2vX65741GS87MmokjSmGVH9Ic7mjJjlcoFOH0LVT5UZ25TaFQJBdaghwikKj8UClJ8bEtrY6YFTZkF0gBhr9ARSKsG2gWtW4c25GNilY79ge1+dcza4MbiFWwSc+sDVaalbVjf9go0KIkXcR4GKk2fnFzOt9hYRqh52mQZg13leSFwT5ytPhs9nm67XDZ/C2LYVNUEEQ1LgYaYtgUHARUGaOk8REqm03WvEt9Ke2Tn9uWtQtOC60iS+rrgtNiW9a2T35+qTelyZrHBQGQHySnD6v8cDSnkcQ7uMlXOuVW4raIkx+Hc82MgxghXtyIAg3R1SBlZBhTkYX86JgqqjQrJdUEc3dGbf41jIFw6aJCjoMYD42++38VnMDxNOhP4nGfeRpnFAmkfTEsi2FTcHKMwyuqcTHQEMOm4CCgyhhydY7CGyvNylujH3LvU6QTs2bkw0qzct0ik4z8mCOWASTGu2fjxL2cmJJR3GfE0CTflMdn6myOkSLl0ZdjFQoFWsnge+/eU5nqCR9iZ67PTD28/SWS8m/ZnphyMq9KY3fZHBOlmYc3kZfRv6Qk8AxQENOBjC0XT+wl1ickF1o81FahOFE2501Cn7+LvP14Oe6zN4K1Myt1v9tnxaYdKRnFH58g43vlh0OjLlGmHt71Spz7FzcChZ1ea+Z65QHPGgnkaUYdyUfXu9dBjX7EflCqLTm51w1ybHxSWkkjPtnJPlJa+NGJA7tJPxWx8buOn81tmfbmwrGqU+ecOJDgQeylhF3H07PKRoZQMVn7CpQpnizExiel5pSaWdbWW3W5SjryHlll7SvISz+a6E0lOTWnSE9bNM/gSYF2NVCBOlw21scgjLQeYSXxgPTlx6JrPF93RF7jHnihz6wN5uuOwDqQdbuokCMgxkMjl/5fBSdwPA2C/MBrCiMaPBEOoMEEZ9748yaG22LYFBwEVBlDrs7RdmOTNa9mRJbag6y8t0Y/XHcMRBryY6TgOMWtX0qgdIJi0/FSDdUMeSbqHDibcYQk6Eh+jOSiK95743Zldnposbn0IKFVFApF3MuI1G79qNrhstWdRVTeG/CRH3EnlWe3U78R/Jic2KNQKFIrkDbQ5O0ho/hoEspzm12TsYMy4fXQfcUrP5ZLz3jytWnHHi8CZ+rJXFDzlCg77v8p+bHOvTav/NiyKVahwH3Y8UE1IcPcH3t9mgeoLdsRUIotaWoP9dcVH/Ms1YiN30WtF3cLQvft+hIKZ8WmHZR4iN2tbGGaUsWEvEd+6C8mkbmMjd/lkaMKRezBLD3lp8OhUiZ4gPB6klJgDVyg7I8BKikIIASkLz9ax/ObbReQw3IMNNsutI7nR1u3Grb8IsaD8z/GsOAEjqdBRsKNPOdpPADzFsOyGDYFJ8cIWzIgks8iuS2St8KaRZUxbNVf1gnNrJku9abIsVPDfb7UlxJ4HUhY5YcPefZOIjIWp5C/JOeNuKnwqqbQw3TRRCMa/455Zff248TGWdS9cQcLyXsd1ZnktlLJJGHVFR8jjaepyTfxq0N6TZH3pT61Kxdt7QdanuHxecv2xHg33Tdl7SUvoXXSpqxE95XYd0oRlcfKQJPn2eZqu1Lj1hKrmrzDHqte+eGymTUFdWgkYbX0DBnlWAGamERRdoSJd1xinXup0Q+FgkJ4DjH4o8Xe8Q1dXbnKO85Q75khdqTUvUHZRMER0qV3Sj25c2jqqqo94yfTBcdJEI7l6t0423VKEqi9F5GG9DrstkCVKW3y1XK1uqrRSokW/UUSvhhlp+f2lo+ItToKRcyRy5Tl6UathRqEYS7Q9R4DpG0g4EZA+vKj2HBybIl6AORZamNLmmLDSVl3k1J2HjEeGrn0/yos0+LPMkF+YB0ow3oS/ggH0GCiGhf8SRPPW2FdRZVRyi2GdHxrtOS0T36O1wI5htsnP2+w5ARAVQLyA/HadIy+azLIN/GJ+STDoKiqIuZIfrUVTemZK0olOTF2L6UcPDS97qznnf1LhzMKNTq6QmBmqzbKiEKRkFaGqC3BcijBQ82/ot7Wx+BawvusoNwhueKy2WtOkl5jtxi15djkK/JnhUKBUXN2+bHevUh+YD7oL3tUUVoNRdznGouxyVfIBUqYqZTU+MyBs7l1PpjYrBWe6WReay5dIamysCx4YSGQpMqUFmGiFJ98hdygsKr2uLFN2cJIOlkKdJ3HgNFUFF+UvvzI69ov5X2ufB91mvD2fL3vHM3r2h+gdYaf+CCAGI+/3qBdEZZp8WeEID/w6sOIhuBFhj8S4hkXw7IYNvk/wzSBhyojnxodPfde7nvDtqzFa4Ecw7Zl7eW+NwKUWljlB0VkfTvjTo/SUKC1HC7vfCHqIkVV92CTcFw2B7oXsVQs4CGs2Mwu4sctvmseWNgqkh8Yn/a4bS0/Sibinn9FDW6wsWHkIZ47asCEotTeeU2Y++4gRs1Z5AeHe5H8wH2gZdxSgOaw0XxApaYvPepZP+OO8VLyyUJqfU7LB75b6PqYoCaJ0dk8VaZYHu2d3olqPjYUCg9WSM5hd/nUTFq+UKKBHwMUDQJuBKQvP67oU33KXZ4Fd0WfGqB1hp/4IIAYD84sGcOCEzieBhkJN/Kcp3EaL0RmBWecpGWRvBXJrKg+RzPCqDLyqdHRc29u1+sS3+eKS+e74LTkdr0eoNTkJj9opBORexpXdX+lyL2NXDPtXj7uibfjrMozDMLCVpH88BpB/AattThVZKXmYm3NJhaTMHwo+wqc+tPkB/VVEXcwT0cuKWGg5szyg8u9HOQHWj0feyzLMzON8hzJDyJ3E6XZp5IwEeKZUSaQ/BhSp1MF9E6R2T3/il4QKC+0JwGBz+g2+at7wTrzY4Buh4AbAenLj5zOfQzVTW7Fl9O5L0DrDD/xQQAxHpxhM4YF57I8DYL8wKs2Ixo8EQ6gwUQSCeIJG5GgENYsqox8anT03BsZvZvDfX5xgFKTgPxgmkDlYJt8RSOd6F34e1w2bh8y12fs9cwgol7Js7BVOuv1pTXU8oOTefnkFKakPBOT9sCHcbDpYfTJV5QPmERRedZ+YPlllh9c7kWUHVtJQpt8RRmnBhlcNrQ7sI/8IHFY1qk/SPKsU3fLKnPpQVI3nGlmwcEXQHfv4i+xqPla3nVBNuQnpQOpu2jjYMg+BQiD2544TI8Buh0CbgRAfuAESLwwyI8AnRPPnxDjYZQc+EVhmRZ//spIuJHDgnsrqmWRvBXJLAmFeMbFsCyGTf7PME3gocrIs1JHye0gP7gWNGIqrJ30OozQWHaKnLpDLYz2Lj1HtJ4inRgddydH3Rt3MI+aCORw2ewjqryqRncEnfpibt2IkVryoSukVqJ7dq2lxk8SPybjG83TxFqIwPLD4TmCY1ciueeVZ5k7I/OmZmcpkrP7PUvPqYX1FNf3WFMo3ioi/dRfpnaRwvJLjTDsyu53JzSnI9Znc7kXyQ/2pefeHb2q6E56ePxEaV6JSj9HLRSx5HpWopPCb7oo1a3rYo9ladGWxMQq/6yyPkZYGNd+GMtOkSoG5REtkaewcqGz0vGl59WFOUWeNfrMBbreYwCqwxcBVKm5tgJhjxcZDTTID/EeHMR4EL1mCwhO4HgaBPmBcwlGNHgiTCPHtAdDPONiWBbDJsgP8dolLpYjo3eTw+iHy4ZvpfpSAnX2hSLmSAna2YZNfhDHgKRS27AqtmxPpI6toEYS0Av1mFd2I8sK74azaCYVsSMtEYFk2+vIDxcSFQRdZjvug2xD/TfejXVvgKtA6xlc1ZlYFtx72m7fu9+9vxMmP7wb4yo27SCySa6t53CvV34Q3vpsvIvmjOmU9N2BE5L2EoesUwcyIiNxL3tBVmxXUhsc6ytOYBa8e+ZSoxb+IoShTK0VJzyDKoqYVxKIE0hi9yeRO2h57WBbLRMlTp4Vg4BiLtD1HgNf8o13ftEZBvkRnnIH+cGlMw4tDsgPtmeYkdALzjhFHUkQiXOL6nM0I4wqY2h1OdruAvnBtcQRU2Fr7BzrjH64ialDU5ZzgjwRjzigg/nYQZ+doLzJkYfQIeFBHCyYUehZRDHUUnLyOHaSxo49R5Xlvsft9eemec4EjHll99FMDbH6Yj354Y1AO4LQ6xXGaK3NmanJ7tP6tmw//pHKuuo5vtBLqadVmSnkcR8xr+w/Wdg/5BnWQKyasDaEDg10Q6SsI8cZ1r3Xoxy2Z9ZXF589Sh7ZQR47SA0KEUVgbVYeJ8/riHt5b3qu1mEj55h5Rj+Wqwux0wAJ3k8vI3JlSDI6rIM4l5B2cCGGCcvOV1geSayorca8WLlsDvygSQVRasoK9zmSbvt2hgJd/zFgLLiovYgqNddWIOzxIqOBBvkh3oODGA/t3bb/V8G5LE+DbPIAyDEqO54Iw+gH3rUxPm/CIowqo3j1PZIsR0bvJo3RDx/S6f8WXJ5XqGUnLMd9yDNTEVlSkKngEQD5gXfP4oVBfohHGhDjQZyVLSAs0+L/kpuRDiLnBfdWVMsieSuSWRIK8YyLYVkMm/yfYZrAQ5VRvPoeSZZBfnAtTcRUxOukpWjZs+gihjqYHPQGIBA5CKBKzbUVCHu80Btooubip22Sy5CIyZmJe3YlJmzfkZJRTC7TIkdBt2wnru/ZtSMhKTVH5Tlnk1R0c9WZ+2MU+KZ2QSo9kB/iPTiI8SB6zRYQnMDxNAjyA+/xGdHgiTCNHNMeDPGMi2FZDJsgP8Rrl7hYDr13C7IDwiuaGOHAHVxYdr6SGCICoOyglkQnsBx+F3lZhhxFEwKRKz+IrQu2bovfexGtKyPlh+eUUmLjiv7MA3EnyqYJMUlMwvSqC2NZevwOarmUvT/reHxS6qldWISg9Wfg1plLRwVx2BAA+cHW0zESesEZp6gjCSJxblF9jmaEUWVkq61wHUcgOPkxXXBcEZ+p8+l96s4qYuPdL9T2bN+RQKw48My0J6bib9rhfqGWmLB976nMOndP59NWOFRntlGLfgna454Sn7A9cff2HUeVDPHZqVHgDg7kh0+Z+ZQBE6bmkoOv7CYXaSgUcbsyqYXX694IEQABGSEQsfKD2JkgubAkI9ZntzqVEtvr2eEizp9xHypKkx82hykrkTxgdLU6OyVDPe0XganRCFDugVtnvEOCcLAIIMZDe7ft/1VwLsvTIJs8AHKMyo4nwjD6gTdKjM+bsAijyhhsLY7O+EHJD/3FpK3b4mmrAOrOYvrB0Zh9OIbs0RyE/KCOnXDZrFUnt9LfoQ+1fLArltqEiXgfV58WezhX7+7aiI2UfLrOdfhz4A4O5Mc68OG1lHgb6jngYtOOFKV6Irh7aabgKyAgWQQiVX5YK04oiO0cVMq4XdhZPTT5YUNtt+/oh43WdvsNjwTdIARunaOz6xUq14jxIM7KFhCWafF/yc1IPPABGQAAIABJREFUB5HzgnsrqmWRvBXJLAmFeMbFsCyGTf7PME3gocooVO2ObDvByA9NXnKMsiT3QFya2n1SM0kqUBdGfiXOmjtVRMwc9pUfDpcmb4/vyIlOmXisoNCrXojDLbCNf3SFh33jB3zjFriDA/kRNGOQLGUExwABoRCIUPlhLE5RuKdduadgUdOo3JuweSdfES1ycoyyk2gZaPKDeA+End3pHyFY/Blb54H5W9cH/29k96/C5m5m1TS62EaziRgPotdsAcEJHE+DID/wesSIBk+EaeSY9mCIZ1wMy2LYBPlBa0zC/DUI+aFTbo3LqHMRRwuk1VDHsrm8b9A8VUmT4X7v5i8/iBsxdaHJS04uHMFvVykVB4uxV+0tH8Swn+lMp9OMHRwCE+QHHS+84YMwIBCdCESm/CBe/HhOMiXeBpHTqIiXN9jox7JO/UHSS8c8Y824/LDqclMTtis13iZeWPnx/MXzvpnrF3t+ktO5D+QH6qK4BGZWTTmd+4oNJ23Ld1B8kB9sbRcjoReccYo6kiAS5xbV52hGGFVGVD3JgGmhIcrbum77VRomL1684C4/Wj7yTLvSX0zyjG+4hyNoox/6i0mxH1QTDQJt9IOYjexVF/r8pL35xKpI7+20+H6v5NgaGfI6yA8QGIAAIBAcAhEpP4gGGs1bXS5N8y7XUymJ02PcC/VSTmZj5wIR8sOz81Vy6ntZ/vMtcX0SuCFm/JVsnb9+9lg3XUoKDxL5KO+S/fvjwFdI+UFCV9r/H5MP+l68eIEYD+3dtv9XwbksT4Ns8gDIMSo7ngjD6AfeHDE+b8IijCojqsh356sLe/4FXrXkdO7L69pvmFUjZIKRHyplHLX5qikrEdvR0asfXEPm+oy9Ww4Wjrg5AC4npqsL39q+46zKsyp9JPcAtQ7Eezse3y1sguryQH4ER7zwaglhQCA6EYhE+aHJS1a8lEBuBuLeSHeLItazqxU2+uE7k3XdpnbdCIGfn5zOfTThgZDP6Uw+T366Xj/f9Xpu19+7P/vzuvbnaf/B/TnwsZb8/OgT7Y8+uXPQ/Tl04c6hC3f+8cKdf/xU92PqczhfdzhfdyRfd6Sg+5/cn38u6P7nz7qPkp/Cnn9xf/61sOdfL/b8hPj0Hvuc+BwnP5d6TxCfvpTLxOcN9+fNor43i/Q/LdL/9Arx+Zn7k1qsTy02nCw2nCwx/Jv7c6rEcOrPhlN/Nv67+3P6C+PpL4w//8L487/0v+X+pP2lP620/z/Iz5d3/4/784sv7/7i6t23ic/Af5YRn/SygfTygTOez2DGNeLzy2uDv7w++M71wXcw3PbldO4rH8z4c9V5kvQgzsoWEJZp8X/JzUgHkfOCeyuqZZG8FcksCYV4xsWwLIZN/s8wTeDh8kM/W/HJnYOowkb5qxaEQ77u8MB8DSlCOI5+EJOBvUs+NHl7FMfLiVOzyeELauero2k5BVryiGrP6Idn56sDp9Ly6nVUD6UrPrZLSe2lBPIDZAMgAAhsDAKoTcRfyUgqzLGBptpWm4OYI+vZTpe8iLXdGyk/Xrx4wTb68fzF8+fPv//++XffP3/23fffPvv+m2fff/3td0+//e7JN8Tnq6+fPX76zPX0mfPJt4+efLv21berj795+PibB65vVlxfLzu/XnJ+vfjo68W1p461pwurT++vPpl/+GTu4ZPZB1/NrHxlX/lqevnxveXHU0uPJxcfTy66JhyucYfLtuC0Ljgt951j849G5x+NzD0anlsbml0zz66ZZlZN9tVB++rA9Ord6Yf99x4a7z00TD3QTz7om3zQO7HSM7HSPb6iG1++Y1u+Y13WWpe7LEudlqWOsaX20UXN6GLbyGLriKNl2NE87GgaWrhtJj6NpoUG0/36wft1g/drB+Zv3Z2vuTtf3T93s3/uhnGuyjCrNsxW6olPRd+Mqm/meu/MtR57eY+9rNt+tXv6S910KXpiyUCF6VdfqD8G+eF9/jFdzSZvxCCyYtgUnBwjAQbyA0EhbMGRNfHz2l/R6in11f2qhfk9i+cNy8fUGxb36xXiDcunnjcsDO9WPqPerQR4q4K9UvF/n0J7mYK9SWF/jUJ7gXKVeoFCf3vifXXC8N7k897j5oVGbr0bsYKR0hju12rxMZ4FHvjsKaziE62B32gG2URYK068lF7qGQbxuR3WftAQhK+AACAgJgJUr7BPUpIDd4ZbA+0Vby0fxW/9yD351YsbMR7iXq63wfKDzBes/cDLN6gwPvnqxtDZBac1OidffVjTyag3aBdBftDezSPODfIDQSGG/CgvL//u+287Ji+j/gVNvnr+4rn/exaflyx+b1ic7jcsj54urj1dWPN7t7LsfrdCvFhxTSwyvlVxv1KZIV6p+LxPmSLep/i8TMHfpIwttY/5vkYZ8rxGaWR8gWL0vEAhXp3o/V6d6Ka/xKHI6dxXpP/pyGIrp95trihVsd3nuA9T1l5qcaN3+MLb37l7Q2b5oSv7hXdeAHHG7hby2JCTZRPEzlfY4dqavGTY+YqGKXwFBAAB4RBAbWJQLDCckTk10F5AVMo4z6JznIpZy48qUgqs+NJz7y1EY73u3Kp1I+DJ+YcZp8bCzlfBPkik/Lg1+tHy4yl0L5rvgRgVW0BYpsX/3TybPAhMjmsH+3/8Sb3/M+Z/hc2+4Djwh4JNJ4jhKno8xDMuhmUxbApecKgyktXz62ePW8fzyV4GJl+ROHxh/Ll1qZPEh0vvRnVe3lds7hOrYhJpa8d9ezS20Q9aK4GrF/e5H1n6VSIhazOc+0EDFL4CAoCAoAhEnPzA22gJhRnlByLQEOCIwMyq6eGTOVpkxHgQrWQLCE7geBpkkwcB5EfvlHlzumpzusr+0EJjEv5f2ezzdJtRKohhU3ByTHswRPJZJLdF8lZYs6gy4pX0q29Xb1vzQH6UDaRPrPTgyHCQH7rCw/igBNWp6ZRb3Ts64vrBpwVgHv2gbqdYhO/tcOo5hYsPlHAREAAEREAA5Ed42hmQH3inK2wYMR4aufT/ShJ3nv/iZnmaYpMHZBL8jbPZF8OyGDZJHs/fMl5keJi/ZUCYxBChiiqjfx13fr3ofzF6rkyv3vXPLAf5QRcM4emwgk0lcAcH537IoxSDLXWIDwjwQQDkBx/0uN8buHX275bgCncEEONBHChSA++V9yLGnHWzP1KzCfmSLwKoMnKvv9EcE+QH19JHTIV7pwsxAQFAQMoIoErNtRUIe7zIaKBBfoj34CDGI1/SxsXz3LoBpD02p6uOfNLC5S6IAwiEgEDnsD2Eu5xOJ6qM4tX3SLIcGb2bw2UL3MHB6AeMfgACgAAdAZAf4RGHgVvnSOpQw58XxHhCI0yyuOtq1xiuPcjw9MKKxJ3ProEhGokXEYN7s4sPNqerHqyuMfy23iVUGcPfDsgxRZAfXEsNMZXwdNiQCiAACIiNAKrUXFuBsMeLjAYa5Id4Dw5iPOtRI9n/br638Du14a1i7cHc5lffVd/oHZdylobuLRzIaZKyh+AbIwI/vdi+OV3VPHiP8dfAF1FlFK++R5LlyOjdYPSD/lpXbN4G9gGBCEAA5Ed4ChHkh3ikATGewMQoMn49cL6p4LbZ6XROL6w09E9KOVN/fbZ6c7qqzzonZSfBNxoCFxpM5NhaaCNXqDKKV98jyTLID66liZhKeDpsSAUQAATERgBVaq6tQNjjRUYDDfJDvAcHMR4akYrIr5vTVR1DIc7LDycgWTeNfFhsOF2FtBACld02NMcvtMVFqDKKV98jyXJk9G4w+gGjH4AAIBA0AiA/xBZ4pH2QH+KRBsR4EIuK1MDU/eWQJ+WHE5OWwXuIxcL8q3Aizyct3ejs7g/rUMFtTlfNLj4I1iCqjOLV90iyDPKDa2kiphKeDhtSAQQAAbERQJWaaysQ9niR0UCD/BDvwUGMJ1iqJLv413XW1//YKHG3Hz16RE67QkR2eNohcZ/BvXv3l48VaFCRkYHqvqAXF6HKKF59jyTLkdG7wehH0O99xSZ2YB8QkD4CID/CU0YgP8QjDYjxrEsiaewqtK94KqFZwO/CrdHCeLSQwzSb5NeQreE30izjP4UcptmEYwdxQEJGFb8RN0iG8V9DDiOzqDKKV98jyTLID66liZhKeDpsSAUQAATERgBVaq6tQNjjRUYDDfJDvAcHMR7EgdgCm9NVPCsU7ZRrngZp1mhu+xtP/LDmUkcP9yyw2fe3zN0mGdPfMrI59cBye/juhWbd5nTV3v+6tfU3VYc+rudi398mKT+43BsgDqNZEmrkc4DbA//EZlwMy2LY9Ee4sK37TFmbw2Wzr1qahgcCZ5/8FQcBVUbx6nskWY6M3g1GP2D0AxAABIJGQPry44o+lUsXKPE4V/SpkdRrSioviPHQ6Lv/V8EJHE+DOG/j4u3mdNWdcRP3R53NPk+3HS5igTLNYZrNqn5i6TnpqnbcNLowuq7b/jb9yfG6RvwjMJolnUce+t/F8QqbcTEsi2HTH+G3vmi50KzjmH0yGg4CqoySaiIk6wzID65Fg5hKUI8mRAYEAAHJIoAqNddWIOzx8rr233euz10ki7DDZbvvHM3r2h925KIlQcR4aITY/6vgBI6nQZy3rett75T5v79bGdRzzmafp9tc5Ed+q27rb6r4eyuGqwhq8YyLYVkMm/7y429/X10z0B9ywaHKGC2tD7985na9vuC0BIW2BCMvOC25Xa8HQAJOPQ/6xbAEixlcAgSERUD68qPYcHJsSSNsrsNsbWxJU2w4GaB1hp/4IIAYD6KVbAHBCRxPg2zygPSfZvyztu4ff8JpFhN6vNns0yyj+NwD/pZpNn9d2c5xzhVK1N+mPzlGkbkHGM0yIszdJorJZpyGBorPPeBvWQyb/gi/+qtK8/wIdz9pWhRVRj41Onruvdz3hm1ZGxTaEoxsW9Ze7nsjQKmB/AD5AQgAAnQEpC8/Wsfzm8cvSLDN5e5Ss+1C63h+gNYZfuKDAGI8bKoDXRecwPE06E8xkav+vPDklebfqNu5P3U0XhjAclA2ycj+ntOgePNy039eJZYQcP/42/QHgbs1FJPRLIkGzWd0C/cAm3ExLIthk4awYXro73NquWefjImDgCojnxodPfc2WnLaJz8PFnCpxW+f/LzBkhOg1EB+BNEOSq10wR9AQCQEpC8/Fl3j+bojM2uDIiEgttmZtcF83ZFF13iA1hl+4oMAYjw4w2YMC07geBrEeZu/wzTjr71fdbVHH9TjymafZjkom2Rkf8s0m3/3x1sfN4W+hAChQTMriKthMC6G22LYpMmP4q7et75oCRZk/GFAlZFPjY6ee2fWTJd6U4IFXGrxL/WlzKyZApQayA+QH4AAIEBHQPry48WLFx1TRZVmpdTaXI7+qM2/7pgqCtA0w088EUCMB9FKtoDgBI6nQZy3+ftMM745XTUwM8zxqSOjsdmnWQ7KJptl3ObMqiVeqb551xiUZUZvcbNBWUORGc2SaItnXAzLYtikyY/0q21/rA96LhCOMKqMPCt19NzeZM2rGfkQPa6yC9wa/bDJmhe4vEB+0IkX12JeHbLODXGNHMxYs8A2l41WR6h53EC3IekNRUAW8uPFixe1Y39Qm38trzGQmbXBSrOyduwPgZtm+JUnAojx+DN42hXBCRxPgzhvo7lK44XNIwPbz94Itstgs8/TbcZpXbjNninz5nTV4KwAYgk3G2z2yfhsINAQFta4GG6LYZMGwg//cEulNwQLBY4wqow8K3VU3V5pVt4alaUCqRn5sNKsXLewQH6ESs01GYo9WfoN5YhcmgNzSbIivdQueT+55MUbx1SUeVFljbBMSSk7cpEf5BhIvu5Is+3C2JJGynth3XeOji1pmm0X8nVHYNxj3Z6JfwTEePwZPO2K4ASOp0Gct9FcpfHC/6rTnrh429swcmtD2OzzdHtd+YHvusvdZ0ZvxXAVQS2ecTEsi2GT9pj94EyF/l7QL1vxgkOVkX+9jioLTda8S30p7ZOf25a1Et8La8FpsS1r2yc/v9Sbsu64B1mIcpcfQ+r0GIX7T6nBhYRRW55xPGET8Uvcy3tPZdZN478KEY5W+WG3NJqXhQCQW0/J3Ev5gN+YnaA4UhrcfGJms9ONWt/nxFp1IjYuo4WPq/K8V0by48WLF4uu8dbx/GLDybyu/Vf0qch56QSu6FPzuvYXG062jufDeo/wEAjEeBCtZAsITuB4GsR5m7/PuPGj+Q1ZtV3MrRl7y8NmH7ccrE0yvr9l3GZ+q25bkLvuMkoaGjkWylUENe6zsMbFsCyGTRzhofmR/+8PNSHggD8MqDKGp+5HUioza6YGS87lvjdyu16XTo/m70lu1+uX+95otOQEXu+BF4285Ye9OW0rKT4UCkx+DNWd3U5ejo1/+SUyFHew2CIoafZhwIJaZu82QmgCBB/9aMlOzjNtdH59wB9quZxZ3B/0uxl/MK0VJ9JqfO2MlGZH5TALalzwxgLCgICMEECMB9FKtoDgBI6nQZy3+fuMG9/yy4pgl1KwEXqccfq3jRyv+HuOexvCrrts3uJmOfpGi+bvKoJaPONiWBbDJv4wlPXof1bUREOPy1ccYVQZZdSAgKtiIyBn+eFQndlGiQ9cfuiUO9yXd5xVEZOO5orS4ojvse/4zUEyFWV+pAxxGo8PA95oOs6uWISWH8ayU7skJj8EA78lO54uP9iB5dL+yjcOyA+xW16wLzYCiPEgWskWEJzA8TSI8zZ/n5HxieWxzemqyZWxYNsZNvvIcrAGUXx/y7jNNy83pQe56y7ID4QtGQiMMC0yx6/+NnH58Z6q/XfVnRxN4dFws6gyil3rwb6MEJCv/Biqey9eoVBs3Ub8q8DkR0s2ecXLkuveI6OcKJvzpaqaDOKHw7nm9VmmsS7nxAH3bK6XEo5mNhsd/vJjojT7VJJ7sCXmlaOZLT5pqZSKk+plm7leeXz3y7EKhWLL9uMf+a1eWNWpc07s3UI4FRt/MLsT3yFEpSSWmhi1JSdJNwgLOdX09Q+OxuKzRxPjYxSKmFf2nyzsH/KXH9a+AuVRtw+KTXvTC/SrXkzMJckE/54ozUzZ9Qqh2QgjxSNUhL7c44d3vRIX88ruXYl7iI+y2XesgIRxVVdXokw9vJ0cd3op4UQePjShySDWoqzq1B+Rfio8eHqLQFd4mCg7a19uGmkk7uW96blafAG9D/ie+HjDZ67PpByIeWX30bw+0k+jviorzZM1RWx8krKGQni6VHkseccWxUsJnqwdv+w+0o701uubjUDPY2HTjhSleoICxx1nHQCJOMSDtJcoIDe8u48qq6R4dh7IDxk14uAqIwKI8fgzeNoVnCLjzQj3MM60cOrG3QIek2aNzduqfuP//rAav5FjmM2+4DjQoAhh112QH7Qy9S87MUoNL7j9OXV/0fXR3ODyFXcVVUbGqgoXoxMBucoPz7SrBGXZ5WQ3k0OTr3TFx8gLaXUUayQouJvtKTt9yCIhITjJD03hsU2J7xV4FgYs68re2ZV2Nm0rvvR8JPfIloPZGh25yNtclbYj7qTay5gJ+ZF38eiBD4o8RhyNxW9tVyTji9eJVI7kqDwrKyaKziTEYC/jCQvKD5LPlFR7IkxX5x2LiT2r8jYEDpUyYdNxZIGIkKw8exRfem7XZOxISCvuJ2m3UZt/MBbzwVySfOBsxvGUTLUnwhCREUVyoXfeGgPX9zpAAr6syv6ooGXEo0ysncq9Ckz4EYQ+Ky8lWVnVaHUrH3t/QWqCYu9FxMKJJDIvZhx4K6vO4jaybKzLToqNS1OjNSeB5MdQ3Qe7XtqfUdZvJMvCPlJNrejQFH+UpaauO0YKUrfFZ/d5H4m6swoMcPd1X/lhrT+5I+FEoY60PGTVZR3fsukMpsHWA5CYFugtYpfNPtGo7kQZ93pCh5R6ksN2HeRHdPYHkZRrxHho9N3/q+AEjqdBnLcF8PY36o7TJUGfxsBG6HHGGXI74+85gmJ2zRqvVFcHuesum7fIrICuIqjFMy6GZTFs4g/D5nRVl80UAs74w4AqYyS1MJAXngiERX5MlyqTNymId+1FwmwV5Zl2FX+m2f12360tqLUf1ZmeGVkZSH44mtPcUfwWKHOTH/b6tNjDWXrEfQkuqCs8rMB2vjKWndqUWk69SneTxZaP4rfmNFKVVqVUKGJPFfgOVmjykr1811px4iVaBJ1y619naj3Uk7Bw4ONGnz2sTFmJijQ1NXyhv5i0Nb3UJ4lllXKbApMf1ZkJSZk6fMjCWJyiSK3weE7otG0ny3yWXw+p0+naIMjJV4SF1CoqUQLzGBpWDlPWXvfokBsuN7bJyhaveLM5XMQeA4n5FFMPID90yq0JGXU+97LSen3+rh0fozKyrSM/lkvPxCVn4yM5LpvDp4xs6wGoUipOlHHzjXpyWJ0XNQLID54NK9y+4QggxoNoJVtAcALH0yDO2/x9RsZfz6n9pDmULTfY7CPLIbct/paRTc+uu3PB7boL8oNWFgEQpsXk/tXfJpIfIwsjuz64yd0UHhM3iyrjhjcL4IB0EAiD/CAILvrDXnKHzKs8065i3fvJUiMbaPSDoOnEHz6lipQZCsWBEp1HOSCHfAOUhsF9I9jzcV9p4XDZ9JeTvfLDkntgWxqd8nZmYAMLhFdeCk69zNbn71K8U+qusbrCw4Sawmuvw1WtjEuiuL5KqUBh5J5KqUBzzDR5e3b5SgsiGjHxDG28q8mIPZxLU4Dm0oOUDwR7JlHF3SAQRhYI3YVSRG6sEzCXJPsoBwYKrsnbozhTT9oh5EcipgpIZ+w1J72DRazygyisA+S8KQpkPC/0sO/gRmD5QTjwM5qAtDlcmrw9L2fqPAisB6Amb088ikx3hovD4YoD8kM6bTR4EhoCiPH4M3jaFUSRQ66SONNC1E0oa2zebk5XNY8MhJAKzVtkX3AccChC23UX5AetfP3LToxSQwWnNhp/8pn3DR3NmcBfcVdRZQytLsNdEYlAGOQHpQdIoo9PFgqJS3mmXcWdIF/Siy8/CFqf3e/HsHEG3JzGQEwtuQe8b/RxnYCZak6jKLXqjOJosc+wg2eMhZoO5Fk94lvhMbPLpWkMtN79Pp4SD/rLyYnZ1T7jJy4bvojFRydQpSO8/MAnrVGp1L2HxlgI+UHlGsNqJPcAGurBwfdRRMwazBc0zGYw8qMlO95fFJECzy1rCbPrAmjXZCTGbTrwUZF2miY1Ma8oTFjdFj8CyI+IbO6jKlOI8SB6zRYQnMDxNIjzNn+fSeMDs8Mhp8JmP2SDqKXyt4xshrbrLsgPhC0ZCIAwLSb3r/42kfz47Y2OX1e2czeFx8TNosoYVU0QZDYwAmGQH4KOfnimXcWgcx785AfxHp34w49roCZfIZroqSScJl9hFB+nfRgDRj74DqUoFOvKD2SE0CrMfxQRX09++KgdL5fFxUPdWeYk0DDOuuzZPXa0/uiHWZObeSo5cX/SXvcK9cR4tnlTXj/rziqoERIW+YFnEOFGlAg+IMNSWFTBWU1FeelHE/ck7d3vXmKesAkb2Fln8hXmoddtQn54PV9ffhAP3rKuriTjSHxMbPzBzPpQ5k7gTbxIYZAfgdtN+FX6CCDG48/gaVcQRQ65NuFMC1E3oawxevvFnb7kP9WGlgTNW2RfcBxwKH5d2f6PH9eH4DCjt2K4KioOpHEx3BbDJiq4H39Sf6mjJ4RSo+lGVBml326Ah2FDIAzyw+YQcO0HNY2KmUcTE66MZafIH71rP5A8oM+t4iQ/qpVxTIQbY8DE/CVqhIGlojLTYu98nomCI16t4sNuKYPryQ8WC7j8aPkAkwEUI6fsE4kKIT+I1dU70Kpxdyo+ZjHcsKTxGW4s8sOUlbhH2UKuwPExgsuP6sxt2xmGqtxu6EsOkkvSvekGOfqBLxRBRureIyf1cQTQW7jW/oIzu2P2ogUtTCWCUglzAORH2JpgSEgkBBDjQbSSLSA4geNpkJFwI+dJ429/2ZpR1hZas8Bmn6fbNMZJI9yh7brLaBOR49CyT97FBoKoxkVFOGQ0GKEgXd3yy4rQJvjRCg5VRpEqO5iVIwJhkR8C8qr15YeNWFBB/Hk1Q91Zcp9TbP8l0iVO8oPYSst/2QYhOdAkIp1y6/9Ca8S9/BJrDljXflCzoQLxZred9eQHsVCEgXm3fBCDpJG14oTirSL65CusdHx0AnUdFzC+Qw1MOTVlJfotg9Hn76JGNtxzvRgmieGTpgj54U/0vVLNd8KYr0uE+PRfqEMASExOSy5Emwi7c0fYxHRjqGs/vEtuOADoC9p0wXGFVydjD4xvNKoswhYB5IccW3PwGUcAMR5E3NkCgpNCngYZ6SBynjT+t7+vLuoU4LU0MisS7UZQ/N0fbwm4UB6ZDblJDACyeMbFsCyGTfJhGHOM/s/3byyE2vvgCKPKiNdQCEc5AnKTH341gWFkg9hGifijHTuoSPFbN8zt2EEiCfqaY4Iie+WHqzpzWwx9aMXHVfcCGJoRYluq7cpOzxqAlo/ifXbR9bnd5nCtKz9sdWdjtmb7bgNP2/mKILv4Lrp0jsuBPeuKj3lXWjM0/Z0ZsXQlVp2ZgCZWkfKDrhDsmoytCRmekQ1yV7G/Vrb4IKArPOydcYevV/GVHzZim7I9TFKQGB2i7TplLDvl1WYOl63lgxi6dMGHR4idr7yalsw7sRIpOVNL7YrGAUBfzJdL0/ANhX2y7BszvD+B/IjyjiECso8YD86wGcOCEzieBnHe5u8waXxzuqrvnpmhBebQULDZ5+k27YU36Tlpc/6Re9fdgf4QHGb0VgxXEdTiGRfDshg2SflRa+r/8SehzJcjSxkvOFQZI6BhgSwIhUAkyg+XrSV7u1uAKGLjXyYPv1PEHaS9+Q6iHVyuViYo9marrCTLXNapPzh6Jl95AI1+uGzEkuItu85UaeyebXCHrCMqtQ5txauYTwA8AAAgAElEQVRSKpLPnD14ABlxn9qx4x1sn1yHSrl7U+J7RXpqY1b7nKauBh0suL78cFgKjsTFpJZSPkxXF/7iZN7HJ/AX/PrSoy9tOZrnObnC5lgdMvcX1Zk8TJcLe9ZfTPLfHcsLJsHRY1JLqSUNbh+ys4/6jH4cTFMeS87UeM7lsOqyjsRtP4NOAHTLj9SzGYmnCjxQEAetbI89luU9eZB18hWxFVVxyqbYY1ktnnX8REG0EOeWENsc782m8CQLMSctERv9IKQLdgoKkSlcfrhsxLkfcSeKPUeaEOd+HNnis5HxOgBOFBWWN5qp8nW48+URyRxIgxdk8SOD/BCqhQU7G4UAYjyIVrIFBCdwPA3ivM3fZ/Ichld/VRlyg8Bmn6fbAeSHZ9fd2aB33WW0KdJADYJaDBxI42JYFsMmiXBWbVfIE/xoBYcq40a1BpCuBBGITPnhcA1pyzOOuw8pV8S9nOh3OnXQDbfPaeInsqs0dksuLj8Ig8Sp58TJ2e4zy3cdOKUs9JEfu/JMXq9eSjiqLFGZqSM7PP64Tz33HGoe93Li4ROZJRRd5jD6QRiZVlE+bNqRklHY6T6dHWPYDhd+bjdxyPfx9Cw1ebofp7UfNoejOps8ND3uZcZTz+393lPVd6RkFPcRPvjIjz1ZejeebqzcfmoouUIQa8/aD2tzZup+4nT22Pik1JwiPX6KfCD5QZwsTpQ+ebo8UfoZZSb3EBMBDnUs/f4T2fU6hyX3gA84mrJ0MsImz+69vvLDB70t2w+cyiwzIYVJSLh15MeypuyjE57yVSheSkhOu+j3DIgvLbg8/CA/JNhYg0tBIYAYD6KVbAHBCRxPg2zyAFHY/Fbd4QsNXCoyYxw2+zzdpjFO5K3DZQt5111GmyA/8CdZjFIjEf7XzxovtOBdc3AD8vhjhipjUFUYIkc2ArKXH4zNq/QuMi89l56fwbUvofjvoxwYk2NZei4NXh5KlmXoOciPyG73oyF3iPHgXI0xLDiB42kQ523+Dm9OV/2sqOmsuiPktojNPk+3GaUCaTPkXXcZbYL8wJ8KMUqNRPiv3lPfGgxlvhz5ZOKPGaqM0dDyQB45IgDyg5EBC34R5AcFKcgPOagRkB8cG1CIJlkEEOPBuRpjWHACx9Mgztv8Hd6crtr6m6ryXr2M5EfIu+6C/KCVsv+zwfNhC4Dw//iV2v7QQnOA+1fcVVQZJdtcgGPhRwDkB0WLxSWFID8onEF+iPukUTjzSwXkR/jbYkhRWAQQ4/Fn8LQrm9NV/D+4TWGt4ZbJ19Ii2edvFmecpNti2BQVBFGNi4GGGDYFBwFVRmHrOFiTNQIgP4Sha+u9EgD5QeEM8oOfMFjvSaNw5pcKyA9ZN+vg/IsXLxDjodF3uX9tM0//zbkaeeUi+b8aC5vMYvi88nBtc7pqzL4ohvFotvlpo+kXX9wRCgFUGaFpAgQQAiA/hKFr65FCo7a+VOvZiyk8KUo1lelGdX2jNRA5HjJ3lrZQq+HXA1aq2QyUQRn4DPIDNZEQkCkCiPHwpFDZNf2ziw94GhHw9pzagZ9+3iGgQbFNPXrk/H/fu3H77pQYCf3yy+7N6aqLzUNiGI9mmycvd35cPygUAqgyyrQxAbfFQADkhwy4IFBwQCDMCID8EKO1BZvhRAAxHp4UqvHu1OZ01c+vdDUP3ONpSpDb/+XT1vO1A4KYCo+Rwcn7Ig1QfNk1Rk49Ol6gCU9eoieVvz5bXaOfECq/qDKGswWAtCSOAMgPkB+AACBARwDkh8QbbnBvXQQQ4+FJoR6srv3Vr6pImpv8X40XGkymqQWeNvnc/t8yKloGJSGEOOaizji5OV31iGNsztE6h+34socZxwrnWyHiOgjMLz38bxkVAg76ocq4brWFCNGDAMgPOvEK82tmSA4QkCACID+ipw+I1JwixrMO1eLw80/y23Cm+8r/Vf+8WGveCBEyOb9MUHnBuTwHEEKOcqll6H/+5mbItzPeeO/+8onPNHihfNExyhgTLoaAQNfIzJ4/NIRwI9stqDJGamsD+QoBAZAfID8AAUCAjgDIjxAaU7hFUgggxsNGibhf/9OtuzjTPfJJC/d7hY1Z3TeOexJymNGrkK3hN/pbPlehP/KxwIjhKYYc9neVvBKyQfxGRuN4hJDDNMsh28FvpNm83Dp8qqiTdpHPV1QZJdVEgDMbiwDIDzrxkuCraHAJEAgzAiA/NrZdhtT5I4AYDx/aRN6Lz/P55Zfd6xrEiV1oYbYkzlXoRTrngdxrlWc7E86Nd28P3y1oI9ad7z9f9zfnbmxOV82uWbn77+8qwlx2CHPPNWNMfyj+o0T7h+p+BAj/AKqM/Os1WIgYBEB+gPwABAABOgIgPyKmiY/ajCDGw588OZ1OcvkHyf7/eOtuYJs8+as/HUTJ/f0fb/M0znbMnHjy4+/+eOuTZh0j8eVykRENEoSh+yOb01XNIwMOl63fPnS1J4ijGBnNkjjLDmEuMAaI4w/F3/6uVqWzoqeOfwBVxqhtjiDj/giA/KATrwC1FH4CBKIEAZAf/m0lXJEXAojx8CdPTqfzpxfbr7SNOJ1OciF14JUGPPmrPx1EWSDHUni2Qmz2ebrNKGw2p6vileqagf6QfWb0lnS1wmDYnK6aDulkbkazJM5i4CCeZcG9daw83JyumphfRk8d/wCqjPJqQ8BbUREA+RE++WGfM9pXRUyOsC/b4yZk7XzIPatkbwT5IWqzC8bDgABiPPzJk9PprOj2vgy+3Dq8OV3VyH6QBU9GyMaMBybvv+Q+oJ1nu8Fmn6fbbPJjc7qq3z4Uss+M3pKu/q66M/49dWiWGc2KJxLEsyx4qelGZ/7X72oFqTXICKqMYaj4kIRcEAD5IaIe8G0WdYWHFWk1obfCvtb83Zb1werrO2/VZGVWaNYDwR8WuBIKAiA/5NKCg59sCCDGgziQgIEP1Ib/553KgYn7jDZ5MkI2Zvxl59g/5Mhv8tXmdNX9R0GsyqA18oxokAj/5LPGH39ST4vP8SujWbI0eRYfowwTz7Lg3v6lYzTlM4HPUUGVka22wvUoREDu8mNInR6jcP8pNYFolrWvQJmy65U4ImpsfFLqRwXaOSr+qq6uRJl62POrQrFpx+ET2VUaaiRBpSQTYPz3rIpjY+dwBSc/7JZG8zLlIacxjfUZPGdXg0qXKfJ0Y5BHvK/vvLkkWZFeShUKU6KcUIIbOSEA8iMKO4MIyzJiPIwKgf/F01e6/vfva+8vP/Q3xZMRsjHj9FLdr8p7eRoPPzl+7f0qPl0PIxokCNt+U/UrVYjvpBjNiicSxLMs+PPwyy+7f1uh93+q+VxBlTHCGhnIDh8E5C0/7M1pWylVEEB+mEsPxpLR4l5OTNjkuSMho85BUDHMyKYde7a/RBnccVblJrsbIz9aspPzTJyYItWyr8/gqZhBmQ0lsrXiRJDjPOs7D/IjbMXncNlAfvBpVeFeKSCAGA8f2hT43h+db2LchJcnI2Rjxn/7u9oyrYWn8fDLj5AHKMgWjxENEoTN6aornb2hNYyMZsnilh3CoSGA7qJBsSerobRT4ENUUGWUQssAPkgEATnLD4fqzDZKKygU7PKjOpOMlpypdS+9sNZ7RMuRUnI7jqG6nJPZ9TrPm/XVxuxk0uzB4glm8q2/mETGOF5uRHV4vUBQox/GslO75Cs/WrLjQX6s9zwwP1oSuQvkh0QaaHAjZAQQ4wksIXj++jdnq9NKtDQjPPkrjQ6SxlfXHm1OV43PLfE0Hn75caasjU+zxojG5nTV4CyxAqfTZgrNOKNZEmrZIRwaAuguHIqlB6ub01Uj0w7aI83zK6qMIVdnuDHyEJCv/Biqey9eoVBs3Ub8qwgkP6jhi/eoiVKW3APuW/ZeZB631efvcv+exCIAKD0Tl6Zmnx9l76eme8W9vDc9V+ugyQ+jviorDZsPpqyhlExf7nFiJljMK7t3Je4hPspmcsUI+y3EvCPPAIK5Xnl898uxxByzXcc/UlnxKUmeaWaeEZ6XEk7k9eNrUYx1OSf2xpOT2WJe2X1UWYXjY9SWZxwhf92SlFaO/4Qx6elS5bHkHVsULyV4nD9+mYzJ13n/0Q9iQt1RIqcKxaa96QV6fFm/o7H47NEdW9zFSM6m66TgxQGBMAsCID8ir62PthwhxsOTOQW+nTyG/HdqAx6NJ3/F6SAy2zU881e/qhJpe1wyFZ5uMwqbzemqCzx23WW0SYJwrY/XESiMIIuHg3iWhS21Hsvs9ver0VMnVABVxmhrhSC/ARCQq/zwzJhKUJZd9gxVsI9+ELyf+ItLyiQ4qFH9znb395gz9Tj59nLourMkBT9RhtaHYCzNXp9GTuXa+lE1en9AC9g1GTu2HM3WeEZUrLqsI/8/e9//18SR/59/AvnF0BZrv9DTKy306BWlb7jj6lHag5Z6indXPO4qV68hIBoVBRUaFcEvUPxCQUsFXQgQMHyNRL6FLxGQL4IkooKiBhHR8Ad8PrfZ7GSy2Ww2m01IYPbhQ2d3Z17zmmcy4/OZmddMtFiyDQ49VxVnZcsGyL2qxgoS1gdI+4AP6sIY69kP5iK4/EhKjduag2mMi8r0c+qy1MBVWwpGgPNzmDSrQDlmarW2XRIhAG0cVaQHxuZgIOBkerJR1g40Bv42KLXAFNEx05i3xSciH7wFbpsSinS4pcRDZ52nyA8c4eCk4gFCVPR35keviszWmFqqLowJTC5v1JoEyah2DJNZCC2qw5SPD90i+cEwaKJXXoEAYDx8UShbdjrHHgpF2LmWUZDBSUZIy4x/ah6JO3PdG+WHM7vuMsiPg9VtgenVnMdqWpCJT9DJj8+Wzy767Pj19nLHna9O4V8zfi/QGb1i6EBOugcBt8iPqVJJ5GrjT9RFJEF0jv+Zll0FJLeM4qzUeNmWHzr9WG6sMehcIPBZZUoIyNAOS08WRjX14gg8j09sCS297i/eRlRoa25Ep19U5UUGJIHZDCMnnlaJ1wmsSbm5dk1+SNDJRnIwpZUf5sxENssi+CTPqsQCi+kO3BNBcgu1IFnLqEwkSKgi1AgmEcSXEboFyBWQUEuCIiVK+O1UwVazdKHap5Mf1DyOOm8pP+QZwWEZalg94p9LQoVRjUzkRoVndALnUcJxBJD8cM/4i2pxHQKA8fBLpGitYWqtUITV9N0l3jrJCGmZccL5tsNV/S6isLy4bU27b0/phSLs5hQ8UFP/IyD/M7L5nBYNoQj7Or9h80/gf0ybxW3ZpzXrIhzAd8bJL4Y1wrx/H/Zd7Usr6wEO85UAndF1/R1Z9joE3CA/AF/HWbut9U62xgi656ZlV6uM+yCxkh+LOv1AduxbhGzA/461WnalSDe/9YsRF9paqzOcHUFk3EYh+tDwN5wdGi5RUtdlYcmM8kOvEkM7O7GSH5ZFcPlBagmzM5oLkQLb23ONlESGmiYxVHnhARlqc0EYeUW6T5RpDRXIoC7eIkiuB7cWCTbyw1HnLeSHSrwqJpciZUdKowWppbjbc6VJgrjiKQuX4OagtF0EkPzwuqEcOUxBADAevigUs52T9UNCEdZ955HzjJCWGf9GUl0/cM9547QUlmga7+SYOKJx5iX3XXdteSsUYe9JZAeq2hiGsiO17Y9tb/hLC7KLcADfHN4R5v37sOl4U9H128BhvhKgM1I6KbpdyQi4QX6QoRcEa7dNhRnGEfiVadmVb3yZkV+ykh9jRUkbTfvzkiJj9dazjfAurrD8EAgEfpHxeXQKRJlFhJrYXLiFb6VVu12wowg2bvSfEvthRY55kB/W67V0+pYkQUyuef2V5Q/hkPzQTavEob6ro7KKOqk/VqkKo0Mspxpw5xXpAlK6UNvCSX7YcR6WH5oLkaFSORVhlVgQblp/pSmN8/MNSTpLrkOzbDX8dUJpWgSQ/FjJ/yssj7YDxsMXhbJrJ62s58N0+dTT506yTGtmPK3Hbc69eMk73YQb5aTb1lLhvHKUd5uEw8Tp779299EOX8TD8l48OORIbTvt9Is1yAAKF/nsos+OR2+fL7wUirBBG6fZAHw4JEBnXB5jC2oFLwi4QX7wOvthWnblQ25apbMvP+bkkmBCdAQmlMg16uytpohksxFoCBvVjhUlk/mpswFzpcnE2q31EqVtRgsTZcgyVX5oh4vyRHGh4WERm4xR2sGr7c5+MBaxsXctRMr1i7oRVW5GYmToprAIY1B7aICPhYSYUytK8PjyVQHRGfXEtmBEUDup2iz/tSgLAUIrP5x0HkaVohXNTpHyA4d9qrEsJz7CX+AXub2wD8WdUyUi9M2keYXkBy/DKzKyhAgAxsOBLXEusu0n1Z+PO3syoDUzru+/F3ywlvCKR7pJaSbvlg9UOBUdToxR1mgQPF4ownrvjzCMY6NPxl5LxgihknpFVTc0AGemNet1CPMrafq0M8T2BpQvhvO3oDMu4YCAqvY0BNwgP3R6HmM/VGIz17RO0f3Mj89FGC/zJrlgx14bKgIUWSe1CC7XlscRppiXkOGrgGgOyLOQH5qSaL9N4jJT5LSR/9mb/bBXxIb8MM9+GMPHd2QrJswrceHZD3ho1g4UJG8EweVyiS/d1ASkN+CyxMQIZeNdp5036kwSVWWmpWqy7Yl+cXRElbHV34fiD8VhdEtBAMkPTxupkT+OIgAYj/PkySEL4T82OMnjrZnx0drBhPNthBtOGreeowCt493y9vPtvNsEILCxHC6tI+QH8feWwqbzN3omZscZQOCX0ANsgduUkdbRW+vvBhscmGsBNss7J6Jymik+83ILOqOjvRjlX8YIuEV+MLFDml9embqK4/KDnB6JLBwz10X+fC5W0PmmrYgnZIal/MDDuI2XvbiCdvGqj61Dn+USXzL0HA9OsPDHtGSLpNfGI9ItGb/9IjZiP/JD1hHnJw5nh65PIk5aBAhr8kNszWDo8eByAp/+skSaqBJgxDpBnf1w3vlFC/mBf0A0y9vMny/VJbVkHZ00pWaj+zKszDxIfizjQX+FNA0wHl74E3sjT+ZeCEXYriu0O5fYHqOgwQfQQVDp16evn6ofIm55pJvAvossRx5tdJG3QhEWcqjG7uD87xIlLD+2nWsitAeSHzB04Pt2qOrmfy91Ub4VvNyCzrhCBh/UTDYIeJv8gMZoov+Q6gI6dnDMdKxHVIlx+ZBaQpyMHiGVm3aFmik1nVeIh4+rC7dFZlSBTVqNczWmxVeWodikHYb9dskujUl8Lcsu4pEV5p2vJgtiqdtM9Zcl+kBzJuriLWssln7ZL2KMsTELGOL/OXnG+kBJu3G6g0YUyTOCbcZv4AHc5MEm+LSPI/Rdmeljnmta1Omdd95SfhilUWThBKv/y/EPZTg71LwtL+tSVl828vNd/haQ/GAzeqI8nowAYDy88CeHjBCU93hDJ7cRA9BBUKlfMqY2BrV712/z7+2pdp38+Pv5ZrvwnlV1A/mRekUFR6JbgwzQdpHPLvrsePQ25qQyv2kE4MBjAnRGTx4xkG9uRmA5yg9yhoRkwOribauJaQuB75rQYJCONs6HkKeCCIwn5ZkO3cM33g3NxKDgZhDBwrDfrpmVjpRGr/KNLwYnbKhzk3ZmS3eQsx/G/XDNcmhOLcuMS85JCoXEg+ZsGLG1FznC4nMvjEUwiSAuOTUkNl9uOu9iSl64IzAotdQkuvDAFZ8E00HvOv2UvHDndqk0zjT7MVlUWN44ArbWNZ4ZAu1NrCrettpvW7YSRKXr1Z1VGGXvKdJVHX40igXdd9p5ivxY1OHB5f5xeWry4JSF0ZGBIsWw8SNoL5CqVFqw89iUPG/LahvbKJs/MuA8SugXdUh+uHkgRtXxjgBgPDyyKJamhCKs9taAUIRd6mKKjbY11FCYMbF9LaiaR7oJbBIJfi2PT+O77vJrEzgsFGFZdR22AATPe++PED4QOqQaWu1MARlYdpFIcAXC/NpcePnqDXFFzwS+dRvvF+iMvHdzZNB7EViG8gMPvcAveIkUfmL31nDTad/4ceDpBZ3kkYLadmM0NpAl/oGh28SFKhB4bWSobPbbtfyxXNuSkRBjrNE/cGt6rnIK3yrKHIEwhUkTw/xwP33WboqX1qv1E7lRkPzQ6+VS4khv3zWmU8/tFMEk68UKvbGleFuMx5aXYCPQWeD4QezkMeFB28TFff16ldgkP+ZUZVnxUSQIfsGRSWctyuoXjZaN56kLBKuDwuOSzpaCMwrBcE8mVGUionWrTTv2Ou08HHpO1IKfek4eG+8XHLJVlC0jwlqmMDymHzq+PaNKZXkcClIddhBA8sN7x3TkOYEAYDy8cym7BgnOfe5Gj1CENYwOkqOinU4HslGY8ZWuiU+z60GlLiL0vNPu+oF7LpUfFZqbADGGxMasWsUwHnS+G1P9Zm9V3wNTtDoFZAAv7zi42jJf34d+3ePXxRWwtzymQWdEoxNCACDg9fLDetxR7DGqj8QixDitwUFPEAJsEEDyAwyRKOGlCADGwyOLYmkKMMLMmvZ398iGHt1m0+lAHgoz3o/17YRW5APjIL+jCYp90Ch+LZ9Xjgbul/Nrk3B1+P5ToQgbmmGFart2GOATl9/wp+PXiHNIbIGwYuUHptaG/9gAvgz8JkBn9NLBBLntCgSWn/xQ5YXjUwrJ9eb9ncDogxIIAYQAGwSQ/HDFaItsuhMBwHj4JVJsrMGc+7uLyrDsWjadDuShMOPIo42XboyDemHjoIhDCYp9F1k+UKH56hQe+e2Qb9aZrb290jXB2WzQwZrtP7eg0HMYZwLh7JqBxKJ28GXgNwE6oztHAFSXhyOw7OTHglpZXyqrb0RTH/D4gtIIAYcQQPLDwwdu5J5dBADj4ZdIsbFGIcdfnKyPK2hk3wEphFsowsam9KBeinH2ZkFOin0XWd5+vj2tDF9+BurllrD2Nh3r42x2XD8uFGEHqtuszboIB2DWRfMqnKEAHwcBxZYC1QnFLdhbHtOgM9rttijDykFg2ckPywAM0MFQAiGAEGCPAJIfK+f/gOXaUsB4eGRRLE1RGOETg/ajjJrvS6+z7IAwM+658+i1ZIsV+RTjLG3C2WD7cIv4tRx5tPFsi0tOPf/LSacmVepHBomgFLjtcJpfHFxtmRdvX70yvLu7qm10GvaWxzTojMt1tEHt4oAAkh9swwHh4RulEQLLGwEkPzgMpqiIRyEAGA+PLIqlKWtGODRzWyjCDsnb2YwbsDy4cP325ycsToKzNs7GJpwHtg+3iF/L7+2pJqLP4ao5pK29XbtL5qSrP7XiG/Iqhx7AzQdpJ40zrOxyhWVebA5OPrHGGQDifAJ0Ro8aIpAzS4sAkh9IfiAEEAJUBJD8WNpxGdXuPAKA8ThPnhy1QMsIleO3hCLsrKrHLgWHieB/L6n3Xe2DHSB+uXfyb9ggSDtpE55SmHg4i0eH38NJrd32MmeA0SBc5cVPoQj7IF1+5+EsaD5I8GIfWCMS9x7P1d2cdIVlXmxWdut+f+gaxWceb0FndL5fIwvLBgEkP6jEi3koRG8RAisBASQ/ls0Qv2IbAhgPjyyKpSnnGSGoKCSzTt53F9x6S6Jx8L5QhD2bX3AeCor8GLj7WCjCHuqfOw9F3JnrX+a1cLAjrR1gU2pw8snljjt7r/Z9fqKZwGF+4SWbgo7m0T9/0X/3ca1m8qfmEThMiL2do7WD2wpvsM/vaE7QGVfscIQabo0Akh9IfiAEEAJUBJD8sB4r0RPvQgAwHkepkkvzFzSNvJFS8Y9zeOgz/OeDdPmLhVeUqp/MvRCKsMfPXlCeu+22tP0Ot7qIXXfhss/mF/p1j+En3NKXO+7weDzFh+ny7y92OerJ38/eOK8cZSj1Sxse4E75849zbQxFHH2172rf38/eiPix4e20KlDRheu3HbVD5E8435Zdw0pTcbMPOqN3jSHIW5cigOQHlXithN+2URsRAswIIPnh0mEXGXcDAoDxcCNMriu172rf7zLqPj/RAlijUITR/qDefOvBe3uqXecJg+XW4anYU8qUX7sZ8jC8Mu66e53IML/wsrB59Lf7an7lKmbgiiRXej871gQ/cSZ9d+aZUIQdrR10yEjQgVqhCLvSNcFQKrsGP/Ye/tM1/pAhv6OvavruwsaFIuwfZ7nLm8D98uZb9x31gX1+0Bnd0PFRFd6CAJIfSH4gBBACVASQ/PCWERz5aQsBwHjYkyS35fz2XFvk0cb3jafyEUEIf5Q2nlOOPn9hsTgnV3Frc36r27wiKrrzcPa/l7oIavsj11/EiV13F16++qVt/KODdYS17juPnG9LdG5zcqnaeTvAgnLogVCEXe5gO8/z+Bk+JUX8kWuY1sUR+w4TOf+n5UCNfCV2FHcCT4QiTDUyxc0yEaLz3DULwwiXQGe01VvR8xWIAJIfVOLF/KsweosQWAkIIPmxAv8zWGZNBoyHGydzdanIo41f5JomQKS1A5dujH+Z1xJ6WHGqfujR7DxR+7fn2o7XOfbDvJNuS2stfrNnT8op9UYebRSVqjdmKWB+rH++QMnG4dY/pfJsC9PCJw42zynxDYLbb7Padrb99jRo1Du7q1pu0W+flSm7KRRhu4wnnwhF2M+tHJdF2WrOiWv4Tgbgz5Hqfls57T6v6tV9kC63m82ZDKAzLrNBBjXHGQSQ/EDyAyGAEKAigOSHM6MqKusJCADG4wxtcl3ZR7Pzv5FUf5mHK5B7j+eIiq52af+a3xp0oFYqH7g78yxgT7XrjmKgNK20/U5IhmmaApDa8WnzcYeU/My37+yuIrbHBaZ+l1HHXITN25evXglFmCswSSvrCcmsAx8EgzM/t46BRglF2MeZdZ1jFquqJmee/fvnjvf31TQM3Hux8Co6t4XfqY8bo9Nf5LYE7pefbRklRM7vD117qDdJVgbPbb06Xjf49WnTSjlbeZx8DjqjJ4wMyAcPQQDJDyrxWgm/bbNt48KodmaUbT3/Z9cAACAASURBVGZ04OMyQgDJDw8ZoJEbnBEAjMdJ5uS64v3GTZz+nEONZJD33f32XNu7e/CQ4pH7T13nAMXywN3H8T+pYG5NycDyVvcID6houfUgmtzxSSjC4n9SsSzOkK13YobYUIshD+dXX51SxrFg4Xuu9MIQvb9f/p+LXQN3TVH1Hbcffn6iOTq35TZ5UP39x3PnlbxNfRyu6heKsKSSzqF7TwwGw4uXr/50rJHzJBWB1XfFHQcrNZxxY1MQdEbO3RkVXH4IIPmxcuRHv/JsfESAj0DgszZcolhg0XCVWBCerVlGrBpJKZYIIPmx/Mb6ldYiwHjY0KOlytMwcE8owmhDCLJrBt7aJVuTUrm7vFejnXGPh0RA82/31QhF2Pq9Ndwqbb6FR1Pony8crR1ct7eaIOu8ENxLbePvpFVx88puqVcGw/v75WJ70fZfncLPXP/mTKtQhNX333vx0rxf2dUu7Qd0W2lNPeVhm+D6gXt/kDZ+cvgaZTuyWs2k3aYxZwjJrKu76awR5ipAZ1xpoxBqLwMC3i4/RmUiH4Hxkqjs8ekZVVlOfNTGNauIAoLIwgmiiLowxvSI/Mdn7cbIhKxcxaQ9m95DzbXlcau2ZHfOGFukZzen4Zj86O8c6GfJblE2D0cAyQ+GQRO98goEAONhJkZL/vbSDXyTVutNaTNlNxOL2ttGp5NL1a+LK374Rc0yOIFzix7p58N/bNhV1jNy/+lXp65/c4bjgpzzytEP0uWECOkaf9g2Ov1BuvzijXHOjoGCaWU93E7qABaYE2NTeqEIy1MM2co2/fT5la6JJ3P4VshhWfX5TSMgZ179kFCEHXNBrM7s8wWJccplV1mPbuYZqJGXxOiDp27Y3Bl0Rq8YOpCT7kHAu+XHdEvSOlIxMMuPabUkwpfM6rsmNDxkrS+D/CBzCgIl7eyYuqfrkP6yREFClYNtcUh+zBQliEqnPR2H5aMnXSpgkPxwz/iLanEdAoDx8MLSXGrkWO3gb/fVPDWSWlBR7EklOMahb2JGcqX3nd1V/yrqcN0GqbvLe8Oy6glubTAYaPcCBu4xJA5UaL7Ma1m/t0YqNx0l8Wh2XvuI5nxxBiO0r/58vGlPeS/tK74eNhkPTKzo1to1uLu8d0sBvqLs2fzCrrIev2Q7W/HaNUibQdaj++TQtcijjVU9OtoMTj6U9919d7erJpSAb6Azuq6/I8teh4A3yw89lrwe6AQBk/yYKIg1ao+gHbnKKWsCCmY/xAqCPS/0K/OjTZMkiUXa5UCp8TYm1bpSfqgl65D8WA5fFbyDIPnhdUM5cpiCAGA8gAN5ckL0i/pPxxphD4UijFjfDx4O33+aKbv5/n753wpv8H4UekW3VijCnF/JYzAYEs63f5heG5XT/PKVeWESaIUzCb9k7OKNMWcssClb2Dzin1LZY2+b4Kpe3WvJFTfvPt76k2pjlkI9zsO2wrB7D548/+EXtVCEZVTedN3Rk7mKW1E5zXC9rkiDzkjppOh2JSPgvfJjVLEnQCAQrFuP/y0QMMiPUVmqcYFWpK0wBiv5gZNILJmw6ytW0nNKdWFMSN6wTtsi2Rq8Gs+7o8j02/+CWpYTH2V8uCogLKmk0SRgJnKjBKTCIWzOFCVQPZdnrA/LGyaWSDUWp8cF+RN+rA6KiZe2217dZKvSRV3nhbitW8LW+gr8gkNCw0NCMzEbcxT9CtJtv+C4jJZ+PWX2YxIrzDK1SyBYHZSY3akntFy/LDMab69/IG4/PCR0Wy4RMaIdLsoTxYXiAScCge+aiPTSZaHlrBXscnuC5MdK/l9hebQdMB5X0ClX2Iw7ff3vZ28Qlvt1j4UijLYW7aNnx2oHQzLrvj59/WqX/R/paY1QHt57PLfhiCId66M853b74YHaNamVukc8LxOae/FSKML63BIGk3q5e+MRBdgBmRaHmdl5/5SKjw7WbSu8wZyTtjjzw9L2O7/dVxNzUtk46MLTAP83dfOfks49V1w7oWQwGEBnXB5jC2oFLwh4q/wwLbsKlpRdiCTouc3Zj7nSJGOOqBK1jfUqjPIj2sSkrcri8iPjrDgqtaCTmFGZI+YWGvM2rY7ILNUQ1FyvKtsT4mcyosoLX5OhNlPV6drtEZFhgnTMbHwiN2q9WDGn0y+qC2MCk8sbtaYY8VHtGCYbsDV9wVApUZ3d2Q9V4ZbVoXtAW9RlqSFJ6UnroNDz6ZaMjHK5qV2L/cqsMAE8NaQSC6xmPzTlkrz6Ri3eHJ1+QVWcGLAup9HcWHpdZ8YH5VwqBJD84GV4RUaWEAHAeJh5nue8ff7i5SeHr6WV9RgMhos3xsN/bGDw7aF+/nTD8KfZ9Z+faL54Y9zJaQbxr92RRxt5mazo0+KbUx2W3WRwnturrvGHtiQZN4PMpf5yUsm8W1exauy15Io/Si3mrJhtsnk7NqVPLGp/XVxxvG6Ql0+EudJPs+sru12yrAuuF3TGJRwQUNWehoBb5MdUqSRytUCwOkJUxM82SqZlVwHJLaMjJfbkh1pCxIdIWvoVWabJBNOv+yb6ayU/oMVXEWdVNiigsVSkRGmaATCRZs3ZsHUiynqt/uJtgoQKfOJCke4DqaBRmShAUpGb8JYETLBM125fRZD4idyo8IxOdgSduVKj/3bkx3R90qqYbA2hE2BYIPlBxQHXdfFloPl08oNaZDg79GO2jaKWZQcFKsULAkh+eNpIjfxxFAHAeGAa5OHp8Wn9GykVefVDKb9277qM6xDma+7Fwnnl6KbjTRE/NpxtGeV2rl9Zxx2hCGu6xcOv7LPPFz46WItH0pMb0TL779DbYtXYb/dx3IzLoYqIzHMvXq7fW2Mr1ORINb4B7rfn28KyFByM2ypyTjnqn1K5rfBGh+VZIrbyO/mcCLW//8R07IyT1hiKg87oaC9G+ZcxAm6QHzj5BpdtNs/+N2/TsiuCptuVH9O12421B0REmpZpkc6sTq4nJhOA/CDfEP/6ronNwmwvFsJLReRTxIkqLzwkQ02do8B9+LZAu6gDCSNHxCT+22V60yIugjWa9QlO7uOKaSJVrIGyU6nRMrP8GJWJBFvLqSu7NBciGTfetfAcX6llNfthRYUxiWC7zELkWDcHPVl6BJD8WMaD/gppGmA8DKzIA1/dGMUP1f5dRh2b6Gfg/y9t4zEnlZ8cupZXP+TQNq8TD2dDMuucOTMb+GAwGHYUdwYb5QeIX4ffOplO+bV785lWJ404VPzW5BOhCIO3tzIYDA+ezCWVdK7fi58qSJxDwsvZLP06/NCVgD3VBdBuWg55yyFz3c3JN8QVHAo6WgR0xhUy+KBmskHADfIDk8CsHl5oxOn3bNOyK9/4MiM1tys/QAaBb3ReH86wte2SCMIlUzSIDfkhEPhFbi8bs8UF6Qg9HssBTQiABo6RUR94BjL8Qy1ZZ9QkmvwQckpElRdOBn4s6jSlcX6+IUlnMXK9kw1P7FaKu0HnLXBvERcw0gEr+5TYD3N+IieSH1aIUSHy1gxIfrAZPVEeT0YAMB5HqdKS57/cMfE/BcJh0T+m1m4pUH2QLv+xZmDiIaudpnZe6voit4WXJv/accc/pTK7pv+DdDkvBilGIo828nJ4CMUs8+21m5P4wSx9d4ls6vFHX+a1ROc2335gOg8+LKv+nHKU2Yjdt8Smvd/93AGOL7RbhJcMJ+uHIhjX+PFSC4r98ORxcgl9c4P84HX2w7Tsyie21BTIAdSFrdgPkIGk+Dr9Ir4LrfGKL8PPwQDygxQGi6PaenEQkSXYvDLK8rd8OkKPB5fT/bpvfq4qjDaFfyilASaXSB2inyyIDZco4cmBqcaynPgIf1wIFRq1k6UPRnZrNm5Jdi2e03lr5sqYRICH0VONU+THglpRIkmICYnYFEaEmK/1hUrRzn7MqMrObt8aDooE+tHiY/bEygf0aikQQPJjCQdlVDUvCHiv/FCNTL2WXPF2msyheQzAFGs1kwnn2wL2VP1vA9xbxrOxwStKgjhypG10mvKcw+349OxbabJzytEDFZqvWZwdzqEKocglO9va9SS/afjttKqBu48ru3VBB2q/v9gFF9ld3gM2DICfs0x33H74ZV5L8MFaXs5FYVkpyLbzUldyaTe4dV0CdEZeujYysjwQcIP80Ol5jP1QiQlRQP93TO6INVdrISLPLbadVaQTBoijP6zlB6xJwPEgFGZMR+gZJiJMAeU6UnWo8sKBZUziiwshc+AHtRWjI6qMrf4+9DvnsqjU3uyHXAILCVA7LD/0mCQ4MOEsNmJWR/ZmP8ZyY/3DJFUgeh7fTwwtvqJqPIC2JyWQ/Fge4/tKbgVgPK4jVS6yfKZx+IvclnRMs/EI97iClqEHSSWdb6RUpJX10O4hO/pA/+GB2uN1t5xvxcLLV5FHG7cV4odgbD/fvtsFR3M8nXshFGHD95867y0HC+LS7g/S5fipgrWDlOJVPbo3Uyu5xYhn1+ABJOJfu1lOVVGqdv72s2NNlzvuOG/HrgXQGVfyiITaTkHALfKDR17FQX7gkwD4tS5LTjI/MPuRZDzog1Z+qAqjSYlCv/6KTn7gq5gs9rYiarQI+VCJV31boB3ODo0Be2rhWwMn1+PKxDoAg/RZp1dL1tHqKzaV2ll8pS7eQnMo4UhpNIj90OSHrNtD2bEXX7JlnjOhzn7g8SRRFyxjY/CAFrrZIR6/IcgUHwgg+UEZKNGt1yEAGI9dbuRpGf5V1JFV3W8wGBKL2uOcm0noHHuY8mv3GykVOy91qUam4JZ+93OHk8aBtYOVmsD98pnZeYPBEHm0sbDZfBY4yONkos0YEuOkEW7F5xde7jEeOv7Z8SZrCzOz82tSKx1dKdc0eD/ix4ZPs+sdivCxrt2ZJxMPZ4Ui7A67RXrOVIQWX3nd4Okeh71NflhRK7C2Ciy+mlZnRPkLBP5hGaYDy/vLEolzJ6ILjUJieiCDECSrUolTuq3lB7T4yhesyGIx+7Go05wNs4rAVhXG+BA7X+FaAqfg4uLSaDhsfbp2+1ppQWG0OfDDrDpAk4ezQ20cXWK/UjvyQ4fDaAxEgeo1wkLufKXM9Ak6ablnrloSBC/ZajfKKuDtIo2k0VbEr0LywwwR5RvlQbdIfrhn/EW1uA4BID/qoOsadCmgq97yaoCuRuhqgq5m6GqBLqXldR26WqFLBV03oKutre39vbKfKlvajNenmdVb8+rajVcHdHVCVxd0qS2vbuN1paH9u58a3t5VGXfi2tnqGz09PYd/Vb6WjJU3dPT29vZBl8byugld/dA1AF0X67v8RNivjerBwcFbt269k1Z5rrbzlvEagq5h6BqBrlHoug1dY5bX0crOD/dXjxuvO9A1AV1a6NJB113LaxK67kHXfeh6QF6dt+789XTLJ5m11R0jAXuq0ko7pqHrofGKO9W8+9fOR9A1A12PoevJkydTD2fSfu0SirA9l7u09x89JS89dM1C1zPomrO8nkPXPHS9gK4F6HoJXa9evVIYw1peGS+Di69y8vp/6EIIkAgsQ/mhzDIeAigQmM/TwBcOEVMZPmuD15iOM/ePKzZNawD5QeSB/w6UqKjbWJEEnXb2Q6dfbMzb5BMhxUyHXehVZamBQTvgHYfVxVsC1n1gqTRmihLwA/ugwI/2AqlKZTKyqNNPyfO2rI4tsZxMMBNZ+5XaOfV8Ti4JFpjdnlPLMuOS8yVRpPzAd+b1jS+eNFFkrTo3aWdGxrfQ7MdcabKvRaNwURQpUeLRNTr94uhIvXjrnozkcDT74UEyg/wyU11C8oMcIdG/3ooASXi87N/zv5QLRVhZmcntC7+Uv7sL255zxflm5JeU//3Y1YBd2Mb0q2+mYDtyebBZVFr+Tir2j2NXCfcI50/8zINlSntjsq7+KdNUC+WV624Pn73y0d6rf8y4+nMpXsmJoitCEfbfk9TWfZd7JXgvK9/2/3Rl/W7sk/1XMwqpRlzXCluWd+ReeX8PZv32CnRdhS7M8qqArkrokkFXFXmBWrx1NEF+uwCBZSg/rGY/jNRKryrLIo/f9g/cml7QaaLFcJgHJDz8A6MSM2Qk26Zjabbkh05vPoDcZ+3GOEkJNmI6OtBE8jT5IYLIjE5zEIXJh3Xp0OqmKcx8XrgAt5NRpbK9C7DdSm17CzSMHj9k3XhCuc/aTfHSKtU0fvYIOCp+tLNcHEucX04CqEiH5MeiTlOxPcJ4RrufaV0Zfow68WRVQFhCTunIgrowBskPKten+3YtcR4kP1ww2CKTbkUAMJ5a8pJDV43lVQ1dJGXC/4WolAyiWJUQ9cKTMDGDCNtViMixpZvpP115O9WCFOYYWW/qGbYWQMNpE+d+KQ+SXPUXY2EHrqY5bTP84NVP9l+9TIqlrHM4QS/+lbZmpx4G77367XFWFN+paqDC4tNX1oixLVKLSvcW4A2kiAfiAyq4CBW2Sv5cWh6bdVUowhKOX/mVhMsql1sfxGRd/eKIRevcUL1bhwBUmWcj4PXywwOpG3IJIeDtCCD54dnjNvLOPgKAS7l4XQlH88Y1L6a/XkLXkaqbfytUEUtmwCKaml6tUIQpB+8RS2ygRTd4El6SAy3VeTYLXWBpz6lrA2+lyVoHdSdqb36apfjsaENh4+D0o8dPjBe0UOgxtIBo5hF0PSSv4zV9b6fJbt6+O01eZ65pAvfVTBkvcvkS/u996LoHXZOWF7xISgddWi3e/JImjVarnYCuO5bXOHSNQddt6BqFrhHoGra80i5eF4qwrCs3hoaGbkHX4ODggdLW93bLFG19A9AVcqD6xysqsDztJnRpNJocTPVOWmWUtO6Sor2PvHqhq8fy6oYuNXR1QVcndHVAV7vl1QZdN6BLpVJ9mll9oKRBpVK1Qtd1y0sJXS3Q1QxdTdDVCF0N0FVOXv8PXQgBEgEkP5b4Z2Zv56nI/2WJAJIf5AiJ/vVWBEjCU27wquuv+a20B8/93HrbLxnTPXrmTGs02pl3d1edV94mjLx4+aro+u0/5zSF/9jwU/PI42d47DjLq087459SWdWjg/MfqNDwFc4Om300Oy8UOdt22CBD+qF+fuelrnd2V9UP3LOV7Ydf1H/OaVp4+QpkSCvr2X6hHdyCxMTD2cSi9jWplWcah8FDT0joHj17XVwxxLgvM49+gs7oraMJ8tsFCCD5geQHQgAhQEUAyQ8XDLbIpFsRAIyHRxblBlPv7K7SaGdoK8quGQg+WEv7iuXDvxXeSKRjyZc77sSeUn6cee3EtVuTj+fsWpt9vvBxZp3oFzUl5/bz7XtcsOuucuiBUIRR6nLFbe/ETOwpZfSJ5tEHdnb4/fxE879/7gA+yHp07+yuArdEouj67deSKxLOt93U0X+glPzuvG0cvO8eSIlGgc7o1iEAVebZCCD5QSVey/LHbNQohIBDCCD54dnjNvLOPgKA8biT1TlZ19C9J8ykUPSL+vMTzdxqOdUwvH5fzd0Zm/Mnsh7d1p9UgfvlWdX9t6dMp3rT1rXzUteGI4rZ5wuUt5FHG2mnbijZHL0taBpx5ggUltVV994NPoifKmie1LBd8sHT5+/urjpShe+PbDAYHj+b90+pvD78gLgdnHzy1/zW9XtrilVjxBNP+7ugacRFh9PTthR0Rvv9FuVYMQgg+YHkB0IAIUBFAMmPFfNfwLJtKGA8tHzIMx9e7rgTklnH7NuWglb4d3fmzOCtevzRm6mVl9rGwRNbifr+e/+80P7O7qp0rK9f99g6W1WPzj+lcuAuzav39lRX9961LuLkk+8vdv2ryDzV4KQ12uIFTSNCEXbU6lRB2szEw86xh0IRBk4r31KgOlx102AwnG4YFoqwnRe7xhglHINlN7wSl3bTrhZzUdWgMy7b4QY1zHEEkPygEi+HfiRGmRECyxIBJD8cH0tRCc9CADAeFzEqV5jdU977g9WKJkpF+ucLn2bVHzIyXcorhtu/5rd+f7GLIQPllWpk6vuLXa+LK1Iv9/zv7ELwdnx69p3dVbRTHA+ePBeKsN4J/hcahWXV5ymGgA/8Jl69MuzH+oQirLxzwlHLV7omhCKMmPQ41TAcdqQ+6kTzx5l1V7scNuVo1U7m/yK3xRWnQ9ryCnRGzxojkDdLigCSH0h+IAQQAlQEkPxY0mEZVc4DAoDx2KJEHvg8Kqf5cscdu46N3H/61i7Zz61sF/bkXLv10cHaJ3Mv7FqmZOi+8yj1cvealMrvL3Yphx4svHwVebTxmzPXKdmI2xsjU0IR9sh49jltBs4PhSKsafA+5+IMBe9MzyacbwvJqOsaN0sshvzWr47XDX54oFb7cDa5VI1Pelzqmnr63DqbRz2ZfDz3dlpVn40QI1e4CjojDx0bmVguCCD5QSVey/LHbNQohIBDCCD5sVxG+JXbDsB4XEGnXGHz5atX7Pd3IqKx2ZDyttHp15IrrnZpOft8696TdKzvPUn1hiOKd3dXTevp6XWJauzDdDnnWmwVvP9kTijCHuod2JXLlinK89bhqT9IG7f9pHLS+Ob81rW7ZH+QNgQdqP2FxfI2ihvuv22+5aZQftA00BlX7niEWm6FAJIfSH4gBBACVASQ/LAaKtEDL0MAMB7AgTw8QcQSsHeyrBNf+WN3j6bYU8qUy93szdrKWdmt9UvG1u2t2VqgquimETMHXbPrrov2aPq1/c7babK9V/tstZfN84WXryRXeoUi7IN0eVJJZ1pZz3fQdlhsLCxJnsLm0YA91H26XOoJ6IxeNoggd12JAJIfVOLl0I/EKDNCYFkigOSHK0ddZNsdCADG41JexaPxwpbRz443OWTwZP3QbyTVL6ADKCjFf5QPbDiiePmKzWZOlKIWtzOz84H75Zmym1NPn+cqbn1y+FrMSWVpu8U6MRftunuqYeiPRxstvHH65ljtoFCEnW0ZdcZSrWbywwO1X+S2tI5M6R49eztN9q+ijnV7q52x6Z6yqZe7439SuacuohbQGd3R81EdXoIAkh9IfiAEEAJUBJD88JIBHLlpEwHAeNxJs5yp6z8lnQcrNY5akFzp/YO0gbYUsUCr7uYk7VuHHm4rVEUebQQH7c3OLxQ2j0RIGzYdb7pw/fazeXwH3sijja44XO+74o7/XnIgaJ65XY+fvRCVqv1TKhlOFWS2QGyzu/NSl1CEnbh2C2RuHcZDX14XV7SNToOHnpn4S17LyXpXhfLTNhl0RpvdFb1YeQgg+UElXsvyx2zUKISAQwgg+bHy/i9Ybi0GjIeWD3ngww1HFIp+mydtMzi8/Xz7P861WWeIzm3Z59ziIsJmYfPoW2my8elZ6ypKbox9fqL50+z60w3DAXuqZJaHoFvn5/Ak9LDCyWkKUOlN3eOvT1//07FGuyvWQBHrRFnnxNtpsi0FKus9vn5pGxeKMLt7l1nbdOeTB0/m1u2t7oB2M3ND7aAzLrdRBrXHCQSQ/Fhx8mN6pn96YcW12iHyjTIj+eHEoIqKegQCgPG4gV05X8VD/bxQhBHTCBysfX6ieT9mEcZwSHbT1qyIQ/YH7j72T6m8wriT7JWuib/ktQhFWOrlbu0jGpXiUI2UzEIR1n6bh/mEWs3kRwfr/nOxk/NKtLszz7491/ZWmoxBDsWdvr4mtfLBE/snx1Oa6bbb68Pujjs3GAygM3rE0ICc8AwEkPzwdiKuKsvKVsywb4W6MEaQVDuKGDZCgAEBJD88Y3xGXnBHADAetxE7ZypqGLjnn1LJ2cLdmWfBB2vBSQ4NA/eFIqx1eIqzQaLg3IuXG44o2BwY0n57WijCNue3/nZfTabs5vD9p05WTRTXPXomFGFzL146ae1cy6ijpwpSajyvvC0UYYlF7cwzJ70TM0IR9pe8Fkpxz7k9pxx9I6XCzf6Azsi9P6OSyw4Br5Qf2uEiaWJkaICPAL9WB20TF/f1W3OpEVWuZFtIkL8xl0AgSMfMeRbUspz4qODVpIXtefVq89tF9mze+ZyjIwPqaYsaG6XBgthSlv5gEkFI3jB7NxyTH9MTjSNz7I07mbO/c4Dmc1yiz8XJtnh3cSQ/lt1Qv+IaBBiPm5mWQ9VJaweqe+/enXl2rG7wr/mtDpWlZFaPPxKKsFrN5PzCy8+ONzl6LiHFGnGbXKr+OLNu9jke2sF8XWob//BArcFgaL51/19FHW+nySRXeq2XJzEbsX577ebkm7tk1s8denKwQsPtVEGiluH7T78+fT1wv5wSam/Lhw1HFCEZdSm/8rDbmK0qODyvuzn51HjwS1pZz9en6U9u4WCWZRHQGVfcMIQabBsBr5Mf/WU715B6QuAXHOhnugmUqOBf9FVlOwKhbCGhwavN8mNOLgk2vfQLDlnrS6R9YktUS8F05Rkx2RoL+TGqvJBRPAA3h4HLulZ+KKWRjmgbBj9ZvJopShCVWioxFqUsoEP5+UEAyQ/bYyZ64x0IAMbDkiEtSTZiV1mhCIv4seH7i13nlKPOHAZX3Xv3f3MF31/s+vxEs/PNqerRvS6uYOlPpuxmHHQcYfvt6R9+UfslY8mlamdCsXOu3XKmLbpHz/55of2DdDnnUwVzFbeEIkz0i/r+Y7brqXaV9Xx7ru3N1Eo3h3czf+KHqm6+mVr5Qbo89pRSWjtQdP02y0+W2SzLt6AzesfYgbx0CwJeJz90ej0mCfaJyCw1/Sqvx5LXG/XDeonSxERHlZlG7eEbJqmnTCzg5ExbEW8s4JNUZfytfUGVF2N84CsmLfDD4ViJmZmihHCK/HCodpfKj/6yRIemVhzy3CqzWrIOyQ/PUFNIfrhl+EWVuBABwHhYMqQlyTa/8PLd3VVCEQb+fHSwtvkW9xO+Uy93C0XYjVFnl13pHj17Z3fV6YZhlrBsP9++u7yHklmjndld3vtmauV3xZ1sTkikFDcYDIlF7WllVLPW2WiftI1O//Fo4+b81oc2zkmkLQUedt959NmxptDDiqpeHXjIJlHZrQtMlxPCsrLbsbJs7NzdJwAAIABJREFU7HPLQ2yDBr5mQhEWdKC2YYDLVgccHACd0YUdHpn2NgS8UH4s6vSWkdOKdGL6IrJwwshoh7Mj8Ac+tiIcRkoijQUiC8dMDJi0kCSztEzqh35FTnyEaa2Xz9qNcZIqcp5EJRaISqcX1LKsOGIxmF9wXEaL5QqiSawwC1rolZjdqTfV23khLip8zSrfNaHhIcY/YgW+0kldGAOR/gW1okSSEGOa5/ELjs+zmBixIz+mBwok24wzPL5rIkS5nXrK4qt+TVV2EpFBIFgVECapJZ3vy90aE7LW12ftRsK3EEkLMSFju4iROmtbMhI2rVllhHhVQMjW9CINhKq2r0ASR7xdHSEqIF/1yzKj8bVw/oEmKLblEjNCzNbID8hKyXgGifde95D88LaRHPlLRQAwHg5syZ1F/prfCpPCc0ruh1Hony9E/NjwlzzlhiMKZ5rw8tWrqJzmb6DZDLvWIo82nmqg38t19MHTjMqbv5FU/+NcW03fXbum4AwfZ167eGMcfsIyXY7vT1XF+VTBQ7KbQhG272qfnsXCM4pLT+ZevJFS2Tn2sOj6bf+USudXoFHsc75dv7cG/qax15acawQFQWek9lJ0v4IR8E75YUEu+4u3WcgPTX4Ifu8rVlhkgxiqSkyQ46AdOP2dHsiOJdZfRdLOQowq0gNjczAQAjE92Shrh+VHdt62SElVo9ZIsqcHChKCBRFnyQyLuumWjIxyucYkOfqVWWGCxCIt8G0iN4o6+2EpP+YwaVaBcsy0FkvbLokQxJeZY82Z5Me0ShzkHydVmaaAtOrs2GixZBsceq4qzsqWDfSbljyNFSSsD5D2AawsPTH5zFQEr3FLhmKCXDmmV3fWy8HSMvxtcFKxKcCjvzM/ehWMOaHlADKLOmZr3kvuPd9zJD9W8H8Ky6TpgPEADuSZieN1+BF4xJ895b3OOLmnvPerU/iy/u8vdm0psIgkefxsnr3l7JqB9Xtrph2ZNHhvTzXtUeig0rszz47WDgYdqN18ppV5Hy1QxGAwCEUYhzVCJ67hK6YY9qeCq6CkW249+OTwtT8da+Q2XUNY+2t+a04dfiTIwUpNWFa9Q+BT/OHxdkdxJ/im7bzI21EqbDwEnXGZDC6oGXwg4Bb5MVUqiVwtEKyOEBUBJsobA1NLggj1YVp81V+WaLyPye0cyE0ifoY3/fAPWDWuKIhCAl8fQooIfKPBZIilb5hEEF9GzldYvtLpVWKBwCehnJwxIKgzPv2yXWYrYnuuNAk2aFd+QHTcWPuoTCRIqCL5/SKD/FDlRQYkgdkMo51plXidAJYfABNTQpMfEnSykWwmrfxgKqJIh32j5JRnBIdlqIHnOv0iLh0TKkj0rOQHozWKcXTLJwJIfvAxuiIbS4kAYDxs6NES5iH2jBKKsG/OWAgGR12q6tH5ibARcsupuNPXd102LVtqGLjPftpBNTLll4w133rA3oFHs/iuwerxR3aLzMzOn24Y3nBE8UVuy8UbY+AcQ1AQVibj03qhCAOv2CT+N1mR8iu+/Kze3gkqdx5SNwh+ZTCklfUIRVh2zQCbuhjynKwfijmpJDJsP9/u5iPGbTlGHEsiFGF/OsbzKfK2agTPQWdcyhEB1e1hCLhBfoDZCZzww9MCJMd1gjbhcSAmHUFaVuWFG59EhhmXYJneCgSCVdHw5Ea/bA+pQAQCwcdi2ZQtN1R54QEZahtvcflhLU5wH5LrbRShrK1yWH7oRkoiQ/PB7Ipt+TGcHRouUVJVEJbMKD9wQWUOwGAlP+AimvyQdVI5/SerEq+KMS2pAhlGSqMFqaWmW4uqcfSYrFFVmS200XMuCCD54WEDNXLHYQQA4wEcyGMT7+6u+uhgLedDPwwGw6PZ+Y1HFPlNI6CNM8/mw7LqT9YPlXVOrNtbw/L8wZnZ+cD98vQKxw5f7xh7KBRhD548B7UzJ+YXXp5X3o482hh5tLGwefSJcUcmg8HQOjy14bBCNWIKXKnuvfsbSTWzKfjt4OSTr09f/7/seua9cYkilJPUq3vv/nZfTewpZScf5/H1afHtd6ee4oA8m1/4g7RBcsWpeS24mZzTd2fwXYz9UyqBRuVsytGCoDM63I1RgeWLgBvkByYxSwDL3W+dZZCqwi3E3ruCVVsArzVXF5RaNLKg0y+oixOJbD7J9cRP76PKnEhyyyyTc6s2JtlSINMqcajv6qisos4p+Jd7I6tTiQXUpVP4c8UeBqFlyeldJj+ma7cLdhRZbSRFif2w4qYWGsDSVVufF1xEj0k2+vjFSMrAgi6ylOZCZKhUTvUHBhC2Q5SybQ0IGJRwBQJIfizfMX+ltAwwHkepkvvz/+Psjf67j52pN+XX7q0/qSgWBiefvEPGtf/xKKsfvLcVqiKPNs4vOHbORmn7nSDjrrsUB+zelrbf+TK3ZeMRRZ5i6P6TuYTzbUIRFnNS+fjZC4PBIJUPsN8itr7/3u8y6r77ueMli2MFibjw6l48EOXp3IsdxZ2vJVfYil2x2wraDBsOKzC1lng1OPnEP6Xyp2azOKQt4oaHX+S2VLngZHq7noPOuFJGH9ROFgi4QX64aPbDrD0EwWKFeXEUKT/g2A+1ZJ1RZRA/zI+URpsCozeJZWOqsj0hpvVXwWKruQKSnc+pFSXi2ACfVQHRGfAJITB7Jnk2Lj/SBeYJClPseEjEpjAirnqtLxRZzkJ+jKhyMxIjQzeFRRAR6gE+ZuO2F1/hEfbmeQyyIfjci8XiK+1wUZ4oLjQ8LGKTMcQ8eDVUil5+MBbR6RdH8RNX4vCQ+tisUlwBGpEh4/thMWpMA/1mLT/wgvTWXMG5kU2AAJIfLAZPlMWjEQCMxy43WvIMBA/m7MbVLu3aXbJJq51hD1Xh8dPgz92ZZ8xVnL9++6002fg0dVUScymDwXCo6qZDceoUg5Xdus35rcEHa4Gr/yrqMBgM355rO8BuHqboOn4m4NHaQYplW7fRJ5qFIiwko+6XtvE1qZV/K7wxOPnEVmZuz3dd7kkuVYOytZpJ4lQW8GRJEtJaZ9eVcXMbdEaPHjKQc+5FwA3yQ6fnP/aj3xy8ESy2PPNbVRhtSWoXdfqJ3CiC9OInD5Krs8wb9eo0F4i9sKA4BEhLAE6Gb9o7UJC80ScCrH2ilx94eMZWIiAEXx4WmHDWHLlO3djKjvzAw1SCdmSbg7kX2S6+wtc12ZMfmpJov03iMviwPwsNQCM/7BUBOkenn2os3hMCgsuVmbBqgrIBqC2qtspgaQ3+UFCadwSQ/HDvOIxq4x8BwHi4ESa+SnWMPQw5pADEmnMi8ngLfPg372YH7j5+M7Uyq2bAK7wlPh3eQeDXrH9KJfyR7bva55dcwfkLAAq6+pvA1zcftgM6I//9HFn0WgTcIj8Av+QnAQWOU7UHzlkV6cRSq7hiEM5Bzn5EXVDp8ekC47UHOgSd1CdRJSzOGp8q2Cogt9WyGfsRQsRY49ELezDLFUeqvHDWsx/D2aHrk6C5HbyBmvwQNrMf+nbxqo8zOqmYyyW+5OwHHgRv3n2YoLD4ki2zaLGSH/aLUGQDPvclUeEP8eNWaBaDQfmZ5QfeELM13gk3MggjgOSH1w7pyHETAoDxwDTI/ek8xdDX53oKeued+ZMq10WdMIUyE03Iqx/6+ixudtOpjogTNyjGT6nndly5HZ6jApxVKMK+LFBTsgGzcy9ebjii2H6hnZu3QZkN20oGgHFgFqBt12x2Kx4sYf3nsPIRg9kj1f2/Tb+2Nq16X/19kI05kdOuf/+AhRrcUnyTii0fH9kPsjt+yVj3HXM4fp5iKPhQw4eZDafUc8xOMrylwZb8JjCUsvvK2iz47HhJgM6IhieEAEDA6+THKL5bK6Ef6LQHTqHIvbCC0jHj/rb9ZaIAY4kw4wHe5NZYvvHFkybuqzlLzH7YDjGHSfxcaZJvkmljK1x+kBMdZB58dylyHZcy0wfaSMpYHe4eJD8mC2LfAgcmEv5ApJ9GQsgzgqGVXbYXX+FCy5faIoudryYLYqlx8/1liT6w/CjessYi7N5+EUhO4ICMykRkyA0u28izWUisYMqL66VvC8xbEtPkgazRvKVUjW65I4DkBxgiUcJLEQCMhxf+xNnI12dUP8gm7PI/5gybL2iyLLdjijOa3XHl9ltp1Xmds7aKH2ya/qJA/fYe/MCHDzLqKdmA2V2Xez7OrHs694Kbt2vTqr7HxoFxYBaAZtfslp9vvi6uWJtWFSCR/zb9WlAmTtOFIizr+owts51jD9/ZXRV4sD6nXQ/y2E3Ene+jiJw1u6oo2Nr11m4tBb3zmy9oPj50DT74nDD76bFWa7nIxiCRxxpb4pvA3gJtTmuz4LPjJQE6o5cOJshtVyDgdfKDnLsgFIjl32DuQlNCShT/wCB/IpNPaKZpFmK6XRJKHPQhEPgFG4/kM2YJSqdMUxjZ22RRYXnjCIgtmVOXpQaac6rEgugkyZbIDJXp6Az8bA3fwGRyu9vp+qRVkM7RqnOTdmZkfAvJj0VVXiTlhERIfsyVJvv6JJSSczJT8sKd26XSOFazH4s6PMrFN74YnBmC154t3UHOfuBVCyKkchPjn1PLMuOSc5JCzbMfOs3ZsFXQLb50jamIuuxCQeckCNAfHalKCgo2R+ZoSuP8/OPy1OQxIwujIwNFimGSJeONJSQi8cSONQvpgtQIrwgg+eGK0RbZdCcCgPHwwp84G3lzl+xEhwP8mJYdhkmbKUehv7lLltE8HbBX/j02RluE8vC/lXc2SJWHWx7Czwmz127ee11cQRyvwcHb3M5Z/IQ+hXn+gdZbR0HYWTH+rkRu7S3xQWBq7Tu7q14XVzhkdl/9/XeMSkwowtanX/v0WOtnJzt+s1f+/cVO+PPlAALsJ5EOkzYnl6rjoKMbCbMnOmbfP6D46lyvdRE2T3jB1roia7MwIM6nQWd05wiA6vJwBJan/MCX+rRnJ5lOCvdZuyleCseLL+r0k6XSxEjinHKBYHVQjFUGQObmVGXmM8sFfsGRSWcxEE6N7zkbnq3RNxanxxl1zuqgbeJCFakWcCOjneV4zDoucPwDt6YXdM7oFOmw/NBNqzOIDKsCaE49x48tJ48JD9omLu7r16vELOUHjkNLhunEdLz2XOUUHhZvPg9+CpMmhhk3ASNRmsiNgvWGXi4lavddYzr1nKnIqKbCfEC7wD8wSpStIKeYCLWAn3pOHrLuFxyyVZQtA2cULuo0FdsjjHLRD9+i1741pEBchACSHx4+cCP37CIAGI/z5Imzhbbb059kNVqzPYeenFQ/80uugHejIsz+Ka/9s5MdDpk60WGeJyHMjk3p35NU5ynwA8u5ebu//j4e9n3jCeGJLW8d8rOgd/6b832fHmsFpWCzJ+uHcMGD9TmKbWbz9PG2p2e6n9OaJT5lbiAAg0SC8FZ9B9+P+NEsfuAjbDa94YFfcsU/fx2mlLJ7C4PAu7fwF4zzF95WQdAZ7XZblGHlIOB18oP8pRzIg6VN0Ieee5iTSwsRqt0LEUDyY+X8H7BcWwoYjy1K5IbnJ67diuP6Ozcgoyk1uug8i8CPE4pbG48qAywnB0B+lgnCbFROc8xJJbFXLTdvd1y5HbDXPE1B4y0nED491vrXopugLYTZ5y9epl7GTxVU9N87objlfFANX94CP4kEMBt6WCEzbnRLwXZnxbhQhKXW6CgFmW+BWfDVdREIwD5fCdAZl+tog9rFAQEkP5yTCkh+eCG3dtGMwXIyi+QHh8EUFfEoBADj4YtCcbATe7pVVOV84EefVG6xX+rnJ1re3FUlrtYys1Xmt5sv9MWeUr4nqb7/ZI5oGjdvv7mg2SBVgro2X6B6y83suxI5DN3mC317ynvjzlwPPXyNODXvK9dgy81b0HwiAUBIvdydVoafPW9t9m8XB97aXX0Eiq2nGLG+BWbBV9FFIAD7fCVAZ/SoIQI5s7QIIPmB5IdzCCD5sRwRQPJjacdlVLvzCADGwxeF4mDHP7UyF1rvZE0o2TzZ+GOzcugBXPtryRVRpzvZlGXI87tDDX7J2LWb94Blbt7+4cSN6PwuUJG1t9zMCkWYVPUYmA3OrH9/vzzhfBs4VXCNa7Dl5i3wk0gAEGQ9uk8OXTMYDLRmo/O7PjrclN9j2hXNbgw9MAs+MheBAOzzlQCd0fl+jSwsGwSQ/HCOfKPZj+VIvpfTPAa3tiD5sWyG+BXbEMB4+KJQjtq5MTIVmtVEIaaO3uZ1PXtdXLHw8hWoPR3reyOl0lE7lPxH254KRZjkSi8wy9nboMyGeHLXXWtvuZnNaJoWijDgc0IpHuyRDe39xc0sMEgk+PKWwezTuReviysu3Ri39U3YIFX+Ka+9oHc+s3n6k+wWhskQN3gLvgy8J0BnXLHDEWq4NQJIfjgnP6YaZfWNjHvFOmcfkXuEwFIggOSH9ViJnngXAoDx8M6lWBo8Xncr7jzHDY4AoxVXa788eR3UOHTvyZuplX862QYycEuEZDW/lSaDo405e7s2reo/5O5bFG8NBgM3s0lXx9btryOa9o1xq9wNR+oBCAaDIccF2HL2lvIRUEDYnN+6pUBl65twrO3puv11my9o1qTKhCIMIEmxWdA7TzHrOhBgnPlKg87oXWMI8talCCD5geQBQgAhQEUAyQ+XDrvIuBsQAIyHLwrlqJ2/nLqeXOVUeAaxAdSx2kFQ9d/P3gg+WOek2cTLI68lV+yFpj4MBgM3b/OMu+7uVdwDUgH2lrPZr871/jG37Xj70z/mtvmnyjad6qCYjXEBtpy9pUiFb873wd6erB/6jaSa4SP7+6VBcBTJlwXdFGvglmLWYDC4CATwZeMxATqjGzo+qsJbEEDyg0q8uC1WQaUQAssJASQ/vGUER37aQgAwHh5ZFHtTr14Z3kipzLV9ICCglcyJDdlNrcNTRL0/NY+E/9jgpNnDykdvpFS+n14HzBoMBs7epjc8wIM0yF13YW+dMbtBqvyyoDsos+F3h5ty2vV8maVA7R6zfVr8QHepyrQxMeyDVPUk6kwX0B7/29ErKLMBzgCn3eMt+2+4QzlBZ7TVW9HzFYgAkh9IfiAEEAJUBJD8WIH/GSyzJgPG4xBP4itz6/DUhmxnAz9yO2ffSKkkdsW9qXv85i5ZsWrMGbOnu+c+OFj/f8dVwCzRXs7eJl0dA7vuwt46afbNXVX+qbLPz+AR7Tyahdm8O836p1SK6E6+31kx/v4BBSw/4BNUlsRbvr7/FDugMy6zQQY1xxkEkPygEq/l9Bs2agtCgBsCSH44M6qisp6AAGA8FCbknttjtYPfnO+DGSSHdHKVNuaUKfBjS4HqeN2gk2a//Kn7vb21Oyvu/IU0S6DB2ezmIvOuu7C3zpj9+0V8MdI2MpydL7MU/JOrtHyBAFum9TYos+EvP9lcVXWwaTo8RwVESDLdTs20Znn5glFAcFHvAJ3RE0YG5IOHIIDkB5IfCAGEABUBJD88ZIBGbnBGADAeFzEqZrNfnrzu5LkcBb3zced7c+puGQyGUw1DUTnNBoPBGbPiaq1fcsW++vtx53uPG82CJnA2+8fcNmKOAvaWs9kzPc+j89UEEQecHoDA2SwwBSd4BIFilvjIYG+/udD3/gEFnM06fbp7Ls4YZL/5gsb6rdtAAG7zmwCdkXN3RgWXHwJIflCJF7dfi1EphMByQgDJj+U31q+0FgHGwy+RYmNt4eWr18UVeV3PrHmkQ09Cs5pujEx133n0WnLFyIOnzpg91vZ0bVr11uL+gt55wixoiDNmgzIbCJvOm826PrNBqnxvb+22koEPMuoBUDx6C2w67y1sCk7Tenus7elryRUZTdNwTlvpHVduW7+iNcvXFwx8E1yXAJ1xpY1CqL0MCCD5geQHQgAhQEUAyQ+GQRO98goEAONxHamyZVk59GDjj83WJNKhJ7kds2tSKw0Gw9enrxc0jRgMBmfM/j675ffZLfk9z3M7Zv2NZoHzzphdm1aVdBWny8BbbmbTau/+Zl/dp8da83uexxT2/PmU6VBFJ83aApxfEEAtDN5ukCoTSodATocSDGYdskPJbA0C+Ox4T4DO6BVDB3LSPQgg+UElXsvpN2w+2zLXr9W7GCs3VLEUZ2jw+Sm4y38kP9wz/qJaXIcAYDy8cym7BqXygc0XnA38EFVNfHW6NefarW/OmMI/OJuNL+5fm1Z9rO1pQe+8qGoi9nQr3ATOZk92PcPPLryG77pLeMvN7Hflo0IR9vU5E2KfZLcApu6MWQrbhm95BIFi9isb2P7t4mD4cRWcmX3abSDAHx+/adAZXdffkWWvQwDJDxdTanfxRVdz3JGSSIGodNqVzXFDFa5GadnYR/LD64Zy5DAFAcB4+CVSbKxF5ylTanTs+SVtzq/P9aRe7haKsHuP54hKuZndV3//teQKEIgSd673xDU8ngRc3MwW9M4faJwSirAfVY8Leue/PtdzQsHF7DcXNEIRRkyhEDisTasGB4lwNksLKXjIIwjAJjMIB5um3kipPKnmsh7PbSCArwTvCdAZKZ0U3a5kBLxSfmiHi6SJkaEBPgL8Wh20TVzc1w8xP0xifGH8K75shiowcJoLrnQMKkjNuWSvpho7pzzGGaPksNAGM0UJvj6SduBhf+cAjD947ljCogqKzqHW6Jhl6HPsV0rDVoVnayj2F/vLEsF3AiS2y+Y4V2RVkLcmWFmmtoWHDEh+rOT/FZZH2wHj4Z1LMRucX3jpl1zBjWjCXPaTrMY/SBsu3hgjquNmNq/z2Xt7a78oUAPLn2Q1tt2eBk3gZpaw9h9sLGBvLZHmYPZEh/6PuW2vJVfsU9wH7p1SzwlF2Cn1HGezwBRDgoO3DNbAK2az69OvAREIirBJMJtlY4E2D8Us+Eq4IgE64/IYW1AreEHA6+RHf9nONYAe+gUH+pluAiWqUZJlwvJDkFQLnhO0rL94GzAgEHik/NBWxFu5zQOnJPHhYspSG6hkOdkKIJBmihL4mBixrILipGWN3Aj3jDxj0+rY1O2hNPJDXRgTkjdMqZTfWz6awK3hjpdC8oOX4RUZWUIEAONxBZ1isNl8636Y1NnAjxMd+tfFFd+eawMVsTeb0TS9u26SYJx/OHEj8KACsPkTHfo3d8mATYPBwN6sNYX9a9HN0B+VBb3zHMweaJwKPtQQlNlwvB1fEgb+4HM14griloNZYIchsVRmo/O7Ys/2MDhG+8pt3sLfCt7ToDMu4YCAqvY0BLxOfuj0ekwS7BORWTpC/DKtx5LXG+XEeonSRLNM8mOVLz49sooiMGaKEiD14ZnyQykN8Gz5YcnL1ZJ1LpcfljU6zqenB7K3BoRJqlTTE7lRNPJDnrE+snDC2VqcEXgeVRbJD08bqZE/jiIAGA/vXIrZYFbNAO3eqbTk0tbDrcX9ryVXPH3+AtTF3uy/ykaEIuybC5p/lY28kVJ5WPkI1PKDbOLrMypg02AwsDcLjIBEZF5b1Gk8RvwH2UScI2ZFsok3d1V9drIDmAKJxMsjvztsOq7RUbPACHOCXxBAXXa9/aHyzofQjl6gIHPCrlnm4rbeWoMAfyt4T4PO6GgvRvmXMQJeKD8WdfoFC5qoSCf0BKCPJvkRlRi/TiAQ+IoVEFvVVsTjuRPjTSKEIk6gnPpFnbavQBK3ZhVeYHWEqEBD1KuWrKPhr+rCmIDkFnKmZbJUmhhmnJnxWRuXoYQXgKnEofkq/UxjoSgyyB837RccJ20nFy9NlUq24M/9gkNCw/E/Wy+ojMS0X5ETH2Fab+azdmOcpIp4bgEFkVNTlZ20LWStL258VUCYpJY0vqjTT+RGCazXFGESgeVv//rG4vQ44/I2n7WbthcOjFpOTWASk5F+WWZ0VPBqgX8g4W3otlywrokePYCwnSoo7QI14s9HSiJxeTZZmmFqJu5k8RiliOXtAFY2Zvx06OWHhX37SoD4EKcwaWKYEefVQYnZnXhofr8ii8BN4BccnzdAfh/wVltUwaUJADrXJ5D8WMaD/gppGmA8vHMpZoNRJ5Spci6BH3Hn+4jo8ILe+XclNd8Vd8IVsTcbe7YHnGEHDu8jaOjX53ryFEPczFoT2aDMhi0/38RjHs725NWzNfv3S/ipgn+7OGhtsKB3/osCNVgq5pBZWmu0D/kFAVRh19uTXc/8kisOtTwERdgk7JplY8Q6jzUI8LeC9zTojCtk8EHNZIOAd8oPC/oFFlNZyY8LuRKcggdkqAETHZWJcFKeUFFkig+xLT+mVeKg4KRiU1RDf2d+9KpIImZAnrHekqwv6vTD2RHrkxTE3lBjubH+0VKVmgjUHqlKCvLdLgPbRqnEApFYEpNUqDZl0KqzY319JCrgpE6RTlkzNqpID4zNwUwTPou66clGWbst+aEqzsqWDfSbwsTHChLWB0j7SONs5Ac+v7R6K6huSp63JVKSHgeFnlswaT3eImpUum30jJ7Yr4J02PRZW9Q4UhIZlS7eui1DZvp0RnGQBeALQClreUsrP+ZKk2hUmWVB+FunEgu2xSfEiMsIBxbUZamBgsTsvMSQ5PJGrXFeTlsvDhLAoUf8NQH2xDVpJD/YjJ4ojycjABgP71yKweDci5d/Oq4E7J9z4u3dVR1jD0FFfJkNOaRAZhEIQhFGAQF801yUAJ3Rk0cM5JubEXCL/JgqlUSuNk4gFIGfxu3/wMySV6klQbigEAisFl9FlagIsYHPNhDWcJYpEAjiiqfI+BCb8kOeERyWoYZ/vcZ1TkIFPpOglAaYbRota86GrUvHjIy/vyxxdUI5NOGwqFNmBazLaTT5oBILBJFSi9/FdZr8EEFqKcDESn5gEkF8GRAwLJEhs2nyQ4JOkrWzkB94W0SlWrI47tUcJlkvgDSGBZOmkx9M6OkXdSyqoFB/ixrxqZj128tA8AnuKi4sI86SHzTsPCVNKz9oH1IKwrfGD7EQnm+ZK032FURI5dDmYKMHT7JRAAAgAElEQVSyVJ+EKvAV4q8JsCeuSSP54eaBGFXHOwKA8biIUfFu9s/Hmwi5sm5vtTPGgw7UUmRP26g51twZy3DZufkFoQhTjUzBDxnSEw9nN59pfX9/zcj9p9bZDlXdXLtLFnyw9u002Z7y3ssdd8am9NbZvP3JqYahf15o9/ZWcPAfdEbeuzky6L0IuEF+gNkJnPizIojsGRX+I7pRe1hYJhdflaina7fjr02zFrrp+iR8JdW2Ai3Owo2XLfmhEq+KMa8jIoTBSGm0SSQMZ1uGL6vyIkNMWmUiNwpMg4CGtIvJmRMdTtZJf4DewB9CC7qs5IcqLxyew6FQc3u38OyEffmhygsn2wL8X9Qp9jgiP5jRW2RTBaVRVO6+ymq+xXJ5GKU4dEurNIazQwWrg8LBirWQrVmlI5Zr/Mwf1qLxQ4zJHYHw0S/iq++g/Q/wGkdKIiGZyl8TLOqFmsbfcyQ/vHdMR54TCADGw4EtLUmR9ftqgGxYt7emvHOCgxv657gqIP68Lq7476WuuzPPONixW0SjnRGKsImHs3ZzGgwG1cjUx5l1cWeuL7x8RZtfOfQAuE0kYk8paYUKbXFveXhT9/jd3VXzCy+9xWG+/ASdEY1OCAGAgBvkBznPwEz3uTAnVeEWYu9dwaotsFQw1bhOKtebAs1Ny3IU6Xj+qBK1MQSCSX5oLkSGWvySbSR5ZpGA6wHziqbh7IhwiZIIhW9JEnxbYDF1QIm4gMUAaLXZMl6RlfzQTavEob6ro7KKOqfAr+mseSdco135gU8Q0cy0WJJ7CyZtPfthBz1WVVBaZ1GjJa035bT0kFIcuqWVH4u66Zl+YtGUHk+rZFmRfvCSOfBJEQkYUtMrmr2zLP3krwkUZ1xwi+QHGCJRwksRAIyHLwrlUjsLL19R+PcXuS1Nt+47WmnX+EOhCPNLxrZfaL/tygkETK0NPljLxr1f2saFImzf1T7mzOv3mtXXO7urrnRxUV/MVXjC298futYw4PDH6gmeO+MD6IxeOpggt12BgBvkh4tmP8zaQxAsNgVdmHgYKXjwmQ11YQwuM4yLpjBjKIhRitib/SDD2QnNBP1NzlHgy4fI9VSas2EROY2mSA/4UBGonACEFtAwV+Ov6aRlWvlhXAGlVpSIYwN8VgVEZ9SrLX6MtySg2uGiPFFcaHhYxCZj/HrwavO6Kbvygz4D/kO+2YhlFLW1/LCDHqsqIMGAt44/7m5DfljjabFkzhJh6yYbv2nUiCAkP1wxZiGbCAE2CADG4wxtclvZ0QdPgfwIPay43HGHW9WX2sY357f2aWe4FWdf6ljtYOwppd38WdX9QhF26ca43Zw7ijsBAgcqNHbze2mG1Ms9mbKbXuo8Z7dBZ2TTc1GeFYKAG+SHTs9/7Ee/Ij3QxO2DxQp4XykTVTW+NC6swnmzwLhwSC3BN8IiFj7Zkx/KTB9o2QyFChtvh7MjPsjoxKtT5UWGSftMkxL4Ai2rdUEW1Jaz/CAZsHagIHmjTwQIaCGfE7VoSqL9NpEh0cQruEZ66g/tfDVZEAuUEmTZIflhBz1WVVAwXwL5gWsM62Vy1pCaUEKzHytkzETN9A4EAOPhzJncWbBp8L5QhAXsqT5eN/hQP8+56qdz5r16ORthU3BHced/L3Ux5Hwy9+LfP3cIRRgc7M6Qn5gkEYowNqqGwY6Hv6ruvfvZ8SYPd5J390Bn9I6xA3npFgTcIj8gFmtBxDk+x7eBsq09iF/KzfJDjy/rFwh8kyTpAQKBwCQq7MkPfH/eHUVQGDGFDeuItf74+qvh7FCYpKol6z4mZIl1EeMTWAwABOwtvqLiNlWwVWCxobApA76uKdIiJHpRhwfAAEVEKz/wh+CXe7nEN1A6QHVemeljNmI5F2E9FWAPPTZVUBxYCvlBu46O+MhoPkQkP9wyYqFKEALsEACMh3cu5QqDP7eOiX5R9064fNaCL+c/O9YklQ/YsjZw9/Fnx5o+zaqfevrcVh7K87szz4Qi7J3dVY9muasvik0PvJ19vvBacsXoA5r4ew/0li+XQGdk13dRrhWBgNfJj1F8A1xCfNDMexCcFV58pdMvyjOIcwnxUiTJtic/9Di/t7ORq7Y8bl1Oo+ZsWJTpaA6idnnGeotddKnKgYa5UhdfKTN9tlrunUU1Mlea5JskI6JNgIZZ1OnxiQVK5EZ/WSKsHOQS3zXQTsS4z5oLkWZk8MgTHzxsBjbLvPNVu3gVJdzFHnosqlhy+TEqE62OLbGxlRbNh4jkx4oYMVEjvQUBwHj4olAutVPVq3Opfd6Nv7en+pc2+iVVtZrJgD3V/yrqcLTSL3Jb6gfuOVrK6/J/c6a1uHXM69x2xmHQGb1l9EB+ugEBr5MfpLQwTX9Y/IPHlOOkmcxD7mqlzMLnPfALbM5rV34s6jSlcX7+cXlq8gCNhdGRgSLFMESLpwq2hm9PirGabVCJQ/1DkqtU06atk0a1Y5hMTW7FS8NcqfID36ELnlGZLCosbxwBG+/O4adMBJn2+YX8wduuyovEt381xb7PqWWZcck5SaFg9gPfNThQEClRELvWLvR3lidFpWZnRJPCDA+UL4j19UkoJf2fkhfu3J53Mt7m7Ae+52xYHoyMXfTsV0Fpl2tnP5QXJMVqlTn0fAzL2xmydhtxkiDFE+MtzYeI5IcbxitUBUKALQKA8ThDm1BZWgSeL7wUirDrww+s3+Y3DQtF2PG6QetXdp9Ia21Op9gt60UZTjcM//tnh7WZFzXQ2lXQGdn2XpRvBSCwIuSHXiUmJkzMP+qzkB+mU8/J48P9gkO2irJlE/DGU/1liQIBdQNWIz3FTz03HWq+KiAkKlFS6Ij80C+qykTEoemr8amVOVVZVjx+uLjx8guOTDqL2dwW1ngUt+nA9U3x0nrjNl+Q/NAv9neWbCes+QXHSUqwkQUr6owbIfxfHbRNXNjeb7nCykIM4PMnFdsjiBPcod2K8VPPGdCzUwWF9FvUaBnSbcppGZ1CKQ7d0oWeT48Zg/VNCK8OiomXlsttIkxsvGsBKbEYD5JwxrkjSz/5awI8MeWaNNr5agUM/su8iYDxWJMhNzzpGHsYckgBYqk5JyKPt8y9MO/T6uFm1++TC0VYTd9dAmEXeWswGFxkGZl1UdcAnXGZDzqoeY4g4HXyA+KRriFeFouOUBUIgRWJAJIfjoyiKK8nIgAYj4sYFbPZPMXQ1+d6CnrnnfmTKtdFnbDYXSqvfujrsy4w66C3OyvG39tbm9/zHLROqnoSfKjhdXHFMHSqoItAMBgMHoIDaD6coPnUrOBdt79ul/wuXMpumsasa74MzF9sbm9BZ/TEkQL5tEQIIPmB9AxCACFARQDJjyUakFG1vCEAGA83wuRkqa/PqH6QTdjllMwZNl/QZNVYrEeKc41ZR73dWtz/++xm4Lzk2r11++ve21t7pNrCW0fNAoNwwhoEg8HgITjAfoK0tcPWOETnq7+5oAFF2CSszboIBCe/+bTFQWfkrXsjQ96PAJIfVOKFZj8QAggBJD+8f2xf6S0AjIeWD7n64Zu7ZCc69GxoJUOeMGlzs+XJgx5i9rOTHZtOdRCef3fltlCEfVGgdpu3BoPBQ3Cg/ezY4PCD7M7vjjTRFrf1kI1ZW2UZnlubdUXXAJ1xpY9KqP0QAkh+IPmBEEAIUBFA8gMaJFHSKxEAjMcVdIrZZtvt6U+yGhk4H5tXJ9XP/JIr5hfMgR+eY/ajw42bi/Af7zdf0AhF2D9/HXabtwaDwXNwsP4cWeJwsuuZXzKW3TpjbYH2CUuztGUZHlqbZf5ic34LOqNXDiXIadcggOQHlXihX74RAggBJD9cM94iq+5DADAezpyJc8ET127FnetloH1sXqXU6KLzLAI/TihuOR9PQmPWcW/XplX98/JwZF6bUIRJrt0r6J3nxaw1LNZmDQaD5+DAxmFbX4YNUuW/y0etLdA+scbBRSBw/s4zFwSd0X39H9Xk8Qgg+YHkB0IAIUBFAMkPjx+6kYN2EACMh5kYueJt7OlWUZXzgR99lHP9vnKNWUe9PdP9/H/bW/32wLV1++uOtz0l6PLmC1RvHTVLS7utzRoMBg/BgaXDtnD4+6XBz0620xqxfmiNg4tAcEV3MBgMoDPa6bTo9UpCAMkPKvFCv3wjBBACSH6spP8FlmdbAeNxEaNiMOufWpnbMWtNIh16svHHZuWQxcEaa1xj1lFvt/86JBRhG6RKuDnW3jpqFrYG0tZmDQaDh+AAnIQT1g7bwiGjafpdiRwuy5C2NusiEBi+1c68Ap1xeY41qFWcEEDyA8kPhABCgIoAkh+chlNUyIMQAIzHGdrEoeyNkanQLMeiiq15Z17Xs9fFFQsvXwEHPMTsP365JRRha3bJzkC77rrNW4PB4CE4WH9kBb3zjuKwbn/d7rpJWlPwQ0fNwmUZ0tZmwZeN9wTojB40QCBXlhoBJD+oxAv98o0QQAgg+bHUIzOq31kEAOPhnUsxGzxedyvuvLOBH+Jq7Zcnr8MV5bjGrEPeflmgFoqwyLz2j7PMu+4W9M5be+uQWVsU2dqswWDwBBzYO8yMwxf56r8W3bRlDTy3xsFFIMDfN37ToDM626tR+WWEAJIfSH4gBBACVASQ/FhGg/wKbQpgPPwSKbvW/nLqenKVFnBHbolvzvcdqx2E64pxjVmW3h5re7rx6PU3Uiozmx9uOtVBCVqw9palWWZwrM0aDIalxcFRh5lxEMkmKEKO1r41Di4CAf6+8ZsGnXGFDkao2XQIIPlBJV7ol2+EAEIAyQ+60RI98yYEAOPhl0gxW3v1yvBGSmVup7OBHxuym1qHp0BdS2uWOFXwo8ONxIKr3x1uohyZ5x5vDQbD0uJAqw3gh47icEr9TCjCflQ9ho1Ypx01a22B9gnFLPiyuSIBOqM3jSDIVxcjgOQHkh8IAYQAFQEkP1w88CLzLkcAMB5X0ClbNluHpzZkOxv4kds5+0ZK5Stz3IdhCc3uMJ4qGPX/23v3oLauPN93/zFV+aOrOn+cslFVO+7BdnpufNvukOP0gTOMXZbLzDEuesaaZvoEO32Dcc9pis7YDOMT+uIUGVqEGQdId6LC3RhTZ7iR0mCEZQeBjZAckCUwD2EQYARYRja2ZBNbtkiH6nZV69baL6390BM90c+VCltba6/1W5/10O+71+s3RtaFffW0+mfKKfZj3Kz1eBLJgc2vv4vIOPxNXf/PP5/2F6di+Elk0QaIkPpKGK2/Kh2V+2xjjHmzhwRShwDID77jFejNt9tqW7YGCrAaTmwQOM4EoPhCBg7yI3X6cLBUnADr8UTFfwoxkv+4bPnH390M6vwFDnBKbTvya87Cj2hF+/dhRkudKvj//OcEa/CnQ2jX3X/VLLB3YmctD4LH40kUBzazAS4i4/DT/2Nhz48XjTyyaEWjwm+eUtt4lSHEGh5ZMLYxirdVuJuWBEB+hCMYDOWEtHYkZB8OhEo8CEyerz7XbqMLZaz7XKVy0k+ZQvGFXHVBfqTlz8GGyjTr8UTmMEX21N993F/etd6FH4W/G/7oygRuQLSiPRtytL8xr+Q1DvCUhmL4yb/13XvlZHuN7j7ry8bOWh4Ej8cTfw5sNoNeRMah+qrj//7l5QCRRxZtgAiprwp/N8yrDHh9i/o12xg3VBcDmVkfgVSUH6amIwT+b/PO7NxjlcrxsTCdXevUuMkRskOGIk8n/9Ux1zu14sePF4NmUx/dnFGuE/sqzHIJI1FBoaC6UXrZzwhVjIsvYQRiwBzkx/r6VXg68QRYjyfqvpS/CN3Pnv9leUfjjcdBnb/AAXLlV69P+RZ+xD/af+u798Oa3p2/1PwHc6oga/DJzrnXKjW/Ma+wd+JjrcfjiT8HNo+hXETMYVfVFerkeNFUIo5WNDb2Ji9af1U6WvfZxpj4fgEsSBoCqSo/OC6my2RUVxft3bT5rYZwhiY01UfCHMqIsf8aWzc9TCdVV5fX6G8YQTSqmbY63yhEmBJCNMIQb3IKJZHyw5UoAiGCCicYyI+k6aLBkAgJsB5PtFyooPHobt3d+yFnR1rW2wv9omHw0faKi3ha0Yp2W2jRnlLbXj3dte/f+0VtPtY6nv0r3+KW2FnLg+DxeOLMQTT7/m6uh8OPFKailjHRmNcTrWiE1M2GwUe8yoDXt1hcs40xwsYMj21EAhtCftB+laHprU2bT7aFOqCxfL443JlUHE83jh52OI5jlDTMmPJEdnjyIwFGkkXAKZSEyo9EEYhBuiA/NmJvn155Yj2eWLhTonHWacZ/0rzehR8n1XP/8Bs9Hn+0opWFEO075KmC//Bbv+eW5P/GmNc4wLq2sbOWB8Hj8cSTA5vBEC/Ww+Fk59xf1/aJJrSeaEUjpG6eVM/xKgNe32JxzTbG9OqDILcBCWwk+THvcrWVZuysu8kIA7epu7Wy+EjWVnKq1tY3jzaO09NyjM2Fh6XbN2dsz5Vmk/+Vd1MTjfw/4pvn4zZ1ygtzd24iiE2v7i2s7uNO+lpsb5IfPfzmFjLNLXtO1BpdjD2r8y5X74UzhXu2UXPHtuw5crRuAHvcber86OgB8tvNOws4X4m6mIttdSfyqNg278wu+rTXJ718X2169dDxpptYKqvzU615aPhosa36WParGQTKyKHjF2YYO282FB3JfjVj06t7KTjZlX0kt6BwfNrP1HTkeOfK/JS2smjv9s0EQWRsP3BSMeJmkgiKAs9v0HR9MjIE+RGo+NorCaHo4sU51v3R0QOo9Eluewsr1QZa8hnKibAIrM67Apa4Y1xReYyuvcS2rMMnqnXLNMAAX0VFf4L8CNhtwpcpQID1eGLhTonGWdCo+5dL8wHcvlC++vFvh+q7OQs/ohJt4W+H67/gR/sT7pl3f6cwv3KyPfBGTNm/ulqIra2PkbXCaD0eT+w4JLbUfm1aeeVk+79ff0hVD3xZv5BDjCCI1uco3mQbYwp0HGBivAhsLPmxOt99ZtOrdRraA1tpr5MrdDO05LANVB4gjioZB84113DY57YybnHgR9CL9uOnjhXWGQwO0pN2zJ0/9eYmWZuJ9fkcfdXVKs0ILTnGdPJ9xInzzMJoU9ORrFOqXhvthVttM+2djCJyrRqa3toi+6idXnGxiGLmzDHDPfLVeYehPHfbvkp1r40STi6DjtUY47UHtu2r1DJGzpw/tXfL4WbGSyblx+Ez5UXHqjvpBTPWKXXpHiKvaY7hsGpqOiJwxIPC4TjfeZUfFBZ91GZcIuNcMSkrsogjDVN0LgKjYM2gng1YjuGNfgQuvqDyw9p9JstXRqvzjsXezgEGLF9+BCYwH6TE5xoOv1l6gV3RtDI2YmijpWyAr7iVhK2W4V6A/IhXDwzpxIoA6/FE0YsKENUT97Otpzo+Nq134cdfy3u/nHawCcU02v/x8cBbLejU7bPkqYJbT7W/37sUWCN97393nfjMt+tufKz1eDwx5ZDwUtv77/0l/9+k9CPDjtPqE59NskUQN7xsfYvRBdsYY9XaId4UJBAX+bHUVpm3hSC2HDh5Ppy1GVwf1OdX8d5Gc4LZOo4S7ygYd5/zlWvV2nmSKFYz65JF5YcvFepZ7iOGcoLYVKzijCS4JmsPEKXd/AeZpFfaSomjSkqNoBSrjX5C2jqObj3BtdxUuesNf+E11buzKg1MXjhxGhrzdpaquUYuKYow6TXVmkfsPq6khAH9LMrpgXOMJy0qPzipzPN58p1vYtdJVneRNBCKffSEroAogvnKgkLxychAdQPtHBCk+ILKj/ZKtjT5NMidCTgCLCCB1fnAJT7Vmpf7ca8oigBfiYaP4CbIjxTszMFkDgHW44mRR8WL9tqEfV/dehd+1A+6dvxrJx5z7KLNqel55WT7Kyfb3/nPid1VX/zXau0n5q9Yxxe/+JXufq1+uX4QnaX4ysn2CmaEJ27Wejye2HFIYKlVXJqXnRt6o1pLFQT1/9OX6U2N44kXr3KxuGYbI6eJwof0JhAH+TF24Rg11wj9H3NwGQdd6MYFuRPMxfQ5o/wkkN/2KeNhhyQ/0Dwl3yPIf2W0hM9IQ1MBUWngp8X4fNgwAvK/Cy9wnH72KVPTkZ2nqDlOvpg1lRmMv+67iR5xXD5OHPGzzn6yNldaqeNvWoVc9iJGOE215gkXySBNwvGeBaMfXBtc5CgKBw7nceHQDVZwgVCwTPxe8AvFV+JYEgJrSfkRuPiCyg9Do3RntcmPYXwBFpAAEniBShwVsR8hHeArptb5sVDIxM8dkB/p/buwEXLPejyxcKeEccovjf+keQT32iO4/ufOucJPDHjk0Yr2x4Jo/7v8Guv1/u3HvuUcombv+/f+V0627z7zxSsn22VNQ/+ktJ7snPsn1XSMrOVF6/F4YschgaXWaHy87z/0bCm8crJ9x7+qf22idxWLW2XA61uMrtnGuBF6FshDlAjEQX60V/rUB0GcaV+3hxTMxfQ5o3wnjOO2RiY/xCLvfo843Oqbf8XNICY/VudH2gq3ZmSXnmtnZmexFrafElEmfnM68ml2bp3Gt9IDcyLR+M/Pzwu/GmnOY+FzODDPRlt+CNULJzv+UbBM/F5w7A9v8pXIXmdY8QWVH+Sct4wth+XnjUuCoSe+/AhMIGiJGy4c27J57/FGZqYfVq8CfOUXGvZ48DAgP6LUwUI0CSPAejwx8qh40R6u11Vo1r3w49xQo/YWHnN0ov3tUGM3J9r/cbYP93p/cOaLOsMDUeFB3Sxuu4WHf+Vk+7HW8R/HyFpBtB6PJ0YcohOtwODQo/336w//26+usmz/a7WWLYVY4RVUBry+xeiabYwJ6w4g4eQjEAf5EdfRj6m2Atz5njI0VJ/Iyz207wC1xHznJt/bej/yI9AjHE/X58N1nyF80dLrpLMPHNpHrWt/NYPrhi71Ksn15VvzsBXhcw2HcZGGXYsu/+CkyOgHyr/kqgifkfh9jvvOPI4HcPmZfBUEDmf0g5trlApHfiBrRVEw9uDucpB0fZpQkAQeW/DiCy4/kFUrpu7WctnOTZt3FlRrMdkZlvwIrcRt4+frTuzbiiYuNhjZZUtkpgJ8haOL7BrkR/L11WBReARYjydGHhUe7crTZ397Vsc6kRFfZP9b9+DMPTbm2EX73z7ojthI9sH4WOvxeGLHIbVKLRbWspUtphdsYwyvDUPoDU0gDvJj3hW/tR/kAgZ6ehVaJbzn57Xdc7631By3W0R+BHvEn//Kjn642ivfzCo+xywfp31uoSOOFk5MGaqLtjHzcxYVMgJtFRWis6ir27nHz8KAAKMfu860U6MiHA6Mgx5MfoQAJ1z5QSfNRcHYw6AIId11yg+2+FZDkx+MhbZxxam9mw6w0/nCkh9hlfiKqfujwq0ZxzvxXdQoMwJ8xdjJkAy1drlW50F+bOhuPy0yx3o8MfWrUjRyVkL8za+6/6llsLl/2rL4MHBeihQG9qlZhytwYPg2LAJDt+//4P+99MrJ9t/0TIb1YKoEZhtjWnQ9kMnQCMRFfqzDDRLznPy/4UYLrPOaqA1kJ2tzd5d2c901NGeJdRaF8iPoI37WfjRKd1KrwEc+zd71Hu3iM5YbGqWi8oP0BU2Vu+jNoNBS8rrxUB3EQCvsJ2tzv1cpOH2cv/bDx4EpnSDyIxQ4EcoPHgouhFDSDV1+iC3dYYvPJS4/2isz/J+kjqpcOb3xQFjyYzW8EnetzuvkO/3N8QvwFVMPuVSZQvf3LciP0PpPCJW8BFiPJ1VctLjZedE8/0HnqMo4N3//ceiJ/rqHnn/1ae/GdJFDRxGLkP2TS5nlHQPYpmexSCVRcbKNMXn7C7As7gQ2kPxw9Ta+tekAuyJioHxzDm/bKE31m9gsqUWFjOemB30EyQ+BJ2qq3PVmObXUW/fBJv6ghKlyj8hREowvOFmbm0evRtDJd24OfWHMStupjGw/csXQmCcwcqbhcMZRdqurUEY/Lry1nbPGOhQ465EfGAqOTxxKumHIDwEZrPhcq6YLb/kW6FNmOPpKdwkLnXXfV9pKM0rpYavw5AeSE2GU+Or8yKfZ/nZuCPAVByZrdrALkB9x74ohwSgTYD2eRLlcGyzdG7P3XjnZ/neNfRssX8mTncsji8+fP08ee6JoCdsYo9zIIbpUJrAR5Idj2dDdWn5425bD8nbflrvIQd9UzJ7IsaRp+sXxurpC7K2/oTGPmftEeWNBHzGUE++Untpb0Giit7W1mRqK38w6dZn+6NCWbs44emGRVhc2U0PpL6qr32FGPwYUdQYDfUwHWvmgaXxri6yV2YnL1V65d0vue+fZVekoX5c1vhxxXUZy6bbPEhTYxKxDGK89kLGv2jBGTbVyzJw/9WZWcQeTEG/HKiZa7ujH/Mi5fZzdsUKBE7r8CIyCMQm5zqGkG7r8CFh8LnIzXFSC9IQ9clbYsdq6nzOiZfF8k6p3ih1SIw8z2cNMaUM7a4VOAB28GKjEdarq7hm6BJFhplrZtgJqZC/AV5GJDeFTID9SuVcH2xEB1uOJoheV5lH9w6/7R+cfpDkEyH4EBNjGCH0TEGAJpKr8wNZmb9kjzSuWN3ROck+6WJ1HJ0MXkkduE1v2HCu/cHPMZSjH5Me8w1QtI4+v3ryTPvU8yCOGcrR8Ypk5uTxje+6x8iYD4/Qjp9lqVKFFyci8bVlFZxTG5fnuM4z8WGpvPEkdl04fmF2tNnDUBXkGNn1iesb23CNHq1v9yg/kkt5UVLLHlu8trOww+Da8Yk89FzGSu5sw4+vz5IfLpamj6GVsp049DwonDOc7KArGKrTLcOBy5CzI8T8xbxWdyxGs+JBuZE9q37xzX/FH50dQCTLyY8Wg9B1pT2x9M6/0XPsUe5R7uPKDOfVctMRthtpSunDRmfG5xyqVTA0P8JVQSER2B+QH20XCRYoSYD2eCLwleESUQN3lcdH7cBMIBCbANsYU7UzA7FgQSEX5wcxcwkqkO+EAACAASURBVDzUyHwseAoIAAFRAiA/YtHbQpzxJMB6PIEdo1T/dnDmXva/RWEbq7yzfStPn7E0IFqPx5NaENiyS8ILtjHGsweAtJKcAMgPEDNAAAjwCYD8SPKOG8wLSoD1eJLQG4uiSY3aWz8+N8QeFhHZRYVm/nC9DreqsfvWj3+bOtECBLzwku+abYxBmy0ESB8CID/4jpfoy2C4CQTSigDIj/T5DdioOWU9nuRzxqJpUeEnhn/unItMdbBP/aR5RH6JM7HqxykVLUCIZpWKQVxsY9yovQ3kKwICID9AfgABIMAnAPIjgs4UHkkqAqzHEwNvKomi3PGvnfWDLlZIRHaxr+7atQk7niuI1uPxpBYEvPiS7ZptjEnVRYAxiSUA8oPveKXVS27ILBAQJQDyI7H9MqS+fgKsx5NsrlgU7fly2vHX8t7IJAf71Memx1tPdTxx+xZ+QLQejye1IESxUsUiKrYxrr9dQwwbhgDID5AfQAAI8AmA/NgwXXzaZoT1eGLhTiVJnPXdE+tfofEvl+YLGjkLP+q/mCj87TCrTyK7iF+0ACFJqqN/M9jGmLbdEWRcSADkB9/xEn0ZDDeBQFoRAPkh7CvhTmoRYD0e/05Ryn/zD7/Rn1Svf+HHzToNZ+GHLKWiBQjJX4/ZxphafQhYG1MCID9AfgABIMAnAPIjpt0uRB4HAqzHk/zOWcQWbq+42DD4KLLRCfapvR9e0926i9uwLaWiBQh42SXnNdsY49DwIYlUIZCC8mPyfPU57HRzOP0DCACBaBMA+ZEqPTjY6Y8A6/Ekp0O2fquuTy3lyq+yKiKyi8Ybj/+yvMP97DlrD0Tr8XhSCwJbdkl7wTZGf60V7qchgRSUH5xTrvlvbSOZIbN8vjhjU+VANKKKthcYSXbABiCwbgIgP9Lwx2CDZZn1eJLWJ1unYR9dmSj83XpXaJR32f7u437ckrMpFS1AwMsuaa/ZxrjBOhnIznoIgPyYd60aOj+q7V4C+QEEgABNAOTHenpVeDYZCLAeT9L6ZOs07Miv+0+pbZENerBP/ePvbv7HZQtuyd+nVLQAAS+7pL1mG2My9AxgQ5IQAPkBHicQAAJ8AiA/kqSDBjMiJsB6PEnrk63HsOfPPZn/crHBuN6FH39Te1U/ucRaAtF6PJ7UgsCWXTJfsI0x4uYMD248AhtCfiy21Z3I27ONIIhNrx463nRzjD9nabn3wplCOsDewrqBMZehnDjZ5qDnqLRXEsc7V3APbMyoKi/au30zQRDElj1HSpWL+LdwDQQ2OAGQHxuvr0+3HLEeTzK7ZRHbpp9c+pva9S78aDA+yvyXi8996z48EK3Hk2IQIq5C8XyQbYzp1gtBfgMQSH35MV57YNu+Sq3B4UYeoWPm/Km9Ww43G3wKxNVe+eaWoo/apyiBsaRp+nm27K08//LDcOHYlj0/r+2esZKRWG3jmhHXBnc3fbjWvWwAotoABEB+BOg04auUINDT00M5PQ8ePIinpxWftP7jsuUff3eTnUMV2cUpte3vf81Z+BGtaI+kVLQpDSE+9W09qTx48IBqiT09PSnRdYCR8SGQ6vLD0Ji3s1TNHe5YUhQRR5XLtGAwfpS162SbjeNVa6p3E/7kh01VuPmthhFOeNAeQCC9CID8iE//C6nEjsDo6Cjl9ExPT6/HeUrOZ//u4/7yrvUu/Cj83fDZKxN4BqMV7UcpFW1KQ8CLLzmvp6enqZY4Ojoau/YOMaccgRSXH5O1udJKHWfe1Lxr1dp5kihSUZrE0CjNrjZR4xg+D1JXt9OP/DA0Snee6uOH3wDvsyELQCB0AiA/Uq4rB4N5BO7cuUM5PTdu3EhOtyxiq9zPnv9leUfjjceRDXqwT+XKr16f8i38gGg9Hk9qQYi4CsXzwRs3blAt8c6dO7xGCh/TmUBqyw9bx1Hi5+eZJRw+dTHSnEecaUfO1vL5YuKoUjB1aqrVz+SrlbZSovAC7IIFgz/pTQDkRzr/KmyMvD99+pRyejo7O51OZzz9rVinpbt1d++H11gVEdlFw+CjbRUXcVOjFe32lIo2pSHgxZec106ns7Ozk2qJT58+3Rh9C+QiKgRSW35wVYRPfvjuzzUc5i8rR8F8AZCXiS099xM+9NfGEBIIbAACID+i0r1CJIkloNPpKL/HbDYnp3MWmVV1mvGfNK934cdJ9ZzsN3rcgGhF+w8pFW1KQ8CLLzmvzWYz1QZ1Ol1iewNIPdkIpLb8CDD6setMOxoVWVTIwpIffkZLNoBDCVkAAqETAPmRbD012BMBgeXlZcr1UalUd+/eTU7/LAKrChp1/3JpPrJBD/apwt8O13/BWfgRlWh//Nuh+u6UiTbVIURQeeL5yN27d9kGuLy8HEEThkc2MIHUlh+uydrc71Xq+PNk8LUfmurdWXXjvoERygPzv/ZDU717e7WJHz50vw1CAoENQADkxwbu9NMqayMjI5QDpNfrn+NbzMbTC4tqWk/cz7ae6vjYtN6FH38t7/1y2sGaBtF6PJ7UgsCWXXJePH/+XK/XU61vZGQkrbodyGwoBFJcfqwaGvOI0svcleIzDYczjiqZ9Rs6+c5ddRquRxho56uRc/tE15NwYwB9AgQ2MgGQH6H0nhAm+Ql8/fXXly5donyg/v7+J0+eJKevFrpV1ybs++rWu/CjftC141878UQhWo/Hk1oQ8OJLtusnT5709/dT7e7SpUtff/118vcVYGGcCaS6/Jh3jdceyNhXbRijFqCjcz/ezCruwM79WDpfnLGpuM1Er1BH534UFp/I9rPz1bzL1V65d9OeivP0OSFu69S4ZoTZxhdECBBIBwIgP+LcEUNysSNgs9koN0ilUl27du3Ro0fJ5quFZY/80vhPmkfYOVSRXfxz59yPPzHg6UYr2sKUijalIeDFl1TXjx49unbtGtvobDZb7Fo3xJy6BFJffqAFHsyp5xnbc4+VNxlMfAdxqb3uxL6t6AhzdCx648DYiL+dr6h5XG5T50dHD7+5BT2xLevwiepuZiyFHzN/3tdGfiMOeU8fAiA/UrdPB8uFBGZmZlhnSKvVLi8vJ5W7FpYxh+t1FZr1Lvz48W+HGrtv4elGJ9pzQ43a1Ik2xSHgxZc818vLy1qtlm1uMzMzwvYId4CA1+tNQfkRDY+fu/MVaAYgAAQ4BEB+wM/DBiOAj4F0dHTcusXxkpPHewtsycrTZ397VvfKyfZ1/pf9b92DM/fYtCBaj8eTWhDYskuqi1u3bnV0dLDaA8Y9NlgvGt3spKn80NXtzP24N31eZkNOgUBYBEB+RLefhdiSgcDi4iLrGKlUqv7+fofDt/Y6qdw4MAYIpBYBh8PBLvagWtni4mIytHqwIWkJpKf80FTv3llp4C5Yj8agSlgeHgQGAklLAORH0nbZYNh6COA7gapUqs8//3x8fDy1/DywFggkG4Hx8fHPP/8c1/Z3795dTzuFZ9OBwMaXH1Ntx0+1akaWabHhWNI0Htuy9ZhiBPQGEAACfgiA/EiH3j898/j48eMvv/wSd5V6enpmZmaSzaUDe4BA8hOYmZnp6enBW9OXX375+PHj9OxbINdhEdj48sMx194kP3pYmkUvPd9bWNnaNuLizHRP2pfQYBgQSAgBkB9hdaMQOOUIzM/PazQa3G26evXq7du3k9/hAwuBQDIQuH379tWrV/EWpNFo5ufnU64rAIMTRWDjy4+EeG+QKBBIaQIgPxLVI0O6cSPwhz/8YXR0FPefVCqVTqebn59PBvcObAACyUlgfn5ep9PxGs7o6Ogf/vCHuDVeSGgDEAD5AcMgQAAI8AmA/NgAnTtkIRQCDx48EPpS/f39c3Nzyen8paxVCxeOEN99c9++/cx/x95VqK33xfJzX/lT4nvvG5mvFtrfZZ/64TYiYycTw/59tQN0IOOvfkD8z88WmEfgbywIzM3N8daXU4r9wYMHobQ1CAMEcAIgP/iOV0q/tAbjgUBUCID8wHtJuN7wBO7cuSMUIT09PVNTU0+fPo2FJ5d+cSL5cfoalu+7o5+9ty/jYK3Rid1El1bFwbwfFWRwAjNB+quIHzVbmU/M38dfnN72ox8d/NGFaeYO/I0egadPn05NTfHWeFDC486dOxu+c4AMxogAyA+QH0AACPAJgPyIUYcL0SYzAYfDcf36dd6sEo1GMzo66nTyfeToeXdpEpNAfqB8PzZW/5A4+cVjnMGN2h8cuTB6+XQG7z4ZRlR+3Ff+NOO9/tGmvH2fCJQJHjNch0nA6XSOjo7yVkmpVKrr1687HI5kbstgW/ITAPnBd7yi8vIYIgECKU0A5Efy991gYYwIPHz48MaNGzwR0t7ebjKZFhYWnj17FqYLB8EpAqLyw+N5/MW7xI8uYGv+jb/6wU//c8Hz+IvTGYXC2VRi8uP+Z8d+8P6Ax3NLkYdN2QLuERN49uzZwsKCyWRqb2/nNYQbN248fPgwRk0Pok0rAiA/QH4AASDAJwDyI61+BiCzQgKPHz8eHh7m+V4qlaqrq8toNM7NzX311VcRu3dp+aAf+eG533mCON3NIEGq4586yaEm469+UPif/NUcIvLjliJvf/0oiuD+Z8f+CukQ+BcRga+++mpubs5oNHZ1dQlr/vDwMOyoK+wo4E7EBEB+8B2vlH5pDcYDgagQAPkRcZcKD24kAh6PZ25uzmAwCL2xixcvXr9+fXp6+tGjRxE5e+n2kD/54cEVBZpGxc65ulH7g/0K3mwqPDBF0PirH+Qxc67QmnX28XQDHGl+Hz16ND09ff369YsXLwrrucFgoLZh2EjtGvKSDARAfoD8AAJAgE8A5Ecy9M5gQ/IQePbs2ezsrHDbH+rodJ1OZ7FYlpaWIvUA0+G5UOQHM42K5mFV7P9h/RgHjkB+GGt3/9Q3RwtN5aIHTziPwQcBgaWlJYvFotPpeAeWUwqkv79/dnb22bNnydMGwZINRiCF5YdjoDL3W1mVfWNRed3Lj8Rttc2NOdykW+bS1B3Z/upbtUbysMKpjuN7tmWfUpuoR2yLJtsK33vjx+bnbOlYBHMsm6aYI95jET/EGXMC7rHuD/ZtfePohUmra3XeMdlQtHvLAXm7jaqNcalLID82WEcP2YkWgadPn05PT/f19QnfE6tUKo1GMzg4ODMzs7KyIvD30vyGP/mx8Nn/zHhfT8K5pcjL+Ct2j1108eZ3/6qa3YAXheHJj8fdpzO2/ZDzyM4M4ZStNEfPZn9lZWVmZmZwcFC4mpyqz319fdPT00+fPo1We4F4gIA/AqkpP9xjU5O93a3HdxHbi5vbdeMGUQHgmDxffWQTsa3wwgxy49j/RtoKNxPYv+/szC0oKP2godsXzGr8NI8gCNm5XsfqvGtZU51HEIeqdZT8UB3dSmwv7UDyw2aozCWIrScUU0miQBbbTr1BEG+Wdi758stmHC5Sg4B7rLNiJ/FfCpoo+TFee/hbxJ4zID/8dWJwHwgkgMBXX31ltVr1er3oy2OVStXT0zM2Nnbv3j3W+UvvCz/y4+5nPyV++tldxAafRkWzQt++i2+MxZUf9z87lvHuZc6+WR6xKVvpTd5z7969sbEx4c65lOT4/PPP9Xq91Wr96quvEtCQIMl0JZCC8mNJU/fWJkw9UJdZpR0GJBWo/9xWY0f5gZfJr74rLj82782THSsseisvd/dLdGzfKagz0GMpI6qjrxI7KY0RQH44xhtk3yFy4+saBvKhlzXVh4iXjlTrlhkULBO4SBUCID/StTuGfKcigW+++WZpaWlkZESr1YoOiXR0dOh0utHR0YWFhTResC4qPx73V/3wh7+ixjf638/AplHRiuH+Z8cIXGBw5MftCz/a/b6Rfy6LsXb3PsWttFYcX3311cLCwujoqE6n6+joEK2WWq12ZGRkaWnpm2++ScV2BzanOoGUkx9j3fJsgiBefau0uiJvM7G9+Fxbt1ZR91550zgzxLHce+G9fUhR7M47/AZBiMsPeviCduVdpu5PC7cSBHGEnmHFcfH9j35wgsXWu7Ua28qLK2pBV8SReYIkHMiPVO9Wwf50JfD8+XObzTY4ONjZ2Snq81ETtAYGBiYnJ9NsYIQvPx7f7lf8rx/+8H99ZiX1A5pGdewz4SHojy+/ix9njssPa1PeD2jpwhEb1k/28aZscb7eoB/u3bs3OTk5MDDgb2KVSqXq7OwcHBy02WzPnz9P1zYK+U4WAqkmP1y9jUcI4g00ucjf2g/HzPnSN4hd79Tq5gzKk9tDkh/UDCspQeympy05JtuamhWd1HSsAPJjqVfZ2nDBYPINvKxabZOaztbqypPHSyvKqz9V6OYYXYTm8bddaD2vWxwbMZxv+qj81C+On/qguulybwjT+kndtfO4cjGgT7xi0nU0NHVoqAjDTo7MjvKmacrU1vRxeekvSis/PW+kBlLcVubm8VPy2gsDKMuO8bam5gblTf7yG9vN803NDZ3j9H3bZLuyufrUyeOnzlQ2qrHMouQUneNjtvH2C+cqEbH3Khvb2kbYoRv3mFHd0NTWzp3bZh3RKpra2kbIuXC0GlkxGbWKxg9KS0+WVn6Mz6MT4rJS9lS/d7z4F6WVH3HsD06MJHyhz2Bb7O1sq61+73jpSVTK2My9+amB803NCh23pEgmWDD32MhAW9OnKNfFJ8urz5331RNx+fGZvldBRuurTmTeSRqt53VRnW4Haz+SpYcGO1KWwMrKyvT0dH9/v/DwBFyZ9PT0DA0N3b592+VybVDHmMoWkh8ZO/eR6zTy8g7t+9GJ2gv6BWbilNg0Kuo57gEgmPww1u7OEx/lSI8DQFwu1+3bt4eGhvzNqqKqWXt7e39///T09MrKSso2JjB8AxJINfmxYmh66yUkPxb9yg+0JGOGXA3iNoUhP5baTr1JEHmV1PDCFLXAg1pf7l9+OMh5+bkftNuooY8Vk/I9NDjD+fe9QnZkhoz227l5OzkBCCL3TNtUkIXFockPytSCanqVPMpFGMlR2Xn5jSzf2hhKj7l6m36RxbV5e3Fz7/xkQ1EGsfkdxQi+9GXF0HRsE5FRiJYuuMd01LAS9vCeCjo8Su5lYqt036vYtwSBJo91U840VdyMJqSVhtuk/PkWYtvRCzO0tHDMnD8l5UbxnYK6Ab4ooh6fUh/nJUcQ2ZVaeiOB4AVEEd65L/e73BS3FTbdpISBVffRPoLIrh7AdYJ1pLngJWLnKS1l1Vj3B4J6svs4vUhJXH60my4iyw98pMG07rxrsa10N0EcoustjWjdA3EgPzZgZw9ZShwBt9u9uLg4PDzsb4IW5Sl2dnbq9frx8fE7d+48fcqfVLShxQlkLjiBp0+f3rlzZ3x8XK/XBxheU6lUWq12eHh4cXHR7XYnrtZDykAgEIG4yI+ltsq8LQSx5cDJ8yPrdYysxuaClwli14nqC62le/4i4M5XocuPZYPyAzRf6zDj202pjm4mtpeGJz+sxubClwnipUPlFwYMNpfVNqe5cCYP3Slkds1C0aJ/uScbumfGHK6xkb6G4jcJ4i/yGtnJY+KIQpYfUoLA5EdYySE98BekeRUN3ZPIvKk5k2NlrFu+jyA2HT6j0CGbTUZ1pWwbQXynsGnk+oWfb2EXSVO+r2O8VvYyWo4/sjI/pS7dRRCvHqtUmkw219iUSVFZ8G2CAcsmh4ihANapm211x7YTxKZiFakHQpEfy5q6wm8TRPap5vaRJatjydD56dFdaB4drcH4HvlSe+MHlU1qzcii1bFs0LWW5hLEy281UAqKLPeABUTJD4IgvltQre6dWkalrJSjUt5V0UYOOll1dUHlx7zjZkO1vFZpQDE45jTKD9BWB7S08CM/bIvtlTkEIS3vZkeHVudJvUQc/pTcI0G85gjHf4LfAfkRqNeE74DAOgi8ePHC5XJNT08PDAyInu/Gjo1cunSpr6/PbDZPTk7euXNnow+PBPe/0yqEy+W6c+fO5OSk2Wzu6+u7dOkSWzGEF11dXQMDA9PT0y6X68WLF+uonvAoEIgTgTjIj7ELx0iPm/zfgXMGvjsYrs+0YuokpQIZ30uH32vonBR/z+0KJD98JtFX380uqvPN54lEfrjQsm/klJMbFtHZpIYC0LtwZCTl3b7M7OFLhrEaP85jPXIuHOuUQdF0rrYR/Vd96sgmgsguraM+1vJnH1EYlzXVAvkRcnLztB54Ew0usZY4ZhRF3yU2H6MddNpmtDPYt4taDWOXkcDA3F8sO9RMud3HlXO+2Ki9wl49eX7KzST3vaP41mQ2Q/kegkADSu55VwjyY4oy4GNsTGDFcOGdTQSRV0cPR/hSZzPlu1gxNBYSxM7jVJaDFxAtP7JOXaYHTFBUi+dLd7KqLyT54TOAKri588XbmHEkf/LDPUYKG3YIheTzziYig94jix9nuC0LCw/yI04dMCST9gS+/vrrpaWl8fHxvr4+f5tose7m73//+y+++OL69eujo6Ozs7P37t178uRJWjnlGzKzT548uXfv3uzs7Ojo6PXr17/44ovf//73bKGLXnz++ed9fX3j4+NLS0tff/112jcjAJB6BOIgP9orcVf/THs0nCTr1MD5upPk+nIUeVbxpz7l4Is/oPygd746VnBYup02cHdho8E3CSfc0Q90PkMGsfmEgjeNitrnV9aMNuaivFvqmrWTnA707aI2oTCj19nj/HzX3xNbByImP0JOjtYDvCzYtEhg5L6n6Db1Gm9S/2k6z6GV+gfqNI6l9sq9vl2J6V3CyJ1/HTOK4u8SREGlcoB9sFenrjz8MkEU1hpX6OTQtsXYxDMKI6VPQpAfY7q6bILaf5m2rddoam86uZPwzXQSlx+OJdPIZK/R1IYGT7YdpTRS8AKi5Ae5+ogtQZert66AIPZS4xLhyA+31bZoGBnv1fU1FH2PeIkahPErPxAx2beIV3+BxBs6EoQZaOKujRHPr89aTGb4uwnyI/X6crB4QxD46quvbDab2WzWarVB1QjlmKrV6qtXr964cWNiYmJhYeHhw4cb0kffMJl6+PDhwsLCxMTEjRs3rl69qlarRQUG7+bnn3+u1WrNZrPNZoMdcjdEW0/3TMRBfkR79INxntDSc2KL7ExlKTnvn35fznyL/KpA8oO785XbOmWoLfoeeWIG+aqedEPDm3zlMFXnEiLnM9i05buYeTWcaBlTpy6XvkqOJHDm9DPfMg5ixJOvmFwwEQZIDo1+fIvY8x41iYjyYtGiBZ/m4V6RzBlvm9yz2GYozyWIXPKMPIep+gA3vO8TOT2MTo67bTEabPkOEar8oNaB+OLFr/gZp0kuaZrey+Mv/+DID/6DHGKUwGMOgaHjpMZ5wpEfjvHz1W/xlwAFlR8uamCH3szNqvM7brZeBQLyI91/GSD/yUHg+fPn9+/fn56eNpvNvb29gVex4w5rV1dXT0+PwWAwm80Wi2V2dtZutz98+BCWlMRBxjx9+vThw4d2u312dtZisZjNZoPB0NPTE3iuHV587e3tvb29ZrN5enr6/v37sFFVcjRHsCKaBOIgP+Zd0Vz74fOr2J2v6BfwOeX0emXGzw5DfqBHKDeantnC0QnUC2/G46RXpZPHDlIONLX0fOPID44eoOXHnhOV5BwweuoXeU1v+eW4yZyLtzLW+V4WQeyrM6FV1xSQlwtK6+j5Y75nqb25cHqMypoPRX6guVXU0nNafmwv+sAXOW1ns6ITnwVH1YolTd0RdMxL7juldc2Kzj6NTmT0IwT5wayuEZcfYkvPyYMs6drluNlQtI0giJ2yisrGtvPdA5oQRz/Q/D20dP4ldCDmEnkaZmyOmAT5Ec1eFuICAtEjsLq6+uDBg9nZ2eHh4WvXrl28eBF3W0O57ujouHz58rVr1wYGBm7evDk5OWmz2RwOx6NHj54/fx4H73wDJPH8+fNHjx45HA6bzTY5OXnz5s2BgYFr165dvnzZ3zkbAYrm4sWL165dGx4enp2dffDgwerqavTqC8QEBJKUQFzkB6sHonrByg80RefYt6ndeFkvFl2EPvpByQ/kNdKuZyTyY7JB9l+Ek6+s5OQrtEyCmXwV0Lv1iyiOox8c+UH5u/jqDp8CpGlT61veKFUOnEe7MDFnp1BCIsCR8KHKD2ZhBuPra+oOEczOV9QWUtnVzHmRnAoggEktFNlTge0zRg1chDv6EZL8wJYkuce6z2Qx88HGdOjsmi3Fbb6DMilWwUc/VuddS+QC9EOVnWpmoEmQzcAQQvkW5EeSdthgFhAQEPjmm2+cTqfNZhsZGenv7w9xMo8/b1itVmu1Wp1Od/36daPRODw8PDY2duvWrenp6bm5uTt37jgcjgcPHjx69OjJkycbRq48f/78yZMnjx49evDggcPhuHPnztzc3PT09K1bt8bGxoaHh41G4/Xr13U6nVarXT/h/v7+kZERm83mdDrh1D9BjYYbaUEg1eTHiqm743z3uMnhZjbe1RqMqtI9BPHqzxX8GfBhyY9lTd0Rgni5gNokNwL5gZY9SNEeVnUmzO9c1qBVAZyl5+uSH/iicBE/UmTtRxjJic6Gcs0oirdR09LwnWQ5ImSq4+hW4qXcgmy0Hp1c5YJsc/U2vvUS8a28Rj9LwIPLD2pw4y84MdgGKtGcLmbjXZuWLH1yoy0RIFzXnBy52oQvs7ENkDPEoio/yOlqKBXfbLpFcltnajmKmxojwjPF7JkWbO0HmUFqAfqmPW98mx1oCprxcAOA/EiL7h8yuUEJ/OlPf3r+/LnL5bLb7TMzM2NjY4ODg9euXdNoNCGuJ/EnToT3Ozo6urq6rly50tPT09fXZzAYjEbj0NDQ6Ojo+Pj4xMTErVu3pqamrFbrzMzM7du35+bm5ufnFxYW7ty5Y7fbl5aW7t27d//+/QcPHjx8+NDlcj169GhlZeXJkydPnz599uzZc/Lfs2fPnj59+uTJk5WVlUePHrlcrocPHz548OD+/fv37t1b/gXZ2AAAIABJREFUWlqy2+137txZWFiYn5+fm5u7ffv2zMyM1Wqdmpq6devWxMTE+Pj46Ojo0NCQ0Wg0GAx9fX09PT1Xrlzp6uqKYLxCyAG/8/nnn2s0mmvXrg0ODo6Njc3MzNjtdpfL9fz58z/96U8btNJBtoBAeARSTX5Qa3zxGf7UdV45fUQg7m4Gkh/fln3UpqMWK5s0na2VxXtRROz5G5HIj1VqLj5BZORVtraPLJlG+hpOHUJTfdi9pzjRMqZylhYwN8P1F+nwsZAf7jHdR2hbWOKNwupmNFPIeFPTfbmh+r3yC+xmwYttp94gSwKpAp9KmdKiN/TE3uONWg21bF1nON8kL60mdzQOLj9WrSOtaC/jzYWVynFyn2JDQ2kOmxApgVy9jcc2EQSxtbC8saMNrY83aTrbqivfEzkh3obWCxEvFZRTGwGP9NUWM2ZjS88DCjYuYRo7Z+0HmnWGBNLOwkYt2n95aryt7h1qewNq8pXVeA5J0tyKBrSRMbP5LzrwJCT5QS7Z/xaCwG7oHGFt8V/ZQH6E149CaCCQOgS++eabJ0+eLC8vz8/PT05ODg8PGwwGrVYb+CgJ3L2Ga+oEca1WazAYhoeHJycn5+fnl5eXnzx5AqMZqdMUwNJEEkg1+bFqnTIh/7X4nULZIeTS5f6i+kJfrw0/9o51qgLJD9KF5fxvu+yMgj7hmz5OgXFDQ1v7gVxAl0H5AToCAv+39UilkvHI6XUj1HEijJ2s/IiCE0mZykwNCjc58dGPVbTBq/IMu88Yk7kc5pg8NM+NPkePXjLOZM21ajW2Hd/DPEH/fXlfJblrbQjyY9613Nt0gtmajHp+Z54sj1n7QSW02F6NdiXm/Nv1Dn3WCofqiklZwT3vL6ew9NhO4nu+na+2MhPw2Ac5BcQlTIfhyg9E4+MC39GNyK4s2VvZzOSreddie3UB0qXsv11vHS/eyxw/4n/nKzo5emfhTdSMPtbOKF6A/EhkrwxpA4EEEXjx4oXH43n06NHy8vLdu3fn5+dnZmYmJyfHxsaGhoYGBwf1ev3Vq1e7u7svXboU9UGDxKqajo6OS5cudXd3X716Va/XDw4ODg0NjY2NTU5OzszMzM/P3717d3l5+dGjRx6PB87WSFANhWQ3DoGUkx++OT++tR8+Z9f3LeWK2eZ6jePkCehYGMeSgdlAltkQdtJEHhiHPb6MwkxR57u5x0YMbZ0DBiqMY07TrW03LpLv+FfGRsZ7R+Z87/vRmeuT7crWBrQAulmhNNBP0a4hHi1r0rLJeLN3ZIkTSYSupNs6NdlrnDTR037CTU4sO4wl1qmbKF9NzQ3Ky+26yTHfzCIqI/5z4ZjTdKrQgxc62rpvYkBEkyNvGuewCWxu65Sp7UJzQ+O5hia1ZmplHpXgOBYPqX9GDOebmhuaWhXKPnSkIGM2VqY0cKttUtPZoUD2aJFw5cQWlBiPsC9OEju2g7BtUqNsQ9Wgqa3NuGR1uUwj40yNogw2tSvbSJ4mNJkQ1dUZiqrVdrO9s08z5SKNdxl0fW3d4xgQSu0wksl/ToV5D/UOyI+N08dDToBAzAj8+c9//uMf//j1118/e/ZsZWXl4cOHDodjcXHx9u3bVqt1cnKSnfV08+bN4eFhs9l848aNwcHBL7/88vr163q9XqfTXbt2rbe3V6vVdnd3X7lyRaPRdHV1dXZ2Xrx4sb29/XPyX3t7+8WLFzs7O7u6ujQazZUrV7q7u7VabW9v77Vr13Q6nV6vv379+pdffjk4OHjjxg2z2Tw8PHzz5k12Dtjk5KTVar19+/bi4qLD4Xj48OHKysqzZ8++/vrrP/7xj3/+859jBgkiBgJAQIRACssP16LmQquim+v6x8IVgziBQFIRoI5u3IUvoGelbJQuQH6IdJZwCwgAASAABIAAEIgGgVSWH1HytJLKswRjgEAQAmjiFoEWnQ9g4yHRbgsgP6LRu0IcQAAIAAEgAASAgAgBkB+hTkcJ4hRG2/+D5IAAl4DV2FxaVLhvF7le5AB5sCM3QDRrMsgPkc4SbgEBIAAEgAAQAALRIADyI5pOW+zcQYg57QlYR6hF/LvzTn3aNkItC4mZ6AX5EY3eFeIAAkAACAABIAAERAiA/AD5AQSAAJ8AyA+RzhJuAQEgAASAABAAAtEgAPKD73il/Vt2AAIE5kF+RKN3hTiAABAAAkAACAABEQIgP8DXBAJAgE8A5IdIZwm3gAAQAAJAAAgAgWgQAPnBd7xg9AMIAAGQH9HoXSEOIAAEgAAQAAJAQIQAyA+QH0AACPAJgPwQ6SzhFhAAAkAACAABIBANAiA/+I4XvPkGAkAA5Ec0eleIAwgAASAABIAAEBAhAPID5AcQAAJ8AiA/RDpLuAUEgAAQAAJAAAhEg0A05QfrssAFEAACG4NANDoZiCNSAk5txUGFJejTa06LYdYdNNiGDLDmdrvXwsqZ5RNpxRVnWI9A4LgTcM8aLM7wCjbuNsYzwUjauEVxsEIbvZoev4YTYr8XT/5JkVaUCzTheQL5cXBjuImQCyAQCwIJ76FiZcCKuoSQVBmS28G5r5QRcnNQBCEGCxpPagVYnW352WsSgvonVdwO1XpzDSFTRc8pCzVZCBcWAbOckCnvh/XIhg7MbeNro/WyYoUlSO8VZYbxazjczKZUuTrVpbKKnhh1L1Eu0ISDBfkB8gMIAAG/BBLeQ8XIAHtrvvRQvqRUm9SDBiH+DIcYLEYoExPtmv6XkpwavfsFmfzampgn5tSWi4wdxc+LijcZ8fzG24ropLfRPK31UuG2cXdPReaOCqzzEi36KDOMoOFYPolo+IWb2fWii+vzs4r9mdKm2XWnGY8CXbeR640gCvJjvSbA80AACACBuBKwtxzKqh/SVxAl6pW4JhxeYiH+DIcYLLy0kzy0RS6RKe8GNtJS/7rI2FEEXlTgZJLmW/H8Jo15YRkSZdc5rLSTMXCQNi5a9FFmGH7DcWtLIxrCCpLZZCyfaNsUjwKNts1hxwfyI2xk8AAQAAKpTWCiPksiN3vX9KeTex5OiD/DIQZL7TLjWR+Ca+XWlolNXQvfi+Ilnawf/eQ3Wc0NbFcI5Rs4gg32beA2Ll70UWYYfsOx1L8O8iOiihiXAo3Ismg+BPIjmjQhLiAABJKfgOVslqQGLalwXykjDrXYBRabawj5kNfrnlWezqeWFxR1MNN5Xzj1n5Tlf59cdLAjp6RGPev2OlUybDmBU1kormr4v99rTrOqvqxQmrMDLWDIzJaVtVo4k8EYn8M92lJRmJNJhsoplqutnFBeJpjXa6l/XYIsF/yzt+YTxWruY4JA9A33bFd92SEyNSJTJDmvl+azOquuKaGMl3w/n288FdsLp761omQ/oogy+IneSU2X8pc4ed9tVdeX5tMWZJfIu7CF9W5t1UGaGL3uo1DJlA0bqVNbTuGigxCEr0ToUnBzjK9QYUn4otG3nC6RorLOzCksUxgE6bAhyQu6GviwSF4rKGsZJan7bhKZ2SXyHmGl83qd+pbTRVR9QzzFWDkNirJCKRUmM1sqK61XTri93kD55drIfHKalUzZEZLXpMVyPb7QIqgl95UyhH1ttkteko0KCqsAvpsEaiBaO6fEzXJKEzr19cVUGSFKArZirjOySrw47KoiSXY9f5OG++oiSU79BJNl/l/aErdRUVZAEsWs9d2UvJZf2sJtlmREZMUuovoBFEah59cOOv6122o5llO6PvCMCQU4rqV9TT5A0dMM3VbcgAolr/fgWUJ95PVyZ1Gz5XdfL9yzPS0VxVKygRCS70vxsrZ8QtdSXwsku1wUfbT6Pa937b5ZebZMdpDpGwuZ5sZmisyIjOx/UCs+KCs7q7RwRrzJ7o7sXcksoP6c8y94DJzgPEphdJV0NFEqUP+NhWNuQj+A/EgofkgcCACBOBNY01dJsminBL1kkrYs8C1Avxk9Zvn+fHnPrNPtdrud7lUyzJq95W1JZmG9esKObrvt5tYK6X55/ftZkciPBWVFjdJ8l965ae2+Xl4gyWnEnCjkZFQpVUWvFdZrb1OGzOpby3KIHPkQttjB54t4LY1Zkl/qse+orNlbDhFlV3i/q/xck5/t6uJMyf6KliE6g5Yueb5EUqTiuMvmGqLqCuJTpTLT4YZayrKJnA+5q2FXzfL9mfkf6u0UvVW79pc5kreVnLgEVtg7SjIl0opWJuYJtbxAInhKzD3lRYVhwb9B/kGTMqjxa0Ny6Y58ucG+RnrPa3e1Vdl8Dni0Xi9SodImpeKQTN5lIbE4LaqyHCK/xWqRZ+eUsTkyIKQVfZxSQslJMmVntXSFu61veTeHyJabKXRkSvZWWWaBXH+XfnDN7Zw1tLQYmGL1k1+ekcj9o9NSW+6Stdhtt3RpzUw0zLeBLEGK96BC+Um+7EM6EueEsiybyG+dtXyYk/Nui5mK+S6q0pLTeIVETrl+tD7/EFbHVFVSfh3jl2+w4nCq3+a2HS+6k98coK6Z5USFsqMs/90WPdW4KGt/qbd3FGUWyJkWZ1G+m8N/SYEqNuoHmDBirdJrlhNVWqNcWlClZFqTmWq8o2EXPfaKgSxPXlnzPtJFjhgqVMENENQQu/JtiaRAjvVyZdK3lcr3fRoePbKmr/+ZQnvbSTUQ7woCxV1Nxy9EOqFo9Xter72tQo66IIrnmhO1LFxw2luOYP2PF7UYfWuLnqnqXi/q7nLeVVpWyBjW3JbmIgmn0QWNgQ9PKD9C6ip50ayvQIM1Fl5iCfsI8iNh6CFhIAAE4k9gra+CeJ19UYrmX2WdxTx+0iBzDZG5I1/43hSNIQhGS9aMVVnYy3WvN+TRD2HmF1qkErnPmvtK2f+VlVPM99edXWUSXxa8HNdkoSWfKMPWpJJpoMlmVbgPKEyZuuNUyYhDilnO62qvF8WZj4s0cw0hkUj5fPhJr5lrsnJqzBxXy2tXFhIlXb7ff74l6Hc3X7CNFZJP+a24K+nHs8GjE/8JRy9xgxu/Zpa/ztV4Xq/3rlIWcLEQokdkVRk5OUZDbZJM3+gZaaG7q4TAtz1AyUkqenhY1vSnJZiYtMglIlLZl2M/+fUFoK5WtGWSrCpWtPC+DskSqsoRWe9zCxdVM0nm22rOMADaYg6vkGY5kZl5iCOrKEWUw9nqilu+oRQHd6zD2VEkETRVbl7NcoIgCrmNi9wQT7JfzpXRlvrXmRcWKApUsSWn+Y1sra9CwmllZjkhkexnuxo6cXtzfvhFz23j3mAf6aQYA7jNmW8AF4rX6xXt5dxXyjIlXPkheNC7pq8girDi5xaiMDx7J7J+j30cu7A3SyUfMj3oqFxyUGRwmw3uVMkE7zXWzO9n+X4RgsXARsVeCOVH8N6GfZi9EG/LoRVoKI2FTSihFyA/EoofEgcCQCCuBNzqYiILG2HgqhHaFHMNITZVCU1tEtur195yEP9hXof88JqrcCcM/QiJTqbiTrLi/FahDPL8e3ayWTDS/jKItpnCofnhY285KJGPMomgkSWRmd/IR8c9byY49dfP6I13zVDFUVzo1bJI5JzIOFh834RiPJqVJzanS1kYaBAJZU3o7hirCKKKv3vyXaUM05n+JgGSwo/13XlOsC9H9JWf/PLCBZ6GF5ollPsr1EJmlFUjP0HlEaxWoILDGwsbmNdqOOUbYnG4r5TRU7CQFOEIZjYZ7AJZwhuD8nrtyiOErA0XuugJ8/uET0Ciii0aOW+MEcXPa4koLq6rHQ5wbB8FXlnzPtKZDMkADAh16a8TsNS/LlpweASIHjb5k1OIeDjBdUT9niAWdMNY5Wu5E/VZ+GsafnhuL8p+OyT3dTVBYmCf8V0I5YfYTwm3q/Q9zVyto0BDbCxMSon8C/IjkfQhbSAABOJKAHXr+ItMNIWgQnAAiLmGkAqnbaBn8Xd7PsPNnGkJPEcKCxb8xAnuDzZKkfU+ffF4vW5tKeYKcH+rBA5NMLeVjdhvcuQiGcwdRz+xAheNGvbxOR9DchFf3Ov1DskJzPNmEycvEDrxSWJ8McMFxY2F/sTFwgYRL1xyzIo13k8YcuSEfbfKxshcIPnBTnBnbqL8Yujo21zbzDUcScw+Si7m8flz9laZJLusZcjPcXzcOLFI8Eun+m3Mk8a/Ia9DtIQz4OaLRLRQUJmyYL1IfnAbIPO4pTGLeJ+VaZyoQi4Ot7ZUktOoVQaZdkUlyUmCsYJnLX2b41MOybHhU+Y58i/Kgq8CkPELN2fjFlOEwLmR+C8OoUQUjJxwcuD1OtVF4r1cKBt18OiJEualR33khkS5C6HfE42J09zsLUckaCrgfc6AJP0cSqVCZEwY3Wf7+YAxiBnAqSrkMrngXaUwHl750gHMcrGpwrzSD7mxCFON9x2QH/EmDukBASCQKALo1W9uvZma8U7/36kuJbApLsg03k8Ibe2oXIKv/sTywA2PfoOxpSC+cNxg6L57Qa/8pKLkoFRKrt8ll2liL/XFf4TQg+gVPuvo8IKhxS2+t7No3ED4St5nFHblP4M8zSDMCBkLx/kgZyL51p1yr7D3uFj6Xq8FIRZbOk+6rbyX6BgoTiTMBx4W5nYIxqOM+P3HYmciZP9GKj+QJBCtMJSi871393qdhnq03HlHftlZJd+p8pNf1jzyAr0R90MYrV4J1RLxtLhOJJ0wp1aQ5ShecIieT6fhUYVTHKv6ColgShUXAfMJT4K5x1Wh7F28zjg7ijA72SDoAmXBN/dMNH6e9x8pcB5/3kfaqFAM4NiPPvjvBHAI9GNOi7q1qqxQKqXXdqNGg9UuPwZEq99DRrjtBqXidIkU347CV4u83hdO/Vm0nUPmobJ6lZkj3IfQ5Ds//7AqGiAGATzhb4cINPQUr1EIIoq8QMNpLIJk43wD5EecgUNyQAAIJIoAmj/g5x/nZZv4bwb6uRL3m7nh0Q+AqDfJDbZm/lCaub9EgZYpsy/nuD/Y4j9CiF4g+eH1Ws6y05fRvCnuqgn/8P17HpHID/9emn8LkkV++PfC/dtOeZ9CccJ5Hcs8zinZkH1Q5um1u2bl2RKpRPLaz1pm2bXpnDiZoPy/yS0/xH33AHz42fNO1OdIJBJJmZazu5EgGLrBbWt0EHG/EG+5G1x+hNrLedEWETtkcpV+1sn2Xzx6ooSj1++RO1tIf6ZAS+TZViDa3F6s2YeU9T9DLaakdZbubQN0d8L6IhqDMJjg1RVec7DgPFDYN9SleFsW5Rm6oBWkkugbID8SXQKQPhAAAvEhMFGfJbp0GA0XcGZpi/9moJ8EscF6cmo4pjf8yQ/O7AVyMUMVvq8RyYD7A+M3xUCTr1A8Cy1SatIzmrMU8tGKaN4FR4axxcKbTyzOh/dKbxSbQs1GFOQCOZpxmHyFFRZrEMchsHzIWevCBgp8Eenoh9d/ckgwY6+Tuem/sKtLsY3OxF0W7iNkGYkTJgOGaol4WtzaS6fMARto8tWHEt+AHlcb+LeKm7s1izw7q8rotjTytmDiBqM/hWItExSfNum/YotMvsK3M6Yi46LznzVu0XOf4s234X9krBZfH8WLig7M/EH7K4j2cpzui1yVJDz3U1jW2DACmUL0+j1yQRpv8wNqbic++sFki/57V13Grt/z393xHuJ8xGPgfEF/4PWNvI/MEzxQzG32r3gZidZYnvwI0JmwsSfLBciPZCkJsAMIAIFYEkA/V7xJVmxylrNZ+IQKP78ZZjm7Yy/7JLrgLT1H2kBk6Qg6lMM3KmLhOFtMdAstUnxFNfoREpsoj+8d7OX//JBx2VsOoTXrSDaEetyHlzo2RGxtvcjS86AevNfvCl0ms2J/47P0PKjxgvUzYrYK7kUsP/wmx99MTJAkchaZETlxl4X/CHKROTvhcgKEaol4WqLuEc/TQsMvYvxRI8J0EScqv1ZxbF+zfJjDbMZlqc+W4JPWOAHpD5wkmAA8a5mguPzwW7GFS8/5zjeKjovOb9Z4Rc99ihcJ/yNjdSTyw+uvl+N0X+JDQGgdHa6WRQhHr98THym1N0vxnpwpVt9fexu7QMvfIntfYNErLAaR73m/HbyPzAPi1Yz5ll9JmPsiPNFX3Lrht0YxsSTPX5AfyVMWYAkQAAIxI8Bz2XnpcPeW9fObgSY1cTe2R7EINt4V37nSrirBd65EP5N8LxDt+Ujw5QfBPTYBpYh+/7IVs2wWuD8/1G13V4mkRqsuFWzVter2TVRgY2AuxLcrva3Ix60STDBgn+YuMkbuoGBfSyasv7+iexa9mFUc4vmsfn6J8WiRmygymOOncLkOAXqPHuSUDzwp6jpi+eElkxPswuTWnpZk8Xcu5iY7UZ/FLuzxk1/uA9Q2yoI9hdlAIVoiVuVCm85EbR7K33jX3SPctRbz3UMojrVReY6kQs9OwkGzsIrUwsEHNqfcARbmNrcaMHe5dYas2PzG60VZeF2ObUXsp4ry0EUGnBeJeNGHZgCTR+Yv+ZpGcDjPWl8V3n2hDQPZisc8ifoljvwQ2fQiev0e0qv8JrNqrnodrfzhbP3MmEf9tZzNYt8Noe6Oc8oHN6ifT3gMwiDcquJnGSFvoFgYy3oKNITGIkwwIXdAfiQEOyQKBIBAXAmgkxYCnQOA9qtlf5Z4PyE+Q1fN8myJ9H31LDWz/MWa3SCXHVLUc3a+8nrJ9a/Y4WsW9VlZTrFa34odjo4ET05Z1yx9qt2KRVmeX6LStxzBvC50trRCWSOVljPnuDlntWdlmZKilgV2uQj/7Rdt7Zq+4vUswXEfaGQG30LXlzX6ijx2kHPiWIVUklnSwdmK1A8fgeu2aqkvwE9pdLvvWrQqubwrgHtAzimX5DMn97ntQy0V+yWZxWqOBeK+Iy83qExzavRu6txAxjEN0fi1ifp8dA4gezaf2z6hVdbIA3i0kcsP+ijAnLJWNJMenXN5W1tfmCnZj7np99Vy6pBK6hiHF2vkSX/4O37x/PKgIPlKH+xIp+V2zpq7FGorHZA8djCgJYIXrkwSov4ur1agMOgsPOxoS/owPvwkTUH5BikOsmHynFF7c35A9RuKtXTO+HWGPHYwhz2vkG6VUs5hoIIs0HHxlEMoRS8Ezo9EtOhFM+inu2CKEP1FMAnuoYoV+cVKcxvWfaG3OZL8RjO97GPVrj8ry68xa9/HRz/I9zVvK+1kX7W2Sv6JXr+H9hHJLlPfpnrCNfeEsuJQidLQImPkh7NLjh1K6PWukseAckSpXftuDjpl1UA1OzfVFkqa6JNDQogBB4eueVWF95EJzWsUzG3f33UVaJDG4kslwVcgPxJcAJA8EAACsSeAenORPfixhPGTJfz8ZpChXzj1n5TJyI2qMrNlZZ/onS/4Pzko3IpZUZr/mgQtdM/MLpF3zbrJpcn4tJO122p5cU4mQRCS16SFZQqDk9x6iCs/0BEZa/ae+hJqayzJa/mlCj3Pe+f7IlSu1rTvCk9U9LPVPcbB63XPdsnp5IjMnGK52so7Dk8svygGsd/UF06zio2NyMyWltQoLcGWBbutDBmMHsdGf74dN5B3xVxPEd6RI2umh4v8FK6Y8U6zsqYkZwe1W0FmzsESucrCZ4GluB75QfLTs3VG8v18qmr5ol9z6sldhmh7duRIi+XKUa45Yvn1xYBdkYSlVP2UfF8qK1WY8UJxBrRE6A3TMYv6uzywdBisiEXrmFhUfotjzVyTIxwkRLMiDwUYwhJLQrQOC3xKlF2yH8j/PtnCRVulvyoq2lrDBS6MRKToRTMYgvxAG0rNqpmaz1ZFpwqTH5wujmwaZBdn+ZB7TtHqrPI02Q1KXpP+kj6oMWr9nneN7amoOow6Rqe6iJEfa/f1Le+XyQ6SfSzqSUQ7H7e9R1FWQDUFgopHe5d+uRNaDFi7ElSVMHobTjToF0TQd4VToH4bCy+ZRH4E+ZFI+pA2EAACG4CAn9+YxOZMbA43Wm0puq40saZC6ulDwI8LlT4AIKdAAAiQBEB+QEUAAkAACKyHAHq/KzjseT0RRuFZNJgjmGy21lfhb/F9FJKEKIBAcAIgP4IzghBAIB0IgPxIh1KGPAIBIBArAmtD8hxJlcjpubFKMJR4kSISTjYz12SKbWwVSoQQBghEhQDIj6hghEiAQMoTAPmR8kUIGQACQCA+BJwdJUWnW9RDzDpFt92sqsqXBJhfHh+7mFTWqIPc7foP8yXZ9fTySeZL+AsEkoAAyI8kKAQwAQgkAQGQH0lQCGACEAACKUHAbde2VpQwaxnRknHh8t8EZsSpLUHrpDNzihWBlkgn0EJIOt0JWBQHK7S8vRPSnQnkHwikIwGQH+lY6pBnIAAEgAAQAAJAAAgAASCQEAIgPxKCHRIFAkAACAABIAAEgAAQAALpSADkRzqWOuQZCAABIAAEgAAQAAJAAAgkhADIj4Rgh0SBABAAAkAACAABIAAEgEA6EgD5kY6lDnkGAkAACAABIAAEgAAQAAIJIQDyIyHYIVEgAASAABAAAgICQ3KC929HjrS4osXgXBOEpW84zcqzZbLsTOo5yfelstJ65ZD/8Gw8L5xmVX1ZofQ1Cf3oa/tlZe+3aG+7/abFPgsXQAAIAIF1EAD5sQ548CgQAAJAAAgAgSgSQPKjSkud4EL93zlr7qqX7SByTuvd/ITWLJ/IMolMWY1Sf9tJP3TXolXJi36mDry9rduI4swslCsN7Dk2ztkhdcvpoteOtNj5CcHnUAg4teUKOG8nFFIQBgiA/IA6AASAABAAAkAgOQgg+SE3C225q5QRWfUTnC8sn0glO0qUdzk3Q/mwNiTPIXKqegIrlFBigjA4AUv962JlhweBayAABEgCID+gIgABIAAEgAAQSA4C/uSH1648QhR1YIJhoj6HyOEJkpDysKItk0gq+mCCVUi0wgjk1paJSscwooCgQCBdCID8SJeShnwCASAABIBAshMIKD/KrrDTr9b0v5RIfqmPQENYzmYRxWo2olCAuK3q+tJ8anFJZnZWWsHRAAAH90lEQVSJvGuWfdzdVSIe25q+SoIN17xw6lsrSvajZSaZ2bKyT/TOF5yUzTWEfMjrdc8qT+dTa1ForXVfKStUOr1et1FRVkB9k5lTLNdyx3ycKplM5fSuzqprSnJ2EAQhea2grGWUNNN3k0DG94jNLHPqW06XSL+PrMspLFMYMJnn9XqD2+DUlufQi2+YpTvIHvgHBICAHwIgP/yAgdtAAAgAASAABOJMwJ/8WFGXECXqFdYacxUhQf562P8s9a8TYQ192DtKMiXSilaznVxcYp9QywskkreVtBePDJMp7/PtWDNUSV6vpxdCrJrl+zPzP9TbV8lgq3btL3N8MZD3kPzoMcv358t7qLUoTjcV+L5SdqRFryqSFiu01PoW56z2w3yJpEiNJepUyaRNSsUhmbzLQtrptKjKcoj8FqtFnp1TxhpvkOcLRn7WhuTSHflyg32NVERrd7VV2ZIiFaZSQrMBqRQY/eBXBPgMBMQJgPwQ5wJ3gQAQAAJAAAjEm4BQfrxYc04oK/a/VtKBOcRoKUiZlh2DCN1K5CIXBVmWjseGwucrbuO3vF6vveUQkd9K2ePWlhKCN/1r+tNsgDVzTVZOjZk7UGNXFhIlXb4MmGuIzB35InPJkAGSzHd5eV3Tn5ZkNfqWeTtVMoLIqjJyErGczZJIMjkz1rxeNFxTisW2Zpa/niMf4jzoRXgxsReaDSA/eLUEPgKBAARAfgSAA18BASAABIAAEIgjASQ/BP/2V6hvc/1joUoJ0cYwH7Q0ZolO8cIHN9D1Ie5mWWgVRH7LAmkTuhYZHkGCAZMB5hpCfBIXcv2xSVxMNtf6Koi3fTIKxXaQa4PX6zVWEUQVfx3/XaVMImeFi/tKGUFO7mIipv46lYWEb6pbaDaA/OAyhE9AIBABkB+B6MB3QAAIAAEgAATiRwDJA+HGu4qS/ZnScq1v+CNMFeGzX/RBdJPzj5nWxfXCfbF4vbioQMs8GLFBhkE+Pbu8ZEguIgy8Xu+QnMBkgLmGkDb78udLCrn+AglBPY7JBiQ/avhCAyWBhaHjRBH69qfyl665hpB8yIiU0GwA+eErNbgCAsEIgPwIRgi+BwJAAAgAASAQHwKi8gAljWYr5bMO+kKLNLLJV+hBgTf/Yg07aERbRZCrwFGiFrmEvebl34zUwyh903I2CxMPbnWxb2IVOS2Ko22wDxwZIJjBRUbOVQs+I7jSIlL5gfSV33+sngnNBpAfvtKBKyAQjADIj2CE4HsgAASAABAAAvEh4Fd+eNGQAju/aE1fgXn/YZiGRi2k9LQo8cfM6OQRelF7qPLDO1GfxS40R4vRK9g9uZwdRSJDEIKkzTXCBSRkoNBc/4jlh/ptP+niFoZmA8gPnBlcA4HABEB+BOYD3wIBIAAEgAAQiBcB//IDTSXyzRpCIwxZZ5nZQWFYhx5kVo2LPobLD6f6bWwJBB4cn3yF7ttbDtIrNJwqGWe5yKjctwUWHgP3OkHyw2v5kLOEnWsU8wnkB0MC/gKBaBEA+REtkhAPEAACQAAIAIH1EeBoDE5U6AU/O/rh9aIF39zNZzmh/X9Y66uQSMq0vj18eUFx+eENZek59by9NZ+UQ05loaTKgC2UR0KFszKElx71MVHyA40p8dbNC+0D+SFkAneAwPoIgPxYHz94GggAASAABIBAtAj4kx+rlnrfXrdUYk712xLJfrnZt3ttiEa4taUSyf4qvbgC4cgP7311EXdZOUrjxazikGDO0kJL/uv1lvtKGTsLizZnzfIh/5QPoaGJkh/eNYucd8qH0LgQ5QcSWhHthixMEe4AgY1OAOTHRi9hyB8QAAJAAAikCgEkP7g7X7ntli5FyX7spD82L6uzLcWZhERa8onacpdZPe6cNfco6ztm2VBiF3ZtuVRCZMpqlNoJ6jhB9LjztlndWpbvW/uBHiWPHcxnjvNz24daKvZLMovVgm2q3OpiadX7JSJTwlYt9QWSzMJ6NZvWXYtWJZd3+c4FT5j88HrXJurzJZmysz6G9gmtskbuO9YwRPnhRRPbcmr0bur4QurYRDH6cA8IAAGQH1AHgAAQAAJAAAgkBwEkP3j/MnMKyxQ9dn+DHM4hpbxYmrODfiozWyorrVdO+Avuy6Z7QdtyukSancmkl5lzUFb2fot6wonNnULh3Va1vDiHCpeZXSLvmhWNHZ3o529d+wunWSUvYdLKzJaW1Cgt2PBLAuUHyqHTrKwpYRhm5hwskassvjyGKj+83hVzPQVqR46sObAC9BUEXAGBNCQA8iMNCx2yDASAABAAAkAACAABIAAEEkMA5EdiuEOqQAAIAAEgAASAABAAAkAgDQmA/EjDQocsAwEgAASAABAAAkAACACBxBAA+ZEY7pAqEAACQAAIAAEgAASAABBIQwIgP9Kw0CHLQAAIAAEgAASAABAAAkAgMQRAfiSGO6QKBIAAEAACQAAIAAEgAATSkADIjzQsdMgyEAACQAAIAAEgAASAABBIDAGQH4nhDqkCASAABIAAEAACQAAIAIE0JADyIw0LHbIMBIAAEAACQAAIAAEgAAQSQwDkR2K4Q6pAAAgAASAABIAAEAACQCANCYD8SMNChywDASAABIAAEAACQAAIAIHEEAD5kRjukCoQAAJAAAgAASAABIAAEEhDAiA/0rDQIctAAAgAASAABIAAEAACQCAxBEB+JIY7pAoEgAAQAAJAAAgAASAABNKQwP8P41P7NgXDMRAAAAAASUVORK5CYII=;" vertex="1" parent="1">
          <mxGeometry x="40" y="350" width="446.39" height="250" as="geometry" />
        </mxCell>
      </root>
    </mxGraphModel>
  </diagram>
</mxfile>
